{"glyphs":{"0":{"ha":875,"x_min":0,"x_max":0,"o":"m 494 1136 b 792 764 688 1136 792 968 b 228 -37 792 492 600 -37 b -56 314 75 -37 -56 50 b 96 838 -56 449 -19 663 b 494 1136 133 1022 294 1136 m 238 50 b 638 839 464 50 638 546 b 486 1069 638 951 608 1069 b 451 1067 475 1069 463 1068 b 486 1019 488 1051 507 1025 b 222 750 401 997 300 897 b 226 678 222 726 224 703 b 333 476 242 553 297 496 b 281 449 368 457 313 438 b 144 551 261 456 194 479 b 106 269 119 464 106 369 b 238 50 106 110 163 50 "},"1":{"ha":553,"x_min":0,"x_max":0,"o":"m 303 1065 b -15 753 243 1019 -15 818 b 63 688 -15 688 57 672 b 293 940 108 813 211 885 b 344 913 338 971 367 979 b -3 31 304 790 3 114 b 211 14 -11 -103 214 -28 b 547 1036 199 197 539 938 b 422 1140 551 1089 457 1140 b 303 1065 393 1140 344 1097 "},"2":{"ha":875,"x_min":0,"x_max":0,"o":"m 650 232 b 744 133 644 249 744 232 b 565 -21 744 46 674 -21 b 288 118 449 -21 364 49 b 11 -42 190 22 93 -42 b -114 96 -89 -42 -114 35 b 99 350 -114 157 -61 350 b 267 292 158 350 214 325 b 599 1028 429 507 599 817 b 554 1082 599 1069 578 1082 b 229 710 417 1082 229 858 b 263 610 229 661 247 628 b 256 585 274 596 272 585 b 113 790 176 585 113 697 b 542 1132 113 981 344 1132 b 744 968 640 1132 744 1086 b 376 217 744 793 574 453 b 561 138 438 174 499 138 b 650 232 647 138 656 215 m 4 47 b 193 201 42 47 113 107 b 61 256 151 233 108 256 b -28 101 6 256 -28 151 b 4 47 -28 85 -24 47 "},"3":{"ha":733,"x_min":0,"x_max":0,"o":"m 689 926 b 378 564 667 799 529 661 b 426 567 394 565 411 567 b 638 375 558 567 638 492 b 157 -28 638 86 339 -28 b -83 188 -107 -28 -110 158 b -11 197 -49 225 -8 207 b 118 76 -22 157 -1 76 b 474 397 313 76 474 239 b 371 500 474 468 431 499 b 157 456 308 501 226 471 b 86 588 113 442 44 568 b 603 964 128 607 540 794 b 556 1054 617 1001 601 1040 b 213 946 425 1094 249 1033 b 206 822 186 882 199 844 b 190 800 211 806 207 794 b 119 1039 115 825 67 961 b 558 1118 179 1126 371 1179 b 689 926 653 1088 707 1028 "},"4":{"ha":872,"x_min":0,"x_max":0,"o":"m 719 1140 b 831 1036 754 1140 835 1089 b 599 428 825 976 696 690 b 692 425 631 426 661 425 b 801 465 760 425 790 443 b 825 422 804 471 825 454 b 678 314 825 371 788 314 b 563 328 653 314 613 319 b 490 14 517 197 486 81 b 275 31 493 -28 268 -75 b 393 361 278 75 331 210 b 121 408 299 379 199 399 b 25 325 69 346 42 325 b -36 446 -18 325 -64 414 b 90 483 -12 472 32 483 b 600 1065 261 696 556 1015 b 719 1140 642 1111 690 1140 m 628 913 b 590 940 650 979 629 978 b 175 479 510 864 268 597 b 429 446 250 472 338 458 b 628 913 515 644 607 849 "},"5":{"ha":868,"x_min":0,"x_max":0,"o":"m 303 697 b 507 739 372 718 432 739 b 733 514 639 739 733 644 b 136 -14 733 149 318 -14 b -50 246 -128 -14 -103 215 b 22 233 -6 272 28 242 b 97 90 -1 199 -22 90 b 589 536 292 90 589 301 b 467 653 589 621 526 651 b 253 608 404 654 322 624 b 147 717 201 592 107 644 b 365 1106 168 754 319 1032 b 404 1131 376 1122 389 1129 l 414 1131 b 743 1101 493 1125 588 1101 b 853 1142 811 1101 842 1119 b 876 1099 856 1147 876 1131 b 729 990 876 1047 839 990 b 496 1036 651 990 585 1019 "},"6":{"ha":897,"x_min":0,"x_max":0,"o":"m 596 1165 b 807 1007 701 1164 833 1106 b 706 1000 785 929 699 976 b 629 1093 717 1038 699 1086 b 156 550 514 1103 247 919 b 489 717 272 688 399 717 b 672 494 578 717 679 643 b 231 -31 664 301 504 -31 b -22 367 28 -31 -32 129 b 596 1165 -6 782 282 1171 m 294 585 b 117 251 186 503 117 339 b 229 65 117 139 151 65 b 557 511 393 65 557 332 b 447 644 557 589 532 644 b 294 585 424 644 361 635 "},"7":{"ha":756,"x_min":0,"x_max":0,"o":"m 749 1110 b 749 1019 760 1118 799 1049 b 674 988 728 1007 703 997 b 147 0 499 844 133 335 b -53 54 149 -31 -56 -90 b 542 960 -47 281 310 781 b 351 951 482 951 417 949 b 58 1015 219 956 115 969 b 86 1171 -12 1072 69 1182 b 490 1057 206 1090 358 1057 b 749 1110 600 1057 686 1063 "},"8":{"ha":872,"x_min":0,"x_max":0,"o":"m 846 967 b 529 603 846 819 692 713 b 699 299 614 521 699 426 b 221 -44 699 40 367 -44 b -83 176 54 -44 -83 36 b 317 553 -83 300 108 414 b 171 807 240 622 171 694 b 578 1144 171 1057 435 1144 b 846 967 722 1144 846 1096 m 471 658 b 742 969 617 764 742 872 b 626 1042 742 1014 690 1042 b 353 844 497 1042 353 972 b 471 658 353 779 406 721 m 218 46 b 517 240 351 46 518 124 b 376 499 515 356 450 431 b 47 169 179 358 47 275 b 218 46 47 117 85 46 "},"9":{"ha":842,"x_min":0,"x_max":0,"o":"m 276 388 b 575 583 468 388 567 554 b 526 661 594 650 529 672 b 299 460 508 588 403 460 b 189 607 236 460 189 515 b 536 1068 189 842 353 1068 b 656 894 617 1068 656 1001 b 158 46 656 403 322 46 b 82 139 89 46 71 101 b -19 132 89 163 3 210 b 192 -26 -47 33 86 -25 b 786 811 506 -31 786 350 b 515 1149 786 989 718 1149 b 56 624 242 1149 56 850 b 276 388 56 461 168 388 "},"A":{"ha":1094,"x_min":0,"x_max":0,"o":"m 1226 560 b 1247 481 1240 581 1267 507 b 710 -21 1207 425 858 -21 b 565 133 629 -21 565 25 b 631 424 565 186 593 297 b 317 397 525 414 411 403 b 107 -49 206 224 115 56 b 14 22 104 -85 14 -49 b 206 393 14 86 94 228 b 107 411 158 394 124 400 b 122 515 68 438 113 519 b 269 486 161 500 213 490 b 726 1081 418 696 599 925 b 840 1156 758 1119 811 1156 b 972 1051 875 1156 972 1104 b 824 506 972 994 892 738 b 953 501 883 508 929 508 b 969 428 986 492 982 422 b 803 438 942 440 881 442 b 726 128 760 292 726 168 b 751 97 726 108 735 97 b 1226 560 856 97 1153 450 m 374 482 b 651 494 464 482 563 488 b 818 1010 717 707 799 939 b 774 1013 832 1061 803 1046 b 374 482 754 990 551 743 "},"Á":{"ha":1094,"x_min":0,"x_max":0,"o":"m 979 1247 b 897 1274 951 1224 882 1261 b 1021 1458 954 1319 981 1414 b 1131 1413 1060 1501 1151 1422 b 979 1247 1069 1382 1039 1296 m 1226 560 b 1247 481 1240 581 1267 507 b 710 -21 1207 425 858 -21 b 565 133 629 -21 565 25 b 631 424 565 186 593 297 b 317 397 525 414 411 403 b 107 -49 206 224 115 56 b 14 22 104 -85 14 -49 b 206 393 14 86 94 228 b 107 411 158 394 124 400 b 122 515 68 438 113 519 b 269 486 161 500 213 490 b 726 1081 418 696 599 925 b 840 1156 758 1119 811 1156 b 972 1051 875 1156 972 1104 b 824 506 972 994 892 738 b 953 501 883 508 929 508 b 969 428 986 492 982 422 b 803 438 942 440 881 442 b 726 128 760 292 726 168 b 751 97 726 108 735 97 b 1226 560 856 97 1153 450 m 374 482 b 651 494 464 482 563 488 b 818 1010 717 707 799 939 b 774 1013 832 1061 803 1046 b 374 482 754 990 551 743 "},"Ă":{"ha":1094,"x_min":0,"x_max":0,"o":"m 957 1258 b 782 1400 836 1258 782 1365 b 883 1446 782 1465 883 1463 b 979 1319 883 1394 903 1319 b 1067 1400 1031 1319 1061 1365 b 1125 1378 1068 1413 1131 1411 b 957 1258 1117 1333 1067 1258 m 1226 560 b 1247 481 1240 581 1267 507 b 710 -21 1207 425 858 -21 b 565 133 629 -21 565 25 b 631 424 565 186 593 297 b 317 397 525 414 411 403 b 107 -49 206 224 115 56 b 14 22 104 -85 14 -49 b 206 393 14 86 94 228 b 107 411 158 394 124 400 b 122 515 68 438 113 519 b 269 486 161 500 213 490 b 726 1081 418 696 599 925 b 840 1156 758 1119 811 1156 b 972 1051 875 1156 972 1104 b 824 506 972 994 892 738 b 953 501 883 508 929 508 b 969 428 986 492 982 422 b 803 438 942 440 881 442 b 726 128 760 292 726 168 b 751 97 726 108 735 97 b 1226 560 856 97 1153 450 m 374 482 b 651 494 464 482 563 488 b 818 1010 717 707 799 939 b 774 1013 832 1061 803 1046 b 374 482 754 990 551 743 "},"Â":{"ha":1094,"x_min":0,"x_max":0,"o":"m 831 1268 b 808 1318 825 1261 778 1283 b 938 1447 831 1343 922 1431 b 1043 1418 954 1465 1039 1443 b 1081 1235 1047 1392 1054 1296 b 988 1247 1086 1222 1004 1206 b 969 1360 976 1276 972 1346 b 940 1364 967 1375 960 1374 b 831 1268 915 1351 857 1301 m 1226 560 b 1247 481 1240 581 1267 507 b 710 -21 1207 425 858 -21 b 565 133 629 -21 565 25 b 631 424 565 186 593 297 b 317 397 525 414 411 403 b 107 -49 206 224 115 56 b 14 22 104 -85 14 -49 b 206 393 14 86 94 228 b 107 411 158 394 124 400 b 122 515 68 438 113 519 b 269 486 161 500 213 490 b 726 1081 418 696 599 925 b 840 1156 758 1119 811 1156 b 972 1051 875 1156 972 1104 b 824 506 972 994 892 738 b 953 501 883 508 929 508 b 969 428 986 492 982 422 b 803 438 942 440 881 442 b 726 128 760 292 726 168 b 751 97 726 108 735 97 b 1226 560 856 97 1153 450 m 374 482 b 651 494 464 482 563 488 b 818 1010 717 707 799 939 b 774 1013 832 1061 803 1046 b 374 482 754 990 551 743 "},"Ä":{"ha":1094,"x_min":0,"x_max":0,"o":"m 843 1283 b 786 1340 813 1283 786 1306 b 886 1458 786 1385 813 1458 b 946 1397 932 1458 946 1426 b 843 1283 946 1368 922 1283 m 1079 1256 b 1022 1313 1049 1256 1022 1278 b 1122 1431 1022 1357 1049 1431 b 1182 1369 1168 1431 1182 1399 b 1079 1256 1182 1340 1158 1256 m 1226 560 b 1247 481 1240 581 1267 507 b 710 -21 1207 425 858 -21 b 565 133 629 -21 565 25 b 631 424 565 186 593 297 b 317 397 525 414 411 403 b 107 -49 206 224 115 56 b 14 22 104 -85 14 -49 b 206 393 14 86 94 228 b 107 411 158 394 124 400 b 122 515 68 438 113 519 b 269 486 161 500 213 490 b 726 1081 418 696 599 925 b 840 1156 758 1119 811 1156 b 972 1051 875 1156 972 1104 b 824 506 972 994 892 738 b 953 501 883 508 929 508 b 969 428 986 492 982 422 b 803 438 942 440 881 442 b 726 128 760 292 726 168 b 751 97 726 108 735 97 b 1226 560 856 97 1153 450 m 374 482 b 651 494 464 482 563 488 b 818 1010 717 707 799 939 b 774 1013 832 1061 803 1046 b 374 482 754 990 551 743 "},"À":{"ha":1094,"x_min":0,"x_max":0,"o":"m 1049 1294 b 974 1250 1054 1250 976 1236 b 885 1460 964 1299 885 1403 b 994 1510 885 1507 994 1540 b 1049 1294 994 1446 1040 1357 m 1226 560 b 1247 481 1240 581 1267 507 b 710 -21 1207 425 858 -21 b 565 133 629 -21 565 25 b 631 424 565 186 593 297 b 317 397 525 414 411 403 b 107 -49 206 224 115 56 b 14 22 104 -85 14 -49 b 206 393 14 86 94 228 b 107 411 158 394 124 400 b 122 515 68 438 113 519 b 269 486 161 500 213 490 b 726 1081 418 696 599 925 b 840 1156 758 1119 811 1156 b 972 1051 875 1156 972 1104 b 824 506 972 994 892 738 b 953 501 883 508 929 508 b 969 428 986 492 982 422 b 803 438 942 440 881 442 b 726 128 760 292 726 168 b 751 97 726 108 735 97 b 1226 560 856 97 1153 450 m 374 482 b 651 494 464 482 563 488 b 818 1010 717 707 799 939 b 774 1013 832 1061 803 1046 b 374 482 754 990 551 743 "},"Ā":{"ha":1094,"x_min":0,"x_max":0,"o":"m 718 1274 b 739 1354 685 1301 729 1357 b 1164 1303 872 1321 1079 1328 b 1176 1236 1199 1293 1189 1229 b 718 1274 1101 1275 764 1236 m 1226 560 b 1247 481 1240 581 1267 507 b 710 -21 1207 425 858 -21 b 565 133 629 -21 565 25 b 631 424 565 186 593 297 b 317 397 525 414 411 403 b 107 -49 206 224 115 56 b 14 22 104 -85 14 -49 b 206 393 14 86 94 228 b 107 411 158 394 124 400 b 122 515 68 438 113 519 b 269 486 161 500 213 490 b 726 1081 418 696 599 925 b 840 1156 758 1119 811 1156 b 972 1051 875 1156 972 1104 b 824 506 972 994 892 738 b 953 501 883 508 929 508 b 969 428 986 492 982 422 b 803 438 942 440 881 442 b 726 128 760 292 726 168 b 751 97 726 108 735 97 b 1226 560 856 97 1153 450 m 374 482 b 651 494 464 482 563 488 b 818 1010 717 707 799 939 b 774 1013 832 1061 803 1046 b 374 482 754 990 551 743 "},"Ą":{"ha":1094,"x_min":0,"x_max":0,"o":"m 1226 560 b 1247 481 1240 581 1267 507 b 725 -19 1208 426 881 7 b 665 -175 686 -82 665 -136 b 746 -247 665 -232 689 -262 b 740 -286 758 -247 754 -272 b 668 -315 724 -303 696 -315 b 551 -194 606 -315 551 -258 b 661 -14 551 -135 590 -67 b 565 133 604 1 565 49 b 631 424 565 186 593 297 b 317 397 525 414 411 403 b 107 -49 206 224 115 56 b 14 22 104 -85 14 -49 b 206 393 14 86 94 228 b 107 411 158 394 124 400 b 122 515 68 438 113 519 b 269 486 161 500 213 490 b 726 1081 418 696 599 925 b 840 1156 758 1119 811 1156 b 972 1051 875 1156 972 1104 b 824 506 972 994 892 738 b 953 501 883 508 929 508 b 969 428 986 492 982 422 b 803 438 942 440 881 442 b 726 128 760 292 726 168 b 751 97 726 108 735 97 b 1226 560 856 97 1153 450 m 374 482 b 651 494 464 482 563 488 b 818 1010 717 707 799 939 b 774 1013 832 1061 803 1046 b 374 482 754 990 551 743 "},"Å":{"ha":1094,"x_min":0,"x_max":0,"o":"m 957 1210 b 833 1329 867 1210 833 1267 b 1031 1519 833 1446 932 1539 b 1063 1483 1064 1515 1071 1483 b 929 1325 990 1483 929 1388 b 979 1271 929 1293 943 1271 b 1086 1410 1039 1271 1086 1347 b 1076 1453 1086 1425 1083 1440 b 1099 1465 1074 1460 1085 1465 b 1146 1410 1128 1465 1146 1444 b 957 1210 1146 1340 1088 1210 m 1226 560 b 1247 481 1240 581 1267 507 b 710 -21 1207 425 858 -21 b 565 133 629 -21 565 25 b 631 424 565 186 593 297 b 317 397 525 414 411 403 b 107 -49 206 224 115 56 b 14 22 104 -85 14 -49 b 206 393 14 86 94 228 b 107 411 158 394 124 400 b 122 515 68 438 113 519 b 269 486 161 500 213 490 b 726 1081 418 696 599 925 b 840 1156 758 1119 811 1156 b 972 1051 875 1156 972 1104 b 824 506 972 994 892 738 b 953 501 883 508 929 508 b 969 428 986 492 982 422 b 803 438 942 440 881 442 b 726 128 760 292 726 168 b 751 97 726 108 735 97 b 1226 560 856 97 1153 450 m 374 482 b 651 494 464 482 563 488 b 818 1010 717 707 799 939 b 774 1013 832 1061 803 1046 b 374 482 754 990 551 743 "},"Ã":{"ha":1094,"x_min":0,"x_max":0,"o":"m 751 1281 b 750 1346 744 1271 731 1313 b 838 1381 767 1374 800 1386 b 1007 1271 911 1369 957 1293 b 1068 1279 1028 1261 1057 1265 b 1060 1214 1075 1288 1079 1242 b 961 1189 1039 1185 1000 1178 b 813 1301 899 1206 868 1286 b 751 1281 790 1307 768 1301 m 1226 560 b 1247 481 1240 581 1267 507 b 710 -21 1207 425 858 -21 b 565 133 629 -21 565 25 b 631 424 565 186 593 297 b 317 397 525 414 411 403 b 107 -49 206 224 115 56 b 14 22 104 -85 14 -49 b 206 393 14 86 94 228 b 107 411 158 394 124 400 b 122 515 68 438 113 519 b 269 486 161 500 213 490 b 726 1081 418 696 599 925 b 840 1156 758 1119 811 1156 b 972 1051 875 1156 972 1104 b 824 506 972 994 892 738 b 953 501 883 508 929 508 b 969 428 986 492 982 422 b 803 438 942 440 881 442 b 726 128 760 292 726 168 b 751 97 726 108 735 97 b 1226 560 856 97 1153 450 m 374 482 b 651 494 464 482 563 488 b 818 1010 717 707 799 939 b 774 1013 832 1061 803 1046 b 374 482 754 990 551 743 "},"Æ":{"ha":1415,"x_min":0,"x_max":0,"o":"m 1547 560 b 1575 508 1558 574 1575 539 b 1568 481 1575 497 1574 488 b 910 -39 1496 390 1217 -32 b 590 213 729 -43 590 46 b 601 297 590 243 594 271 b 633 428 608 335 619 379 b 317 397 529 418 414 404 b 107 -49 206 225 115 56 b 14 22 104 -85 14 -49 b 206 393 14 86 94 228 b 107 411 160 394 124 400 b 122 515 68 438 113 519 b 269 486 163 499 214 490 b 726 1081 417 694 599 925 b 840 1156 758 1119 811 1156 b 972 1056 874 1156 968 1107 b 1251 1161 1050 1121 1151 1161 b 1517 929 1394 1161 1517 1068 b 1296 703 1517 814 1424 703 b 1190 751 1224 703 1190 735 b 1208 763 1190 758 1197 764 b 1403 961 1310 750 1403 851 b 1279 1101 1403 1044 1357 1101 b 990 751 1129 1101 990 922 b 1153 564 990 624 1099 564 b 1229 471 1204 564 1229 500 b 1222 458 1229 463 1228 457 b 1125 467 1189 467 1157 467 b 771 211 917 467 771 338 b 922 58 771 115 833 58 b 1547 560 1194 58 1446 433 m 374 482 b 653 497 467 482 565 490 b 818 1010 713 699 797 933 b 774 1013 832 1061 803 1046 b 374 482 754 990 551 743 m 825 514 b 938 544 860 526 897 538 b 858 625 906 567 879 593 l 825 514 "},"B":{"ha":982,"x_min":0,"x_max":0,"o":"m 1051 896 b 689 479 1051 685 885 551 b 831 288 776 444 831 367 b 493 -24 831 101 663 -24 b 244 85 332 -24 265 32 b 276 156 228 128 263 167 b 435 107 318 122 367 107 b 686 310 524 107 686 156 b 501 424 686 381 618 424 b 460 422 489 424 475 424 l 435 418 b 304 378 397 413 354 400 l 131 -19 b 14 92 118 -50 14 53 b 433 1043 14 124 325 742 b 57 1031 279 1018 110 994 b 72 1149 18 1057 63 1153 b 461 1131 190 1097 332 1111 b 469 1171 465 1146 468 1160 b 535 1143 471 1186 506 1171 b 704 1164 600 1154 658 1164 b 1051 896 901 1164 1051 1092 m 356 497 b 879 908 568 499 879 669 b 688 1081 879 982 865 1081 b 583 1069 664 1081 628 1076 l 583 1064 b 356 497 583 1033 469 761 "},"C":{"ha":778,"x_min":0,"x_max":0,"o":"m 333 -33 b 14 367 110 -35 14 168 b 733 1140 14 842 413 1283 b 888 888 835 1096 897 1001 b 611 638 876 753 743 625 b 546 696 528 646 510 700 b 756 888 611 689 722 747 b 674 1100 783 1007 753 1085 b 160 342 526 1128 160 826 b 338 58 160 189 213 58 b 910 560 542 58 810 432 b 931 481 925 579 950 507 b 333 -33 863 388 568 -32 "},"Ć":{"ha":778,"x_min":0,"x_max":0,"o":"m 726 1263 b 644 1289 699 1239 629 1276 b 768 1474 701 1335 728 1429 b 878 1428 807 1517 899 1438 b 726 1263 817 1397 786 1311 m 333 -33 b 14 367 110 -35 14 168 b 733 1140 14 842 413 1283 b 888 888 835 1096 897 1001 b 611 638 876 753 743 625 b 546 696 528 646 510 700 b 756 888 611 689 722 747 b 674 1100 783 1007 753 1085 b 160 342 526 1128 160 826 b 338 58 160 189 213 58 b 910 560 542 58 810 432 b 931 481 925 579 950 507 b 333 -33 863 388 568 -32 "},"Č":{"ha":778,"x_min":0,"x_max":0,"o":"m 732 1260 b 625 1281 719 1240 629 1257 b 571 1460 619 1307 611 1388 b 665 1456 565 1472 644 1496 b 693 1344 679 1429 689 1360 b 722 1343 697 1329 704 1333 b 824 1449 746 1357 797 1417 b 850 1400 829 1454 876 1439 b 732 1260 832 1372 744 1278 m 333 -33 b 14 367 110 -35 14 168 b 733 1140 14 842 413 1283 b 888 888 835 1096 897 1001 b 611 638 876 753 743 625 b 546 696 528 646 510 700 b 756 888 611 689 722 747 b 674 1100 783 1007 753 1085 b 160 342 526 1128 160 826 b 338 58 160 189 213 58 b 910 560 542 58 810 432 b 931 481 925 579 950 507 b 333 -33 863 388 568 -32 "},"Ç":{"ha":778,"x_min":0,"x_max":0,"o":"m 910 560 b 931 481 925 579 950 507 b 386 -26 868 394 610 28 b 271 -267 436 -143 388 -267 b 174 -194 221 -267 185 -231 b 190 -161 167 -171 182 -149 b 315 -33 222 -210 319 -171 b 14 367 104 -24 14 174 b 733 1140 14 842 413 1283 b 888 888 835 1096 897 1001 b 611 638 876 753 743 625 b 546 696 528 646 510 700 b 756 888 611 689 722 747 b 674 1100 783 1007 753 1085 b 160 342 526 1128 160 826 b 338 58 160 189 213 58 b 910 560 542 58 810 432 "},"Ċ":{"ha":778,"x_min":0,"x_max":0,"o":"m 732 1281 b 669 1343 699 1281 669 1306 b 779 1474 669 1393 699 1474 b 846 1407 829 1474 846 1439 b 732 1281 846 1375 819 1281 m 333 -33 b 14 367 110 -35 14 168 b 733 1140 14 842 413 1283 b 888 888 835 1096 897 1001 b 611 638 876 753 743 625 b 546 696 528 646 510 700 b 756 888 611 689 722 747 b 674 1100 783 1007 753 1085 b 160 342 526 1128 160 826 b 338 58 160 189 213 58 b 910 560 542 58 810 432 b 931 481 925 579 950 507 b 333 -33 863 388 568 -32 "},"D":{"ha":1093,"x_min":0,"x_max":0,"o":"m 704 1164 b 1093 813 928 1168 1093 1078 b 479 -15 1093 482 889 -15 b 250 76 332 -15 268 42 b 276 156 224 128 263 169 b 435 113 296 136 343 113 b 921 825 738 113 921 550 b 688 1081 921 968 903 1090 b 583 1067 664 1079 628 1074 l 583 1064 b 131 -19 583 1003 143 11 b 14 92 118 -50 14 53 b 432 1042 14 124 322 738 b 57 1031 279 1017 110 994 b 72 1149 18 1057 63 1153 b 461 1131 190 1099 332 1110 b 469 1171 465 1146 468 1160 b 538 1143 472 1188 507 1171 b 704 1164 601 1153 658 1163 "},"Ð":{"ha":1093,"x_min":0,"x_max":0,"o":"m 704 1164 b 1093 813 928 1168 1093 1078 b 479 -15 1093 482 889 -15 b 250 76 332 -15 268 42 b 276 156 224 128 263 169 b 435 113 296 136 343 113 b 921 825 738 113 921 550 b 688 1081 921 968 903 1090 b 583 1067 664 1079 628 1074 l 583 1064 b 447 713 583 1042 524 893 b 549 704 488 713 522 710 b 565 639 585 696 578 633 b 421 650 538 651 483 653 b 131 -19 294 351 138 -1 b 14 92 118 -50 14 53 b 264 643 14 113 143 376 b 147 654 208 640 164 642 b 164 736 113 679 154 739 b 297 715 206 724 251 718 b 432 1042 350 836 400 951 b 57 1031 279 1017 110 994 b 72 1149 18 1057 63 1153 b 461 1131 190 1099 332 1110 b 469 1171 465 1146 468 1160 b 538 1143 472 1188 507 1171 b 704 1164 601 1153 658 1163 "},"Ď":{"ha":1093,"x_min":0,"x_max":0,"o":"m 554 1265 b 500 1444 549 1292 540 1372 b 594 1440 494 1457 574 1481 b 622 1329 608 1414 618 1344 b 651 1328 626 1314 633 1318 b 753 1433 675 1342 726 1401 b 779 1385 758 1439 806 1424 b 661 1244 761 1357 674 1263 b 554 1265 649 1225 558 1242 m 704 1164 b 1093 813 928 1168 1093 1078 b 479 -15 1093 482 889 -15 b 250 76 332 -15 268 42 b 276 156 224 128 263 169 b 435 113 296 136 343 113 b 921 825 738 113 921 550 b 688 1081 921 968 903 1090 b 583 1067 664 1079 628 1074 l 583 1064 b 131 -19 583 1003 143 11 b 14 92 118 -50 14 53 b 432 1042 14 124 322 738 b 57 1031 279 1017 110 994 b 72 1149 18 1057 63 1153 b 461 1131 190 1099 332 1110 b 469 1171 465 1146 468 1160 b 538 1143 472 1188 507 1171 b 704 1164 601 1153 658 1163 "},"Đ":{"ha":1093,"x_min":0,"x_max":0,"o":"m 704 1164 b 1093 813 928 1168 1093 1078 b 479 -15 1093 482 889 -15 b 250 76 332 -15 268 42 b 276 156 224 128 263 169 b 435 113 296 136 343 113 b 921 825 738 113 921 550 b 688 1081 921 968 903 1090 b 583 1067 664 1079 628 1074 l 583 1064 b 447 713 583 1042 524 893 b 549 704 488 713 522 710 b 565 639 585 696 578 633 b 421 650 538 651 483 653 b 131 -19 294 351 138 -1 b 14 92 118 -50 14 53 b 264 643 14 113 143 376 b 147 654 208 640 164 642 b 164 736 113 679 154 739 b 297 715 206 724 251 718 b 432 1042 350 836 400 951 b 57 1031 279 1017 110 994 b 72 1149 18 1057 63 1153 b 461 1131 190 1099 332 1110 b 469 1171 465 1146 468 1160 b 538 1143 472 1188 507 1171 b 704 1164 601 1153 658 1163 "},"E":{"ha":839,"x_min":0,"x_max":0,"o":"m 971 560 b 999 508 982 574 999 539 b 992 481 999 497 997 488 b 333 -39 924 388 640 -32 b 14 213 153 -43 14 46 b 361 544 14 397 151 504 b 249 753 294 590 249 657 b 675 1161 249 983 463 1161 b 940 929 818 1161 940 1068 b 719 703 940 814 847 703 b 614 751 647 703 614 735 b 632 763 614 758 621 764 b 826 961 733 750 826 851 b 703 1101 826 1044 781 1101 b 414 751 553 1101 414 922 b 576 564 414 624 522 564 b 653 471 628 564 653 500 b 646 458 653 463 651 457 b 549 467 613 464 581 467 b 194 211 340 467 194 338 b 346 58 194 115 257 58 b 971 560 618 58 871 432 "},"É":{"ha":839,"x_min":0,"x_max":0,"o":"m 801 1263 b 719 1289 774 1239 704 1276 b 843 1474 776 1335 803 1429 b 953 1428 882 1517 974 1438 b 801 1263 892 1397 861 1311 m 971 560 b 999 508 982 574 999 539 b 992 481 999 497 997 488 b 333 -39 924 388 640 -32 b 14 213 153 -43 14 46 b 361 544 14 397 151 504 b 249 753 294 590 249 657 b 675 1161 249 983 463 1161 b 940 929 818 1161 940 1068 b 719 703 940 814 847 703 b 614 751 647 703 614 735 b 632 763 614 758 621 764 b 826 961 733 750 826 851 b 703 1101 826 1044 781 1101 b 414 751 553 1101 414 922 b 576 564 414 624 522 564 b 653 471 628 564 653 500 b 646 458 653 463 651 457 b 549 467 613 464 581 467 b 194 211 340 467 194 338 b 346 58 194 115 257 58 b 971 560 618 58 871 432 "},"Ě":{"ha":839,"x_min":0,"x_max":0,"o":"m 700 1281 b 646 1460 694 1307 686 1388 b 740 1456 640 1472 719 1496 b 768 1344 754 1429 764 1360 b 797 1343 772 1329 779 1333 b 899 1449 821 1357 872 1417 b 925 1400 904 1454 951 1439 b 807 1260 907 1372 819 1278 b 700 1281 794 1240 704 1257 m 971 560 b 999 508 982 574 999 539 b 992 481 999 497 997 488 b 333 -39 924 388 640 -32 b 14 213 153 -43 14 46 b 361 544 14 397 151 504 b 249 753 294 590 249 657 b 675 1161 249 983 463 1161 b 940 929 818 1161 940 1068 b 719 703 940 814 847 703 b 614 751 647 703 614 735 b 632 763 614 758 621 764 b 826 961 733 750 826 851 b 703 1101 826 1044 781 1101 b 414 751 553 1101 414 922 b 576 564 414 624 522 564 b 653 471 628 564 653 500 b 646 458 653 463 651 457 b 549 467 613 464 581 467 b 194 211 340 467 194 338 b 346 58 194 115 257 58 b 971 560 618 58 871 432 "},"Ê":{"ha":839,"x_min":0,"x_max":0,"o":"m 653 1283 b 631 1333 647 1276 600 1299 b 760 1463 653 1358 744 1446 b 865 1433 776 1481 861 1458 b 903 1250 869 1407 876 1311 b 810 1263 908 1238 826 1221 b 792 1375 799 1292 794 1361 b 763 1379 789 1390 782 1389 b 653 1283 738 1367 679 1317 m 971 560 b 999 508 982 574 999 539 b 992 481 999 497 997 488 b 333 -39 924 388 640 -32 b 14 213 153 -43 14 46 b 361 544 14 397 151 504 b 249 753 294 590 249 657 b 675 1161 249 983 463 1161 b 940 929 818 1161 940 1068 b 719 703 940 814 847 703 b 614 751 647 703 614 735 b 632 763 614 758 621 764 b 826 961 733 750 826 851 b 703 1101 826 1044 781 1101 b 414 751 553 1101 414 922 b 576 564 414 624 522 564 b 653 471 628 564 653 500 b 646 458 653 463 651 457 b 549 467 613 464 581 467 b 194 211 340 467 194 338 b 346 58 194 115 257 58 b 971 560 618 58 871 432 "},"Ë":{"ha":839,"x_min":0,"x_max":0,"o":"m 665 1299 b 608 1356 635 1299 608 1321 b 708 1474 608 1400 635 1474 b 768 1413 754 1474 768 1442 b 665 1299 768 1383 744 1299 m 901 1271 b 844 1328 871 1271 844 1293 b 944 1446 844 1372 871 1446 b 1004 1385 990 1446 1004 1414 b 901 1271 1004 1356 981 1271 m 971 560 b 999 508 982 574 999 539 b 992 481 999 497 997 488 b 333 -39 924 388 640 -32 b 14 213 153 -43 14 46 b 361 544 14 397 151 504 b 249 753 294 590 249 657 b 675 1161 249 983 463 1161 b 940 929 818 1161 940 1068 b 719 703 940 814 847 703 b 614 751 647 703 614 735 b 632 763 614 758 621 764 b 826 961 733 750 826 851 b 703 1101 826 1044 781 1101 b 414 751 553 1101 414 922 b 576 564 414 624 522 564 b 653 471 628 564 653 500 b 646 458 653 463 651 457 b 549 467 613 464 581 467 b 194 211 340 467 194 338 b 346 58 194 115 257 58 b 971 560 618 58 871 432 "},"Ė":{"ha":839,"x_min":0,"x_max":0,"o":"m 807 1281 b 744 1343 774 1281 744 1306 b 854 1474 744 1393 774 1474 b 921 1407 904 1474 921 1439 b 807 1281 921 1375 894 1281 m 971 560 b 999 508 982 574 999 539 b 992 481 999 497 997 488 b 333 -39 924 388 640 -32 b 14 213 153 -43 14 46 b 361 544 14 397 151 504 b 249 753 294 590 249 657 b 675 1161 249 983 463 1161 b 940 929 818 1161 940 1068 b 719 703 940 814 847 703 b 614 751 647 703 614 735 b 632 763 614 758 621 764 b 826 961 733 750 826 851 b 703 1101 826 1044 781 1101 b 414 751 553 1101 414 922 b 576 564 414 624 522 564 b 653 471 628 564 653 500 b 646 458 653 463 651 457 b 549 467 613 464 581 467 b 194 211 340 467 194 338 b 346 58 194 115 257 58 b 971 560 618 58 871 432 "},"È":{"ha":839,"x_min":0,"x_max":0,"o":"m 871 1310 b 796 1265 876 1265 799 1251 b 707 1475 786 1314 707 1418 b 817 1525 707 1522 817 1556 b 871 1310 817 1461 863 1372 m 971 560 b 999 508 982 574 999 539 b 992 481 999 497 997 488 b 333 -39 924 388 640 -32 b 14 213 153 -43 14 46 b 361 544 14 397 151 504 b 249 753 294 590 249 657 b 675 1161 249 983 463 1161 b 940 929 818 1161 940 1068 b 719 703 940 814 847 703 b 614 751 647 703 614 735 b 632 763 614 758 621 764 b 826 961 733 750 826 851 b 703 1101 826 1044 781 1101 b 414 751 553 1101 414 922 b 576 564 414 624 522 564 b 653 471 628 564 653 500 b 646 458 653 463 651 457 b 549 467 613 464 581 467 b 194 211 340 467 194 338 b 346 58 194 115 257 58 b 971 560 618 58 871 432 "},"Ē":{"ha":839,"x_min":0,"x_max":0,"o":"m 986 1318 b 999 1251 1021 1308 1011 1244 b 540 1289 924 1290 586 1251 b 561 1369 507 1317 551 1372 b 986 1318 694 1336 901 1343 m 971 560 b 999 508 982 574 999 539 b 992 481 999 497 997 488 b 333 -39 924 388 640 -32 b 14 213 153 -43 14 46 b 361 544 14 397 151 504 b 249 753 294 590 249 657 b 675 1161 249 983 463 1161 b 940 929 818 1161 940 1068 b 719 703 940 814 847 703 b 614 751 647 703 614 735 b 632 763 614 758 621 764 b 826 961 733 750 826 851 b 703 1101 826 1044 781 1101 b 414 751 553 1101 414 922 b 576 564 414 624 522 564 b 653 471 628 564 653 500 b 646 458 653 463 651 457 b 549 467 613 464 581 467 b 194 211 340 467 194 338 b 346 58 194 115 257 58 b 971 560 618 58 871 432 "},"Ę":{"ha":839,"x_min":0,"x_max":0,"o":"m 971 560 b 999 508 982 574 999 539 b 992 481 999 497 997 488 b 449 -18 932 400 708 69 b 389 -175 410 -82 389 -136 b 469 -247 389 -232 413 -262 b 464 -286 482 -247 478 -272 b 392 -315 447 -303 419 -315 b 275 -194 329 -315 275 -258 b 357 -37 275 -143 304 -86 b 333 -39 349 -39 342 -39 b 14 213 153 -43 14 46 b 361 544 14 397 151 504 b 249 753 294 590 249 657 b 675 1161 249 983 463 1161 b 940 929 818 1161 940 1068 b 719 703 940 814 847 703 b 614 751 647 703 614 735 b 632 763 614 758 621 764 b 826 961 733 750 826 851 b 703 1101 826 1044 781 1101 b 414 751 553 1101 414 922 b 576 564 414 624 522 564 b 653 471 628 564 653 500 b 646 458 653 463 651 457 b 549 467 613 464 581 467 b 194 211 340 467 194 338 b 346 58 194 115 257 58 b 971 560 618 58 871 432 "},"F":{"ha":850,"x_min":0,"x_max":0,"o":"m 1118 1140 b 1101 1067 1131 1146 1135 1076 b 853 1074 1067 1057 969 1067 b 854 1064 854 1071 854 1067 b 701 696 854 992 786 861 b 821 683 747 696 789 693 b 838 617 854 674 850 611 b 665 626 801 633 736 632 b 415 -19 569 438 464 211 b 299 92 408 -53 289 54 b 507 610 343 263 425 442 b 368 617 440 603 386 601 b 374 715 335 644 364 718 b 550 696 425 700 488 697 b 719 1078 621 839 686 971 b 147 665 447 1076 147 967 b 215 483 147 567 182 506 b 161 460 249 461 192 454 b -3 697 89 474 -3 533 b 736 1143 -3 1032 379 1143 l 740 1171 b 808 1142 742 1188 778 1171 b 1118 1140 950 1138 1079 1122 "},"G":{"ha":846,"x_min":0,"x_max":0,"o":"m 835 525 b 894 442 910 525 908 439 b 825 451 871 446 847 450 b 826 432 825 444 826 439 b 633 -150 826 404 699 46 b 522 -28 617 -201 504 -78 b 600 193 544 33 572 113 b 304 -33 518 78 410 -33 b 14 333 107 -33 14 111 b 747 1140 14 842 413 1283 b 901 888 849 1096 911 1001 b 625 638 890 753 757 625 b 560 696 542 646 524 700 b 769 888 625 689 736 747 b 688 1100 797 1007 767 1085 b 167 294 540 1128 167 826 b 308 58 167 150 211 58 b 665 446 433 58 542 213 b 397 444 560 436 465 418 b 413 563 356 461 403 567 b 704 521 514 518 604 518 l 713 539 b 733 551 715 550 724 557 b 774 524 747 543 761 535 b 835 525 793 525 814 525 "},"Ğ":{"ha":846,"x_min":0,"x_max":0,"o":"m 885 1400 b 943 1378 886 1413 949 1411 b 775 1258 935 1333 885 1258 b 600 1400 654 1258 600 1365 b 701 1446 600 1465 701 1463 b 797 1319 701 1394 721 1319 b 885 1400 849 1319 879 1365 m 560 696 b 769 888 625 689 736 747 b 688 1100 797 1007 767 1085 b 167 294 540 1128 167 826 b 308 58 167 150 211 58 b 665 446 433 58 542 213 b 397 444 560 436 465 418 b 413 563 356 461 403 567 b 704 521 514 518 604 518 l 713 539 b 733 551 715 550 724 557 b 774 524 747 543 761 535 b 835 525 793 525 814 525 b 894 442 910 525 908 439 b 825 451 871 446 847 450 b 826 432 825 444 826 439 b 633 -150 826 404 699 46 b 522 -28 617 -201 504 -78 b 600 193 544 33 572 113 b 304 -33 518 78 410 -33 b 14 333 107 -33 14 111 b 747 1140 14 842 413 1283 b 901 888 849 1096 911 1001 b 625 638 890 753 757 625 b 560 696 542 646 524 700 "},"Ģ":{"ha":846,"x_min":0,"x_max":0,"o":"m 835 525 b 894 442 910 525 908 439 b 825 451 871 446 847 450 b 826 432 825 444 826 439 b 633 -150 826 404 699 46 b 522 -28 617 -201 504 -78 b 600 193 544 33 572 113 b 304 -33 518 78 410 -33 b 14 333 107 -33 14 111 b 747 1140 14 842 413 1283 b 901 888 849 1096 911 1001 b 625 638 890 753 757 625 b 560 696 542 646 524 700 b 769 888 625 689 736 747 b 688 1100 797 1007 767 1085 b 167 294 540 1128 167 826 b 308 58 167 150 211 58 b 665 446 433 58 542 213 b 397 444 560 436 465 418 b 413 563 356 461 403 567 b 704 521 514 518 604 518 l 713 539 b 733 551 715 550 724 557 b 774 524 747 543 761 535 b 835 525 793 525 814 525 m 238 -164 b 301 -232 278 -164 301 -187 b 156 -399 301 -314 225 -399 b 125 -379 132 -399 114 -383 b 183 -296 156 -368 183 -331 b 171 -232 183 -274 171 -267 b 238 -164 171 -194 203 -164 "},"Ġ":{"ha":846,"x_min":0,"x_max":0,"o":"m 803 1265 b 740 1328 769 1265 740 1290 b 850 1458 740 1378 769 1458 b 917 1392 900 1458 917 1424 b 803 1265 917 1360 890 1265 m 560 696 b 769 888 625 689 736 747 b 688 1100 797 1007 767 1085 b 167 294 540 1128 167 826 b 308 58 167 150 211 58 b 665 446 433 58 542 213 b 397 444 560 436 465 418 b 413 563 356 461 403 567 b 704 521 514 518 604 518 l 713 539 b 733 551 715 550 724 557 b 774 524 747 543 761 535 b 835 525 793 525 814 525 b 894 442 910 525 908 439 b 825 451 871 446 847 450 b 826 432 825 444 826 439 b 633 -150 826 404 699 46 b 522 -28 617 -201 504 -78 b 600 193 544 33 572 113 b 304 -33 518 78 410 -33 b 14 333 107 -33 14 111 b 747 1140 14 842 413 1283 b 901 888 849 1096 911 1001 b 625 638 890 753 757 625 b 560 696 542 646 524 700 "},"H":{"ha":1042,"x_min":0,"x_max":0,"o":"m 1174 560 b 1194 481 1188 581 1214 507 b 657 -21 1154 425 806 -21 b 513 133 576 -21 513 25 b 624 439 513 189 561 304 b 308 410 519 432 407 418 l 131 -19 b 14 92 118 -50 14 53 b 144 403 14 106 71 235 b 54 419 101 404 69 408 b 69 515 15 446 60 519 b 183 490 101 503 140 494 b 458 1206 303 765 444 1099 b 572 1099 463 1233 572 1158 b 339 488 572 1067 454 768 b 658 514 444 492 558 504 b 892 1108 757 725 874 967 b 1006 1001 896 1142 1006 1061 b 821 524 1006 949 910 731 b 900 515 853 524 879 521 b 917 428 932 507 929 422 b 788 446 888 440 843 446 b 674 128 725 299 674 171 b 699 97 674 108 682 97 b 1174 560 803 97 1100 450 "},"Ħ":{"ha":1042,"x_min":0,"x_max":0,"o":"m 1174 560 b 1194 481 1188 581 1214 507 b 657 -21 1154 425 806 -21 b 513 133 576 -21 513 25 b 624 439 513 189 561 304 b 308 410 519 432 407 418 l 131 -19 b 14 92 118 -50 14 53 b 144 403 14 106 71 235 b 54 419 101 404 69 408 b 69 515 15 446 60 519 b 183 490 101 503 140 494 b 243 629 203 535 224 582 b 174 640 214 631 190 635 b 183 736 132 656 174 739 b 282 718 213 728 246 722 b 458 1206 369 928 449 1126 b 572 1099 463 1233 572 1158 b 429 710 572 1075 508 908 b 753 718 540 707 657 714 b 892 1108 821 867 879 1011 b 1006 1001 896 1142 1006 1061 b 906 721 1006 965 961 854 b 929 719 914 721 922 721 b 963 636 981 714 975 632 b 874 647 942 643 911 646 b 821 524 856 607 838 565 b 900 515 853 524 879 521 b 917 428 932 507 929 422 b 788 446 888 440 843 446 b 674 128 725 299 674 171 b 699 97 674 108 682 97 b 1174 560 803 97 1100 450 m 339 488 b 658 514 444 492 558 504 b 719 646 679 557 700 601 b 397 628 617 640 499 632 l 339 488 "},"I":{"ha":707,"x_min":0,"x_max":0,"o":"m 918 1164 b 978 1081 993 1164 992 1078 b 789 1074 926 1089 861 1085 b 790 1064 790 1071 790 1068 b 400 125 790 1017 525 408 b 596 108 479 135 549 138 b 581 -10 635 85 590 -14 b 360 32 499 26 426 35 l 338 -19 b 263 24 331 -37 293 -10 b 81 3 201 14 142 3 b 21 86 6 3 7 88 b 222 96 86 79 156 86 b 643 1050 238 158 539 758 b 264 1031 483 1021 329 990 b 279 1149 225 1054 269 1153 b 668 1131 396 1099 539 1111 b 676 1171 672 1146 675 1160 b 746 1143 678 1183 715 1171 b 918 1164 811 1154 869 1164 "},"Í":{"ha":707,"x_min":0,"x_max":0,"o":"m 829 1247 b 747 1274 801 1224 732 1261 b 871 1458 804 1319 831 1414 b 981 1413 910 1501 1001 1422 b 829 1247 919 1382 889 1296 m 918 1164 b 978 1081 993 1164 992 1078 b 789 1074 926 1089 861 1085 b 790 1064 790 1071 790 1068 b 400 125 790 1017 525 408 b 596 108 479 135 549 138 b 581 -10 635 85 590 -14 b 360 32 499 26 426 35 l 338 -19 b 263 24 331 -37 293 -10 b 81 3 201 14 142 3 b 21 86 6 3 7 88 b 222 96 86 79 156 86 b 643 1050 238 158 539 758 b 264 1031 483 1021 329 990 b 279 1149 225 1054 269 1153 b 668 1131 396 1099 539 1111 b 676 1171 672 1146 675 1160 b 746 1143 678 1183 715 1171 b 918 1164 811 1154 869 1164 "},"Î":{"ha":707,"x_min":0,"x_max":0,"o":"m 681 1268 b 658 1318 675 1261 628 1283 b 788 1447 681 1343 772 1431 b 893 1418 804 1465 889 1443 b 931 1235 897 1392 904 1296 b 838 1247 936 1222 854 1206 b 819 1360 826 1276 822 1346 b 790 1364 817 1375 810 1374 b 681 1268 765 1351 707 1301 m 918 1164 b 978 1081 993 1164 992 1078 b 789 1074 926 1089 861 1085 b 790 1064 790 1071 790 1068 b 400 125 790 1017 525 408 b 596 108 479 135 549 138 b 581 -10 635 85 590 -14 b 360 32 499 26 426 35 l 338 -19 b 263 24 331 -37 293 -10 b 81 3 201 14 142 3 b 21 86 6 3 7 88 b 222 96 86 79 156 86 b 643 1050 238 158 539 758 b 264 1031 483 1021 329 990 b 279 1149 225 1054 269 1153 b 668 1131 396 1099 539 1111 b 676 1171 672 1146 675 1160 b 746 1143 678 1183 715 1171 b 918 1164 811 1154 869 1164 "},"Ï":{"ha":707,"x_min":0,"x_max":0,"o":"m 693 1283 b 636 1340 663 1283 636 1306 b 736 1458 636 1385 663 1458 b 796 1397 782 1458 796 1426 b 693 1283 796 1368 772 1283 m 972 1431 b 1032 1369 1018 1431 1032 1399 b 929 1256 1032 1340 1008 1256 b 872 1313 899 1256 872 1278 b 972 1431 872 1357 899 1431 m 918 1164 b 978 1081 993 1164 992 1078 b 789 1074 926 1089 861 1085 b 790 1064 790 1071 790 1068 b 400 125 790 1017 525 408 b 596 108 479 135 549 138 b 581 -10 635 85 590 -14 b 360 32 499 26 426 35 l 338 -19 b 263 24 331 -37 293 -10 b 81 3 201 14 142 3 b 21 86 6 3 7 88 b 222 96 86 79 156 86 b 643 1050 238 158 539 758 b 264 1031 483 1021 329 990 b 279 1149 225 1054 269 1153 b 668 1131 396 1099 539 1111 b 676 1171 672 1146 675 1160 b 746 1143 678 1183 715 1171 b 918 1164 811 1154 869 1164 "},"İ":{"ha":707,"x_min":0,"x_max":0,"o":"m 835 1265 b 772 1328 801 1265 772 1290 b 882 1458 772 1378 801 1458 b 949 1392 932 1458 949 1424 b 835 1265 949 1360 922 1265 m 918 1164 b 978 1081 993 1164 992 1078 b 789 1074 926 1089 861 1085 b 790 1064 790 1071 790 1068 b 400 125 790 1017 525 408 b 596 108 479 135 549 138 b 581 -10 635 85 590 -14 b 360 32 499 26 426 35 l 338 -19 b 263 24 331 -37 293 -10 b 81 3 201 14 142 3 b 21 86 6 3 7 88 b 222 96 86 79 156 86 b 643 1050 238 158 539 758 b 264 1031 483 1021 329 990 b 279 1149 225 1054 269 1153 b 668 1131 396 1099 539 1111 b 676 1171 672 1146 675 1160 b 746 1143 678 1183 715 1171 b 918 1164 811 1154 869 1164 "},"Ì":{"ha":707,"x_min":0,"x_max":0,"o":"m 899 1294 b 824 1250 904 1250 826 1236 b 735 1460 814 1299 735 1403 b 844 1510 735 1507 844 1540 b 899 1294 844 1446 890 1357 m 918 1164 b 978 1081 993 1164 992 1078 b 789 1074 926 1089 861 1085 b 790 1064 790 1071 790 1068 b 400 125 790 1017 525 408 b 596 108 479 135 549 138 b 581 -10 635 85 590 -14 b 360 32 499 26 426 35 l 338 -19 b 263 24 331 -37 293 -10 b 81 3 201 14 142 3 b 21 86 6 3 7 88 b 222 96 86 79 156 86 b 643 1050 238 158 539 758 b 264 1031 483 1021 329 990 b 279 1149 225 1054 269 1153 b 668 1131 396 1099 539 1111 b 676 1171 672 1146 675 1160 b 746 1143 678 1183 715 1171 b 918 1164 811 1154 869 1164 "},"Ī":{"ha":707,"x_min":0,"x_max":0,"o":"m 1014 1303 b 1026 1236 1049 1293 1039 1229 b 568 1274 951 1275 614 1236 b 589 1354 535 1301 579 1357 b 1014 1303 722 1321 929 1328 m 918 1164 b 978 1081 993 1164 992 1078 b 789 1074 926 1089 861 1085 b 790 1064 790 1071 790 1068 b 400 125 790 1017 525 408 b 596 108 479 135 549 138 b 581 -10 635 85 590 -14 b 360 32 499 26 426 35 l 338 -19 b 263 24 331 -37 293 -10 b 81 3 201 14 142 3 b 21 86 6 3 7 88 b 222 96 86 79 156 86 b 643 1050 238 158 539 758 b 264 1031 483 1021 329 990 b 279 1149 225 1054 269 1153 b 668 1131 396 1099 539 1111 b 676 1171 672 1146 675 1160 b 746 1143 678 1183 715 1171 b 918 1164 811 1154 869 1164 "},"Į":{"ha":707,"x_min":0,"x_max":0,"o":"m 918 1164 b 978 1081 993 1164 992 1078 b 789 1074 926 1089 861 1085 b 790 1064 790 1071 790 1068 b 400 125 790 1017 525 408 b 596 108 479 135 549 138 b 581 -10 635 85 590 -14 b 360 32 499 26 426 35 l 338 -19 b 332 -25 336 -22 335 -24 b 279 -169 297 -83 279 -132 b 360 -242 279 -226 303 -257 b 354 -281 372 -242 368 -267 b 282 -310 338 -297 310 -310 b 165 -189 219 -310 165 -253 b 286 -1 165 -126 208 -54 b 263 24 278 7 269 14 b 81 3 201 14 142 3 b 21 86 6 3 7 88 b 222 96 86 79 156 86 b 643 1050 238 158 539 758 b 264 1031 483 1021 329 990 b 279 1149 225 1054 269 1153 b 668 1131 396 1099 539 1111 b 676 1171 672 1146 675 1160 b 746 1143 678 1183 715 1171 b 918 1164 811 1154 869 1164 "},"J":{"ha":1015,"x_min":0,"x_max":0,"o":"m 851 369 b 915 308 910 369 936 308 b 769 304 878 308 826 307 b 261 -114 625 75 447 -114 b 14 89 161 -114 14 -36 b 633 356 14 260 378 331 b 904 939 747 567 846 807 b 857 1072 939 1015 949 1072 b 378 665 639 1072 378 926 b 446 483 378 567 413 506 b 392 460 479 461 421 447 b 258 697 363 472 258 533 b 913 1143 258 992 571 1143 b 1085 1064 986 1143 1085 1122 b 808 368 1085 978 975 654 b 851 369 825 369 840 369 m 257 -46 b 596 290 368 -46 488 103 b 139 89 374 265 139 208 b 257 -46 139 17 194 -46 "},"K":{"ha":1000,"x_min":0,"x_max":0,"o":"m 1132 560 b 1153 481 1146 581 1172 507 b 581 -68 1113 425 769 -68 b 349 408 378 -68 354 225 b 300 386 333 401 317 394 l 131 -19 b 14 92 118 -50 14 53 b 443 1160 14 129 419 971 b 557 1053 446 1185 557 1113 b 360 533 557 1024 461 781 b 1031 1179 551 604 911 921 b 1117 1068 1042 1203 1117 1126 b 478 474 1117 967 861 682 b 653 61 499 113 607 61 b 1132 560 769 61 1058 450 "},"Ķ":{"ha":1000,"x_min":0,"x_max":0,"o":"m 1132 560 b 1153 481 1146 581 1172 507 b 581 -68 1113 425 769 -68 b 349 408 378 -68 354 225 b 300 386 333 401 317 394 l 131 -19 b 14 92 118 -50 14 53 b 443 1160 14 129 419 971 b 557 1053 446 1185 557 1113 b 360 533 557 1024 461 781 b 1031 1179 551 604 911 921 b 1117 1068 1042 1203 1117 1126 b 478 474 1117 967 861 682 b 653 61 499 113 607 61 b 1132 560 769 61 1058 450 m 289 -71 b 353 -139 329 -71 353 -94 b 207 -306 353 -221 276 -306 b 176 -286 183 -306 165 -290 b 235 -203 207 -275 235 -237 b 222 -139 235 -181 222 -174 b 289 -71 222 -101 254 -71 "},"L":{"ha":879,"x_min":0,"x_max":0,"o":"m 908 1258 b 1153 1001 1057 1258 1153 1156 b 893 726 1153 863 1026 726 b 792 775 824 726 792 758 b 810 786 792 783 799 788 b 1029 1057 931 771 1029 922 b 944 1178 1029 1138 989 1178 b 601 594 849 1178 746 953 b 400 150 539 439 476 272 b 846 -78 622 118 846 38 b 718 -190 846 -174 731 -221 b 407 44 660 -49 507 15 b 335 61 381 51 357 57 b 143 -37 279 0 217 -37 b 15 67 51 -37 6 10 b 189 167 24 115 82 167 b 253 165 210 167 231 167 b 463 635 318 271 390 456 b 908 1258 614 1006 731 1258 "},"Ĺ":{"ha":879,"x_min":0,"x_max":0,"o":"m 1051 1606 b 1161 1560 1090 1649 1182 1569 b 1010 1394 1100 1529 1069 1443 b 928 1421 982 1371 913 1408 b 1051 1606 985 1467 1011 1561 m 908 1258 b 1153 1001 1057 1258 1153 1156 b 893 726 1153 863 1026 726 b 792 775 824 726 792 758 b 810 786 792 783 799 788 b 1029 1057 931 771 1029 922 b 944 1178 1029 1138 989 1178 b 601 594 849 1178 746 953 b 400 150 539 439 476 272 b 846 -78 622 118 846 38 b 718 -190 846 -174 731 -221 b 407 44 660 -49 507 15 b 335 61 381 51 357 57 b 143 -37 279 0 217 -37 b 15 67 51 -37 6 10 b 189 167 24 115 82 167 b 253 165 210 167 231 167 b 463 635 318 271 390 456 b 908 1258 614 1006 731 1258 "},"Ľ":{"ha":879,"x_min":0,"x_max":0,"o":"m 908 1413 b 854 1592 903 1439 894 1519 b 949 1588 849 1604 928 1628 b 976 1476 963 1561 972 1492 b 1006 1475 981 1461 988 1465 b 1107 1581 1029 1489 1081 1549 b 1133 1532 1113 1586 1160 1571 b 1015 1392 1115 1504 1028 1410 b 908 1413 1003 1372 913 1389 m 908 1258 b 1153 1001 1057 1258 1153 1156 b 893 726 1153 863 1026 726 b 792 775 824 726 792 758 b 810 786 792 783 799 788 b 1029 1057 931 771 1029 922 b 944 1178 1029 1138 989 1178 b 601 594 849 1178 746 953 b 400 150 539 439 476 272 b 846 -78 622 118 846 38 b 718 -190 846 -174 731 -221 b 407 44 660 -49 507 15 b 335 61 381 51 357 57 b 143 -37 279 0 217 -37 b 15 67 51 -37 6 10 b 189 167 24 115 82 167 b 253 165 210 167 231 167 b 463 635 318 271 390 456 b 908 1258 614 1006 731 1258 "},"Ļ":{"ha":879,"x_min":0,"x_max":0,"o":"m 908 1258 b 1153 1001 1057 1258 1153 1156 b 893 726 1153 863 1026 726 b 792 775 824 726 792 758 b 810 786 792 783 799 788 b 1029 1057 931 771 1029 922 b 944 1178 1029 1138 989 1178 b 601 594 849 1178 746 953 b 400 150 539 439 476 272 b 846 -78 622 118 846 38 b 718 -190 846 -174 731 -221 b 407 44 660 -49 507 15 b 335 61 381 51 357 57 b 143 -37 279 0 217 -37 b 15 67 51 -37 6 10 b 189 167 24 115 82 167 b 253 165 210 167 231 167 b 463 635 318 271 390 456 b 908 1258 614 1006 731 1258 m 308 -71 b 372 -139 349 -71 372 -94 b 226 -306 372 -221 296 -306 b 196 -286 203 -306 185 -290 b 254 -203 226 -275 254 -237 b 242 -139 254 -181 242 -174 b 308 -71 242 -101 274 -71 "},"Ł":{"ha":879,"x_min":0,"x_max":0,"o":"m 908 1258 b 1153 1001 1057 1258 1153 1156 b 893 726 1153 863 1026 726 b 792 775 824 726 792 758 b 810 786 792 783 799 788 b 1029 1057 931 771 1029 922 b 944 1178 1029 1138 989 1178 b 601 594 849 1178 746 953 l 581 543 b 660 597 611 560 639 578 b 688 518 668 604 713 554 b 546 456 674 499 615 478 b 400 150 500 344 454 238 b 846 -78 622 118 846 38 b 718 -190 846 -174 731 -221 b 407 44 660 -49 507 15 b 335 61 381 51 357 57 b 143 -37 279 0 217 -37 b 15 67 51 -37 6 10 b 189 167 24 115 82 167 b 253 165 210 167 231 167 b 365 396 289 224 326 304 b 290 354 332 382 304 368 b 282 422 281 344 251 404 b 396 468 307 438 349 453 b 463 635 417 522 440 579 b 908 1258 614 1006 731 1258 "},"M":{"ha":1397,"x_min":0,"x_max":0,"o":"m 103 -49 b 14 22 100 -67 10 -49 b 619 1081 25 176 347 775 b 739 1156 654 1119 710 1156 b 864 1051 774 1156 868 1104 b 554 128 857 953 561 236 b 576 97 553 108 560 97 b 1147 994 681 97 1063 847 b 1244 1064 1179 1049 1217 1064 b 1360 957 1272 1064 1367 1006 b 1085 128 1350 810 1092 236 b 1096 97 1083 108 1079 97 b 1529 560 1186 97 1456 450 b 1550 481 1543 581 1569 507 b 1054 -21 1510 425 1189 -21 b 924 133 974 -21 915 25 b 1150 807 933 267 1088 647 b 1113 818 1174 865 1142 867 b 526 -21 1082 764 707 -21 b 393 133 446 -21 385 25 b 661 928 403 282 619 806 b 618 956 690 1015 663 1011 b 103 -49 574 899 143 229 "},"N":{"ha":1022,"x_min":0,"x_max":0,"o":"m 107 -49 b 14 22 104 -85 14 -49 b 546 1081 14 176 294 775 b 660 1156 578 1119 631 1156 b 792 1051 694 1156 792 1104 b 588 128 792 953 588 236 b 613 97 588 108 596 97 b 1253 1206 747 97 1119 1078 b 1365 1175 1293 1243 1392 1197 b 571 -21 1181 1025 822 -21 b 426 133 490 -21 426 25 b 597 928 426 282 564 806 b 553 956 621 1015 593 1011 b 107 -49 513 899 128 229 "},"Ń":{"ha":1022,"x_min":0,"x_max":0,"o":"m 1063 1247 b 981 1274 1035 1224 965 1261 b 1104 1458 1038 1319 1064 1414 b 1214 1413 1143 1501 1235 1422 b 1063 1247 1153 1382 1122 1296 m 107 -49 b 14 22 104 -85 14 -49 b 546 1081 14 176 294 775 b 660 1156 578 1119 631 1156 b 792 1051 694 1156 792 1104 b 588 128 792 953 588 236 b 613 97 588 108 596 97 b 1253 1206 747 97 1119 1078 b 1365 1175 1293 1243 1392 1197 b 571 -21 1181 1025 822 -21 b 426 133 490 -21 426 25 b 597 928 426 282 564 806 b 553 956 621 1015 593 1011 b 107 -49 513 899 128 229 "},"Ň":{"ha":1022,"x_min":0,"x_max":0,"o":"m 1068 1244 b 961 1265 1056 1225 965 1242 b 907 1444 956 1292 947 1372 b 1001 1440 901 1457 981 1481 b 1029 1329 1015 1414 1025 1344 b 1058 1328 1033 1314 1040 1318 b 1160 1433 1082 1342 1133 1401 b 1186 1385 1165 1439 1213 1424 b 1068 1244 1168 1357 1081 1263 m 107 -49 b 14 22 104 -85 14 -49 b 546 1081 14 176 294 775 b 660 1156 578 1119 631 1156 b 792 1051 694 1156 792 1104 b 588 128 792 953 588 236 b 613 97 588 108 596 97 b 1253 1206 747 97 1119 1078 b 1365 1175 1293 1243 1392 1197 b 571 -21 1181 1025 822 -21 b 426 133 490 -21 426 25 b 597 928 426 282 564 806 b 553 956 621 1015 593 1011 b 107 -49 513 899 128 229 "},"Ņ":{"ha":1022,"x_min":0,"x_max":0,"o":"m 107 -49 b 14 22 104 -85 14 -49 b 546 1081 14 176 294 775 b 660 1156 578 1119 631 1156 b 792 1051 694 1156 792 1104 b 588 128 792 953 588 236 b 613 97 588 108 596 97 b 1253 1206 747 97 1119 1078 b 1365 1175 1293 1243 1392 1197 b 571 -21 1181 1025 822 -21 b 426 133 490 -21 426 25 b 597 928 426 282 564 806 b 553 956 621 1015 593 1011 b 107 -49 513 899 128 229 m 414 -306 b 383 -286 390 -306 372 -290 b 442 -203 414 -275 442 -237 b 429 -139 442 -181 429 -174 b 496 -71 429 -101 461 -71 b 560 -139 536 -71 560 -94 b 414 -306 560 -221 483 -306 "},"Ñ":{"ha":1022,"x_min":0,"x_max":0,"o":"m 896 1301 b 835 1281 874 1307 851 1301 b 833 1346 828 1271 814 1313 b 921 1381 850 1374 883 1386 b 1090 1271 994 1369 1040 1293 b 1151 1279 1111 1261 1140 1265 b 1143 1214 1158 1288 1163 1242 b 1044 1189 1122 1185 1083 1178 b 896 1301 982 1206 951 1286 m 107 -49 b 14 22 104 -85 14 -49 b 546 1081 14 176 294 775 b 660 1156 578 1119 631 1156 b 792 1051 694 1156 792 1104 b 588 128 792 953 588 236 b 613 97 588 108 596 97 b 1253 1206 747 97 1119 1078 b 1365 1175 1293 1243 1392 1197 b 571 -21 1181 1025 822 -21 b 426 133 490 -21 426 25 b 597 928 426 282 564 806 b 553 956 621 1015 593 1011 b 107 -49 513 899 128 229 "},"O":{"ha":924,"x_min":0,"x_max":0,"o":"m 643 1131 b 951 764 863 1131 951 936 b 265 -49 951 458 639 -49 b 14 228 113 -49 6 61 b 217 701 21 372 96 558 l 217 725 b 643 1131 217 992 424 1131 m 285 39 b 806 836 513 39 806 524 b 628 1065 806 932 775 1065 b 371 839 524 1065 415 983 b 643 925 451 893 543 925 b 742 824 736 925 781 817 b 357 613 651 839 488 756 b 432 483 372 539 407 500 b 378 460 465 461 407 447 b 288 524 364 465 324 485 b 169 171 218 422 169 301 b 285 39 169 108 210 39 "},"Ó":{"ha":924,"x_min":0,"x_max":0,"o":"m 885 1451 b 994 1406 924 1494 1015 1415 b 843 1240 933 1375 903 1289 b 761 1267 815 1217 746 1254 b 885 1451 818 1313 844 1407 m 643 1131 b 951 764 863 1131 951 936 b 265 -49 951 458 639 -49 b 14 228 113 -49 6 61 b 217 701 21 372 96 558 l 217 725 b 643 1131 217 992 424 1131 m 285 39 b 806 836 513 39 806 524 b 628 1065 806 932 775 1065 b 371 839 524 1065 415 983 b 643 925 451 893 543 925 b 742 824 736 925 781 817 b 357 613 651 839 488 756 b 432 483 372 539 407 500 b 378 460 465 461 407 447 b 288 524 364 465 324 485 b 169 171 218 422 169 301 b 285 39 169 108 210 39 "},"Ô":{"ha":924,"x_min":0,"x_max":0,"o":"m 694 1261 b 672 1311 689 1254 642 1276 b 801 1440 694 1336 786 1424 b 907 1411 818 1458 903 1436 b 944 1228 911 1385 918 1289 b 851 1240 950 1215 868 1199 b 833 1353 840 1269 836 1339 b 804 1357 831 1368 824 1367 b 694 1261 779 1344 721 1294 m 643 1131 b 951 764 863 1131 951 936 b 265 -49 951 458 639 -49 b 14 228 113 -49 6 61 b 217 701 21 372 96 558 l 217 725 b 643 1131 217 992 424 1131 m 285 39 b 806 836 513 39 806 524 b 628 1065 806 932 775 1065 b 371 839 524 1065 415 983 b 643 925 451 893 543 925 b 742 824 736 925 781 817 b 357 613 651 839 488 756 b 432 483 372 539 407 500 b 378 460 465 461 407 447 b 288 524 364 465 324 485 b 169 171 218 422 169 301 b 285 39 169 108 210 39 "},"Ö":{"ha":924,"x_min":0,"x_max":0,"o":"m 707 1276 b 650 1333 676 1276 650 1299 b 750 1451 650 1378 676 1451 b 810 1390 796 1451 810 1419 b 707 1276 810 1361 786 1276 m 986 1424 b 1046 1363 1032 1424 1046 1392 b 943 1249 1046 1333 1022 1249 b 886 1306 913 1249 886 1271 b 986 1424 886 1350 913 1424 m 643 1131 b 951 764 863 1131 951 936 b 265 -49 951 458 639 -49 b 14 228 113 -49 6 61 b 217 701 21 372 96 558 l 217 725 b 643 1131 217 992 424 1131 m 285 39 b 806 836 513 39 806 524 b 628 1065 806 932 775 1065 b 371 839 524 1065 415 983 b 643 925 451 893 543 925 b 742 824 736 925 781 817 b 357 613 651 839 488 756 b 432 483 372 539 407 500 b 378 460 465 461 407 447 b 288 524 364 465 324 485 b 169 171 218 422 169 301 b 285 39 169 108 210 39 "},"Ò":{"ha":924,"x_min":0,"x_max":0,"o":"m 913 1288 b 838 1243 918 1243 840 1229 b 749 1453 828 1292 749 1396 b 858 1503 749 1500 858 1533 b 913 1288 858 1439 904 1350 m 643 1131 b 951 764 863 1131 951 936 b 265 -49 951 458 639 -49 b 14 228 113 -49 6 61 b 217 701 21 372 96 558 l 217 725 b 643 1131 217 992 424 1131 m 285 39 b 806 836 513 39 806 524 b 628 1065 806 932 775 1065 b 371 839 524 1065 415 983 b 643 925 451 893 543 925 b 742 824 736 925 781 817 b 357 613 651 839 488 756 b 432 483 372 539 407 500 b 378 460 465 461 407 447 b 288 524 364 465 324 485 b 169 171 218 422 169 301 b 285 39 169 108 210 39 "},"Ő":{"ha":924,"x_min":0,"x_max":0,"o":"m 701 1247 b 629 1267 674 1224 614 1254 b 753 1451 686 1313 713 1407 b 853 1413 792 1494 874 1422 b 701 1247 790 1383 761 1296 m 950 1417 b 1047 1378 989 1460 1068 1388 b 896 1213 985 1349 956 1261 b 826 1232 868 1189 811 1219 b 950 1417 883 1278 910 1372 m 643 1131 b 951 764 863 1131 951 936 b 265 -49 951 458 639 -49 b 14 228 113 -49 6 61 b 217 701 21 372 96 558 l 217 725 b 643 1131 217 992 424 1131 m 285 39 b 806 836 513 39 806 524 b 628 1065 806 932 775 1065 b 371 839 524 1065 415 983 b 643 925 451 893 543 925 b 742 824 736 925 781 817 b 357 613 651 839 488 756 b 432 483 372 539 407 500 b 378 460 465 461 407 447 b 288 524 364 465 324 485 b 169 171 218 422 169 301 b 285 39 169 108 210 39 "},"Ō":{"ha":924,"x_min":0,"x_max":0,"o":"m 1028 1296 b 1040 1229 1063 1286 1053 1222 b 582 1267 965 1268 628 1229 b 603 1347 549 1294 593 1350 b 1028 1296 736 1314 943 1321 m 643 1131 b 951 764 863 1131 951 936 b 265 -49 951 458 639 -49 b 14 228 113 -49 6 61 b 217 701 21 372 96 558 l 217 725 b 643 1131 217 992 424 1131 m 285 39 b 806 836 513 39 806 524 b 628 1065 806 932 775 1065 b 371 839 524 1065 415 983 b 643 925 451 893 543 925 b 742 824 736 925 781 817 b 357 613 651 839 488 756 b 432 483 372 539 407 500 b 378 460 465 461 407 447 b 288 524 364 465 324 485 b 169 171 218 422 169 301 b 285 39 169 108 210 39 "},"Ø":{"ha":924,"x_min":0,"x_max":0,"o":"m 899 1146 b 975 1089 903 1156 992 1129 b 903 974 967 1068 940 1028 b 951 764 936 910 951 835 b 265 -49 951 458 639 -49 b 174 -33 232 -49 201 -43 b 108 -139 147 -74 125 -108 b 69 -58 101 -151 43 -101 b 108 1 81 -40 93 -19 b 14 228 46 49 8 128 b 217 701 21 372 96 558 l 217 725 b 643 1131 217 992 424 1131 b 850 1047 733 1131 801 1099 b 899 1146 869 1082 886 1115 m 628 1065 b 371 839 524 1065 415 983 b 643 925 451 893 543 925 b 742 872 689 925 724 899 l 790 946 b 628 1065 768 1011 722 1065 m 806 836 b 232 53 640 610 393 286 b 285 39 247 44 264 39 b 806 836 513 39 806 524 m 169 171 b 183 108 169 150 174 128 b 710 825 331 314 547 586 b 357 613 617 819 474 740 b 432 483 372 539 407 500 b 378 460 465 461 407 447 b 288 524 364 465 324 485 b 169 171 218 422 169 301 "},"Õ":{"ha":924,"x_min":0,"x_max":0,"o":"m 615 1274 b 614 1339 608 1264 594 1306 b 701 1374 631 1367 664 1379 b 871 1264 775 1363 821 1286 b 932 1272 892 1254 921 1258 b 924 1207 939 1281 943 1235 b 825 1182 903 1178 864 1171 b 676 1294 763 1199 732 1279 b 615 1274 654 1300 632 1294 m 643 1131 b 951 764 863 1131 951 936 b 265 -49 951 458 639 -49 b 14 228 113 -49 6 61 b 217 701 21 372 96 558 l 217 725 b 643 1131 217 992 424 1131 m 285 39 b 806 836 513 39 806 524 b 628 1065 806 932 775 1065 b 371 839 524 1065 415 983 b 643 925 451 893 543 925 b 742 824 736 925 781 817 b 357 613 651 839 488 756 b 432 483 372 539 407 500 b 378 460 465 461 407 447 b 288 524 364 465 324 485 b 169 171 218 422 169 301 b 285 39 169 108 210 39 "},"Œ":{"ha":1442,"x_min":0,"x_max":0,"o":"m 1574 560 b 1601 508 1585 574 1601 539 b 1594 481 1601 497 1600 488 b 936 -39 1522 390 1243 -32 b 635 117 794 -42 678 13 b 265 -49 528 18 400 -49 b 14 228 113 -49 6 61 b 217 701 21 372 96 558 l 217 725 b 643 1131 217 992 424 1131 b 911 956 781 1131 867 1054 b 1278 1161 990 1081 1135 1161 b 1543 929 1421 1161 1543 1068 b 1322 703 1543 814 1450 703 b 1217 751 1250 703 1217 735 b 1235 763 1217 758 1224 764 b 1429 961 1336 750 1429 851 b 1306 1101 1429 1044 1383 1101 b 1017 751 1156 1101 1017 922 b 1179 564 1017 624 1125 564 b 1256 471 1231 564 1256 500 b 1249 458 1256 463 1254 457 b 1151 467 1215 467 1183 467 b 797 211 943 467 797 338 b 949 58 797 115 860 58 b 1574 560 1221 58 1472 433 m 285 39 b 644 342 404 39 540 171 b 668 383 651 357 658 369 b 806 836 750 531 806 700 b 628 1065 806 932 775 1065 b 371 839 524 1065 415 983 b 643 925 451 893 543 925 b 742 824 736 925 781 817 b 357 613 651 839 488 756 b 432 483 372 539 407 500 b 378 460 465 461 407 447 b 288 524 364 465 324 485 b 169 171 218 422 169 301 b 285 39 169 108 210 39 m 906 532 b 964 544 925 536 944 542 b 921 581 949 556 935 567 b 906 532 917 564 911 547 "},"P":{"ha":922,"x_min":0,"x_max":0,"o":"m 704 1164 b 1019 896 850 1164 1019 1092 b 536 279 1019 549 749 279 b 338 374 446 279 358 321 b 369 444 321 417 356 456 b 500 396 411 411 460 396 b 847 908 653 396 847 668 b 688 1081 847 982 814 1081 b 583 1069 664 1081 628 1076 l 583 1064 b 131 -19 583 1003 143 11 b 14 92 118 -50 14 53 b 433 1043 14 124 325 742 b 57 1031 279 1018 110 994 b 72 1149 18 1057 63 1153 b 461 1131 190 1097 332 1111 b 469 1171 465 1146 468 1160 b 535 1143 471 1185 504 1169 b 704 1164 599 1154 657 1164 "},"Þ":{"ha":939,"x_min":0,"x_max":0,"o":"m 676 993 b 992 725 822 993 992 921 b 536 206 992 447 749 206 b 338 300 446 206 358 247 b 369 371 321 343 356 382 b 500 322 411 338 460 322 b 819 738 653 322 819 567 b 660 910 819 811 786 910 b 540 896 633 910 592 904 b 147 -19 419 596 157 4 b 31 92 135 -50 31 53 b 381 869 31 118 246 550 b 29 860 233 844 79 826 b 44 978 -10 886 35 982 b 417 958 157 929 293 939 b 486 1171 454 1051 481 1128 b 600 1064 489 1199 600 1124 b 575 983 600 1056 590 1026 b 676 993 613 989 647 993 "},"Q":{"ha":924,"x_min":0,"x_max":0,"o":"m 693 -161 b 708 -224 699 -149 728 -181 b 564 -297 692 -262 643 -297 b 319 -46 403 -297 340 -164 b 265 -49 301 -47 283 -49 b 14 228 113 -49 6 61 b 217 701 21 372 96 558 l 217 725 b 629 1131 217 992 424 1131 b 951 764 863 1131 951 936 b 450 -8 951 511 736 118 b 628 -192 489 -104 547 -192 b 693 -161 654 -192 686 -176 m 274 53 b 308 56 285 53 297 54 b 310 97 308 72 308 86 b 401 178 315 179 399 201 b 415 101 404 156 408 129 b 806 836 615 229 806 585 b 628 1065 806 932 769 1065 b 371 839 524 1065 415 983 b 643 925 451 893 543 925 b 742 824 736 925 781 817 b 357 613 651 839 488 756 b 432 483 372 539 407 500 b 378 460 465 461 407 447 b 288 524 364 465 324 485 b 169 171 218 422 169 301 b 274 53 169 108 210 53 "},"R":{"ha":1014,"x_min":0,"x_max":0,"o":"m 1146 560 b 1167 481 1160 581 1186 507 b 594 -68 1126 425 783 -68 b 368 417 382 -68 367 254 b 400 488 351 460 386 500 b 500 451 425 467 460 451 b 833 908 639 451 833 668 b 688 1081 833 982 800 1081 b 583 1069 664 1081 628 1076 l 583 1064 b 131 -19 583 1003 143 11 b 14 92 118 -50 14 53 b 433 1043 14 124 325 742 b 57 1031 279 1018 110 994 b 72 1149 18 1057 63 1153 b 461 1131 190 1097 332 1111 b 469 1171 465 1146 468 1160 b 536 1143 472 1188 506 1171 b 704 1164 600 1154 658 1164 b 1006 896 836 1164 1006 1092 b 536 335 1006 549 735 335 b 500 336 524 335 511 335 b 667 61 532 104 625 61 b 1146 560 783 61 1072 450 "},"Ŕ":{"ha":1014,"x_min":0,"x_max":0,"o":"m 747 1247 b 665 1274 719 1224 650 1261 b 789 1458 722 1319 749 1414 b 899 1413 828 1501 919 1422 b 747 1247 838 1382 807 1296 m 1146 560 b 1167 481 1160 581 1186 507 b 594 -68 1126 425 783 -68 b 368 417 382 -68 367 254 b 400 488 351 460 386 500 b 500 451 425 467 460 451 b 833 908 639 451 833 668 b 688 1081 833 982 800 1081 b 583 1069 664 1081 628 1076 l 583 1064 b 131 -19 583 1003 143 11 b 14 92 118 -50 14 53 b 433 1043 14 124 325 742 b 57 1031 279 1018 110 994 b 72 1149 18 1057 63 1153 b 461 1131 190 1097 332 1111 b 469 1171 465 1146 468 1160 b 536 1143 472 1188 506 1171 b 704 1164 600 1154 658 1164 b 1006 896 836 1164 1006 1092 b 536 335 1006 549 735 335 b 500 336 524 335 511 335 b 667 61 532 104 625 61 b 1146 560 783 61 1072 450 "},"Ř":{"ha":1014,"x_min":0,"x_max":0,"o":"m 646 1265 b 592 1444 640 1292 632 1372 b 686 1440 586 1457 665 1481 b 714 1329 700 1414 710 1344 b 743 1328 718 1314 725 1318 b 844 1433 767 1342 818 1401 b 871 1385 850 1439 897 1424 b 753 1244 853 1357 765 1263 b 646 1265 740 1225 650 1242 m 1146 560 b 1167 481 1160 581 1186 507 b 594 -68 1126 425 783 -68 b 368 417 382 -68 367 254 b 400 488 351 460 386 500 b 500 451 425 467 460 451 b 833 908 639 451 833 668 b 688 1081 833 982 800 1081 b 583 1069 664 1081 628 1076 l 583 1064 b 131 -19 583 1003 143 11 b 14 92 118 -50 14 53 b 433 1043 14 124 325 742 b 57 1031 279 1018 110 994 b 72 1149 18 1057 63 1153 b 461 1131 190 1097 332 1111 b 469 1171 465 1146 468 1160 b 536 1143 472 1188 506 1171 b 704 1164 600 1154 658 1164 b 1006 896 836 1164 1006 1092 b 536 335 1006 549 735 335 b 500 336 524 335 511 335 b 667 61 532 104 625 61 b 1146 560 783 61 1072 450 "},"Ŗ":{"ha":1014,"x_min":0,"x_max":0,"o":"m 1146 560 b 1167 481 1160 581 1186 507 b 594 -68 1126 425 783 -68 b 368 417 382 -68 367 254 b 400 488 351 460 386 500 b 500 451 425 467 460 451 b 833 908 639 451 833 668 b 688 1081 833 982 800 1081 b 583 1069 664 1081 628 1076 l 583 1064 b 131 -19 583 1003 143 11 b 14 92 118 -50 14 53 b 433 1043 14 124 325 742 b 57 1031 279 1018 110 994 b 72 1149 18 1057 63 1153 b 461 1131 190 1097 332 1111 b 469 1171 465 1146 468 1160 b 536 1143 472 1188 506 1171 b 704 1164 600 1154 658 1164 b 1006 896 836 1164 1006 1092 b 536 335 1006 549 735 335 b 500 336 524 335 511 335 b 667 61 532 104 625 61 b 1146 560 783 61 1072 450 m 253 -122 b 317 -190 293 -122 317 -146 b 171 -357 317 -272 240 -357 b 140 -337 147 -357 129 -342 b 199 -254 171 -326 199 -289 b 186 -190 199 -232 186 -225 b 253 -122 186 -153 218 -122 "},"S":{"ha":822,"x_min":0,"x_max":0,"o":"m 321 -49 b 54 257 -35 -49 -14 192 b 183 279 115 317 194 290 b 156 197 165 260 156 226 b 329 36 156 135 201 36 b 538 224 431 36 538 96 b 167 676 538 379 167 424 b 719 1154 167 929 467 1156 b 933 953 888 1154 933 1028 b 672 640 933 761 789 640 b 603 700 603 640 550 700 b 811 957 708 700 811 815 b 721 1061 811 1029 789 1061 b 343 675 568 1061 343 844 b 714 222 343 506 714 451 b 321 -49 714 75 543 -49 "},"Ś":{"ha":822,"x_min":0,"x_max":0,"o":"m 838 1246 b 756 1272 810 1222 740 1260 b 879 1457 813 1318 839 1413 b 989 1411 918 1500 1010 1421 b 838 1246 928 1381 897 1294 m 321 -49 b 54 257 -35 -49 -14 192 b 183 279 115 317 194 290 b 156 197 165 260 156 226 b 329 36 156 135 201 36 b 538 224 431 36 538 96 b 167 676 538 379 167 424 b 719 1154 167 929 467 1156 b 933 953 888 1154 933 1028 b 672 640 933 761 789 640 b 603 700 603 640 550 700 b 811 957 708 700 811 815 b 721 1061 811 1029 789 1061 b 343 675 568 1061 343 844 b 714 222 343 506 714 451 b 321 -49 714 75 543 -49 "},"Š":{"ha":822,"x_min":0,"x_max":0,"o":"m 843 1243 b 736 1264 831 1224 740 1240 b 682 1443 731 1290 722 1371 b 776 1439 676 1456 756 1479 b 804 1328 790 1413 800 1343 b 833 1326 808 1313 815 1317 b 935 1432 857 1340 908 1400 b 961 1383 940 1438 988 1422 b 843 1243 943 1356 856 1261 m 321 -49 b 54 257 -35 -49 -14 192 b 183 279 115 317 194 290 b 156 197 165 260 156 226 b 329 36 156 135 201 36 b 538 224 431 36 538 96 b 167 676 538 379 167 424 b 719 1154 167 929 467 1156 b 933 953 888 1154 933 1028 b 672 640 933 761 789 640 b 603 700 603 640 550 700 b 811 957 708 700 811 815 b 721 1061 811 1029 789 1061 b 343 675 568 1061 343 844 b 714 222 343 506 714 451 b 321 -49 714 75 543 -49 "},"Ş":{"ha":822,"x_min":0,"x_max":0,"o":"m 603 700 b 811 957 708 700 811 815 b 721 1061 811 1029 789 1061 b 343 675 568 1061 343 844 b 714 222 343 506 714 451 b 374 -46 714 88 569 -28 b 258 -285 424 -162 375 -285 b 161 -212 208 -285 172 -249 b 178 -179 154 -189 169 -167 b 303 -49 210 -228 308 -189 b 54 257 -33 -40 -12 193 b 183 279 115 317 194 290 b 156 197 165 260 156 226 b 329 36 156 135 201 36 b 538 224 431 36 538 96 b 167 676 538 379 167 424 b 719 1154 167 929 467 1156 b 933 953 888 1154 933 1028 b 672 640 933 761 789 640 b 603 700 603 640 550 700 "},"Ș":{"ha":822,"x_min":0,"x_max":0,"o":"m 321 -49 b 54 257 -35 -49 -14 192 b 183 279 115 317 194 290 b 156 197 165 260 156 226 b 329 36 156 135 201 36 b 538 224 431 36 538 96 b 167 676 538 379 167 424 b 719 1154 167 929 467 1156 b 933 953 888 1154 933 1028 b 672 640 933 761 789 640 b 603 700 603 640 550 700 b 811 957 708 700 811 815 b 721 1061 811 1029 789 1061 b 343 675 568 1061 343 844 b 714 222 343 506 714 451 b 321 -49 714 75 543 -49 m 217 -324 b 186 -304 193 -324 175 -308 b 244 -221 217 -293 244 -256 b 232 -157 244 -199 232 -192 b 299 -89 232 -119 264 -89 b 363 -157 339 -89 363 -112 b 217 -324 363 -239 286 -324 "},"T":{"ha":781,"x_min":0,"x_max":0,"o":"m 1118 1140 b 1101 1067 1131 1146 1135 1076 b 853 1074 1067 1057 969 1067 b 854 1064 854 1071 854 1067 b 415 -19 854 901 514 453 b 299 92 408 -53 289 54 b 719 1078 389 442 642 829 b 147 665 447 1076 147 967 b 215 483 147 567 182 506 b 161 460 249 461 207 447 b -3 697 88 479 -3 583 b 736 1143 -3 1032 379 1143 l 740 1171 b 808 1142 742 1188 778 1171 b 1118 1140 950 1138 1079 1122 "},"Ŧ":{"ha":781,"x_min":0,"x_max":0,"o":"m 1118 1140 b 1101 1067 1131 1146 1135 1076 b 853 1074 1067 1057 969 1067 b 854 1064 854 1071 854 1067 b 746 782 854 1004 808 906 b 858 774 790 782 829 781 b 875 708 894 765 888 703 b 713 719 844 722 782 722 b 415 -19 607 514 472 251 b 299 92 408 -53 289 54 b 557 711 351 297 461 515 b 457 724 510 711 472 713 b 474 806 422 749 464 808 b 594 786 511 794 553 789 b 719 1078 647 894 693 994 b 147 665 447 1076 147 967 b 215 483 147 567 182 506 b 161 460 249 461 207 447 b -3 697 88 479 -3 583 b 736 1143 -3 1032 379 1143 l 740 1171 b 808 1142 742 1188 778 1171 b 1118 1140 950 1138 1079 1122 "},"Ť":{"ha":781,"x_min":0,"x_max":0,"o":"m 807 1265 b 753 1444 801 1292 793 1372 b 847 1440 747 1457 826 1481 b 875 1329 861 1414 871 1344 b 904 1328 879 1314 886 1318 b 1006 1433 928 1342 979 1401 b 1032 1385 1011 1439 1058 1424 b 914 1244 1014 1357 926 1263 b 807 1265 901 1225 811 1242 m 1118 1140 b 1101 1067 1131 1146 1135 1076 b 853 1074 1067 1057 969 1067 b 854 1064 854 1071 854 1067 b 415 -19 854 901 514 453 b 299 92 408 -53 289 54 b 719 1078 389 442 642 829 b 147 665 447 1076 147 967 b 215 483 147 567 182 506 b 161 460 249 461 207 447 b -3 697 88 479 -3 583 b 736 1143 -3 1032 379 1143 l 740 1171 b 808 1142 742 1188 778 1171 b 1118 1140 950 1138 1079 1122 "},"Ţ":{"ha":781,"x_min":0,"x_max":0,"o":"m 1118 1140 b 1101 1067 1131 1146 1135 1076 b 853 1074 1067 1057 969 1067 b 854 1064 854 1071 854 1067 b 415 -18 854 901 515 454 b 289 -225 444 -124 394 -225 b 192 -153 239 -225 203 -189 b 208 -119 185 -129 200 -107 b 332 28 242 -171 347 -126 b 299 92 311 51 294 76 b 719 1078 389 442 642 829 b 147 665 447 1076 147 967 b 215 483 147 567 182 506 b 161 460 249 461 207 447 b -3 697 88 479 -3 583 b 736 1143 -3 1032 379 1143 l 740 1171 b 808 1142 742 1188 778 1171 b 1118 1140 950 1138 1079 1122 "},"Ț":{"ha":781,"x_min":0,"x_max":0,"o":"m 1118 1140 b 1101 1067 1131 1146 1135 1076 b 853 1074 1067 1057 969 1067 b 854 1064 854 1071 854 1067 b 415 -19 854 901 514 453 b 299 92 408 -53 289 54 b 719 1078 389 442 642 829 b 147 665 447 1076 147 967 b 215 483 147 567 182 506 b 161 460 249 461 207 447 b -3 697 88 479 -3 583 b 736 1143 -3 1032 379 1143 l 740 1171 b 808 1142 742 1188 778 1171 b 1118 1140 950 1138 1079 1122 m 329 -29 b 393 -97 369 -29 393 -53 b 247 -264 393 -179 317 -264 b 217 -244 224 -264 206 -249 b 275 -161 247 -233 275 -196 b 263 -97 275 -139 263 -132 b 329 -29 263 -60 294 -29 "},"U":{"ha":1086,"x_min":0,"x_max":0,"o":"m 1218 560 b 1239 481 1232 581 1258 507 b 701 -21 1199 425 850 -21 b 557 133 621 -21 557 25 b 739 579 557 208 647 388 b 131 -18 572 310 311 -18 b 14 151 76 -18 14 39 b 417 1186 14 264 399 997 b 539 1069 419 1211 539 1167 b 167 121 539 978 158 196 b 190 97 168 108 172 97 b 940 1092 375 97 831 797 b 1054 985 944 1125 1054 1044 b 718 128 1054 890 718 239 b 743 97 718 108 726 97 b 1218 560 847 97 1144 450 "},"Ú":{"ha":1086,"x_min":0,"x_max":0,"o":"m 832 1247 b 750 1274 804 1224 735 1261 b 874 1458 807 1319 833 1414 b 983 1413 913 1501 1004 1422 b 832 1247 922 1382 892 1296 m 1218 560 b 1239 481 1232 581 1258 507 b 701 -21 1199 425 850 -21 b 557 133 621 -21 557 25 b 739 579 557 208 647 388 b 131 -18 572 310 311 -18 b 14 151 76 -18 14 39 b 417 1186 14 264 399 997 b 539 1069 419 1211 539 1167 b 167 121 539 978 158 196 b 190 97 168 108 172 97 b 940 1092 375 97 831 797 b 1054 985 944 1125 1054 1044 b 718 128 1054 890 718 239 b 743 97 718 108 726 97 b 1218 560 847 97 1144 450 "},"Û":{"ha":1086,"x_min":0,"x_max":0,"o":"m 683 1268 b 661 1318 678 1261 631 1283 b 790 1447 683 1343 775 1431 b 896 1418 807 1465 892 1443 b 933 1235 900 1392 907 1296 b 840 1247 939 1222 857 1206 b 822 1360 829 1276 825 1346 b 793 1364 819 1375 813 1374 b 683 1268 768 1351 710 1301 m 1218 560 b 1239 481 1232 581 1258 507 b 701 -21 1199 425 850 -21 b 557 133 621 -21 557 25 b 739 579 557 208 647 388 b 131 -18 572 310 311 -18 b 14 151 76 -18 14 39 b 417 1186 14 264 399 997 b 539 1069 419 1211 539 1167 b 167 121 539 978 158 196 b 190 97 168 108 172 97 b 940 1092 375 97 831 797 b 1054 985 944 1125 1054 1044 b 718 128 1054 890 718 239 b 743 97 718 108 726 97 b 1218 560 847 97 1144 450 "},"Ü":{"ha":1086,"x_min":0,"x_max":0,"o":"m 696 1283 b 639 1340 665 1283 639 1306 b 739 1458 639 1385 665 1458 b 799 1397 785 1458 799 1426 b 696 1283 799 1368 775 1283 m 932 1256 b 875 1313 901 1256 875 1278 b 975 1431 875 1357 901 1431 b 1035 1369 1021 1431 1035 1399 b 932 1256 1035 1340 1011 1256 m 1218 560 b 1239 481 1232 581 1258 507 b 701 -21 1199 425 850 -21 b 557 133 621 -21 557 25 b 739 579 557 208 647 388 b 131 -18 572 310 311 -18 b 14 151 76 -18 14 39 b 417 1186 14 264 399 997 b 539 1069 419 1211 539 1167 b 167 121 539 978 158 196 b 190 97 168 108 172 97 b 940 1092 375 97 831 797 b 1054 985 944 1125 1054 1044 b 718 128 1054 890 718 239 b 743 97 718 108 726 97 b 1218 560 847 97 1144 450 "},"Ù":{"ha":1086,"x_min":0,"x_max":0,"o":"m 901 1294 b 826 1250 907 1250 829 1236 b 738 1460 817 1299 738 1403 b 847 1510 738 1507 847 1540 b 901 1294 847 1446 893 1357 m 1218 560 b 1239 481 1232 581 1258 507 b 701 -21 1199 425 850 -21 b 557 133 621 -21 557 25 b 739 579 557 208 647 388 b 131 -18 572 310 311 -18 b 14 151 76 -18 14 39 b 417 1186 14 264 399 997 b 539 1069 419 1211 539 1167 b 167 121 539 978 158 196 b 190 97 168 108 172 97 b 940 1092 375 97 831 797 b 1054 985 944 1125 1054 1044 b 718 128 1054 890 718 239 b 743 97 718 108 726 97 b 1218 560 847 97 1144 450 "},"Ű":{"ha":1086,"x_min":0,"x_max":0,"o":"m 690 1254 b 618 1274 663 1231 603 1261 b 742 1458 675 1319 701 1414 b 842 1419 781 1501 863 1429 b 690 1254 779 1390 750 1303 m 815 1239 b 939 1424 872 1285 899 1379 b 1036 1385 978 1467 1057 1394 b 885 1219 974 1356 944 1268 b 815 1239 857 1196 800 1226 m 1218 560 b 1239 481 1232 581 1258 507 b 701 -21 1199 425 850 -21 b 557 133 621 -21 557 25 b 739 579 557 208 647 388 b 131 -18 572 310 311 -18 b 14 151 76 -18 14 39 b 417 1186 14 264 399 997 b 539 1069 419 1211 539 1167 b 167 121 539 978 158 196 b 190 97 168 108 172 97 b 940 1092 375 97 831 797 b 1054 985 944 1125 1054 1044 b 718 128 1054 890 718 239 b 743 97 718 108 726 97 b 1218 560 847 97 1144 450 "},"Ū":{"ha":1086,"x_min":0,"x_max":0,"o":"m 571 1274 b 592 1354 538 1301 582 1357 b 1017 1303 725 1321 932 1328 b 1029 1236 1051 1293 1042 1229 b 571 1274 954 1275 617 1236 m 1218 560 b 1239 481 1232 581 1258 507 b 701 -21 1199 425 850 -21 b 557 133 621 -21 557 25 b 739 579 557 208 647 388 b 131 -18 572 310 311 -18 b 14 151 76 -18 14 39 b 417 1186 14 264 399 997 b 539 1069 419 1211 539 1167 b 167 121 539 978 158 196 b 190 97 168 108 172 97 b 940 1092 375 97 831 797 b 1054 985 944 1125 1054 1044 b 718 128 1054 890 718 239 b 743 97 718 108 726 97 b 1218 560 847 97 1144 450 "},"Ų":{"ha":1086,"x_min":0,"x_max":0,"o":"m 1218 560 b 1239 481 1232 581 1258 507 b 701 -21 1199 425 850 -21 l 688 -21 b 629 -175 650 -83 629 -136 b 710 -247 629 -232 653 -262 b 704 -286 722 -247 718 -272 b 632 -315 688 -303 660 -315 b 515 -194 569 -315 515 -258 b 635 -8 515 -132 558 -61 b 557 133 588 13 557 58 b 739 579 557 208 647 388 b 131 -18 572 310 311 -18 b 14 151 76 -18 14 39 b 417 1186 14 264 399 997 b 539 1069 419 1211 539 1167 b 167 121 539 978 158 196 b 190 97 168 108 172 97 b 940 1092 375 97 831 797 b 1054 985 944 1125 1054 1044 b 718 128 1054 890 718 239 b 743 97 718 108 726 97 b 1218 560 847 97 1144 450 "},"Ů":{"ha":1086,"x_min":0,"x_max":0,"o":"m 810 1210 b 686 1329 719 1210 686 1267 b 883 1519 686 1446 785 1539 b 915 1483 917 1515 924 1483 b 782 1325 843 1483 782 1388 b 832 1271 782 1293 796 1271 b 939 1410 892 1271 939 1347 b 929 1453 939 1425 936 1440 b 951 1465 926 1460 938 1465 b 999 1410 981 1465 999 1444 b 810 1210 999 1340 940 1210 m 1218 560 b 1239 481 1232 581 1258 507 b 701 -21 1199 425 850 -21 b 557 133 621 -21 557 25 b 739 579 557 208 647 388 b 131 -18 572 310 311 -18 b 14 151 76 -18 14 39 b 417 1186 14 264 399 997 b 539 1069 419 1211 539 1167 b 167 121 539 978 158 196 b 190 97 168 108 172 97 b 940 1092 375 97 831 797 b 1054 985 944 1125 1054 1044 b 718 128 1054 890 718 239 b 743 97 718 108 726 97 b 1218 560 847 97 1144 450 "},"V":{"ha":790,"x_min":0,"x_max":0,"o":"m 158 -32 b 14 103 124 -32 14 0 b 246 1174 14 332 271 918 b 421 1071 243 1207 421 1150 b 210 106 421 886 115 106 b 896 1226 301 106 900 1082 b 1013 1150 894 1260 1013 1226 b 257 15 1013 940 481 226 b 158 -32 224 -17 190 -32 "},"W":{"ha":1314,"x_min":0,"x_max":0,"o":"m 810 -69 b 610 101 756 -69 610 -44 b 690 619 610 247 678 582 b 664 596 703 657 685 632 b 257 1 643 560 394 117 b 158 -46 221 -29 190 -46 b 14 89 124 -46 14 -14 b 246 1174 14 332 268 918 b 421 1071 243 1208 421 1156 b 210 92 421 886 115 92 b 800 1043 304 92 782 1006 b 976 956 818 1081 990 1014 b 821 50 904 654 732 50 b 1414 1222 913 50 1432 1079 b 1536 1156 1410 1256 1531 1232 b 906 -22 1549 976 1081 171 b 810 -69 879 -50 835 -69 "},"Ẃ":{"ha":1314,"x_min":0,"x_max":0,"o":"m 1000 1247 b 918 1274 972 1224 903 1261 b 1042 1458 975 1319 1001 1414 b 1151 1413 1081 1501 1172 1422 b 1000 1247 1090 1382 1060 1296 m 810 -69 b 610 101 756 -69 610 -44 b 690 619 610 247 678 582 b 664 596 703 657 685 632 b 257 1 643 560 394 117 b 158 -46 221 -29 190 -46 b 14 89 124 -46 14 -14 b 246 1174 14 332 268 918 b 421 1071 243 1208 421 1156 b 210 92 421 886 115 92 b 800 1043 304 92 782 1006 b 976 956 818 1081 990 1014 b 821 50 904 654 732 50 b 1414 1222 913 50 1432 1079 b 1536 1156 1410 1256 1531 1232 b 906 -22 1549 976 1081 171 b 810 -69 879 -50 835 -69 "},"Ŵ":{"ha":1314,"x_min":0,"x_max":0,"o":"m 1101 1235 b 1008 1247 1107 1222 1025 1206 b 990 1360 997 1276 993 1346 b 961 1364 988 1375 981 1374 b 851 1268 936 1351 878 1301 b 829 1318 846 1261 799 1283 b 958 1447 851 1343 943 1431 b 1064 1418 975 1465 1060 1443 b 1101 1235 1068 1392 1075 1296 m 810 -69 b 610 101 756 -69 610 -44 b 690 619 610 247 678 582 b 664 596 703 657 685 632 b 257 1 643 560 394 117 b 158 -46 221 -29 190 -46 b 14 89 124 -46 14 -14 b 246 1174 14 332 268 918 b 421 1071 243 1208 421 1156 b 210 92 421 886 115 92 b 800 1043 304 92 782 1006 b 976 956 818 1081 990 1014 b 821 50 904 654 732 50 b 1414 1222 913 50 1432 1079 b 1536 1156 1410 1256 1531 1232 b 906 -22 1549 976 1081 171 b 810 -69 879 -50 835 -69 "},"Ẅ":{"ha":1314,"x_min":0,"x_max":0,"o":"m 864 1283 b 807 1340 833 1283 807 1306 b 907 1458 807 1385 833 1458 b 967 1397 953 1458 967 1426 b 864 1283 967 1368 943 1283 m 1100 1256 b 1043 1313 1069 1256 1043 1278 b 1143 1431 1043 1357 1069 1431 b 1203 1369 1189 1431 1203 1399 b 1100 1256 1203 1340 1179 1256 m 810 -69 b 610 101 756 -69 610 -44 b 690 619 610 247 678 582 b 664 596 703 657 685 632 b 257 1 643 560 394 117 b 158 -46 221 -29 190 -46 b 14 89 124 -46 14 -14 b 246 1174 14 332 268 918 b 421 1071 243 1208 421 1156 b 210 92 421 886 115 92 b 800 1043 304 92 782 1006 b 976 956 818 1081 990 1014 b 821 50 904 654 732 50 b 1414 1222 913 50 1432 1079 b 1536 1156 1410 1256 1531 1232 b 906 -22 1549 976 1081 171 b 810 -69 879 -50 835 -69 "},"Ẁ":{"ha":1314,"x_min":0,"x_max":0,"o":"m 994 1250 b 906 1460 985 1299 906 1403 b 1015 1510 906 1507 1015 1540 b 1069 1294 1015 1446 1061 1357 b 994 1250 1075 1250 997 1236 m 810 -69 b 610 101 756 -69 610 -44 b 690 619 610 247 678 582 b 664 596 703 657 685 632 b 257 1 643 560 394 117 b 158 -46 221 -29 190 -46 b 14 89 124 -46 14 -14 b 246 1174 14 332 268 918 b 421 1071 243 1208 421 1156 b 210 92 421 886 115 92 b 800 1043 304 92 782 1006 b 976 956 818 1081 990 1014 b 821 50 904 654 732 50 b 1414 1222 913 50 1432 1079 b 1536 1156 1410 1256 1531 1232 b 906 -22 1549 976 1081 171 b 810 -69 879 -50 835 -69 "},"X":{"ha":1075,"x_min":0,"x_max":0,"o":"m 1172 1099 b 1267 1010 1265 1099 1282 1010 b 664 544 1192 1010 925 790 b 703 107 672 361 682 186 b 746 67 713 69 733 67 b 1207 560 863 67 1133 450 b 1228 481 1221 581 1247 507 b 706 -54 1188 425 854 -54 b 540 46 600 -54 560 -3 b 496 382 514 113 503 239 b 83 -118 269 156 83 -58 b 14 -76 83 -139 14 -128 b 490 514 14 -18 238 249 b 415 1094 481 749 471 996 b 614 1122 403 1117 585 1208 b 657 685 638 1053 649 875 b 1172 1099 885 911 1103 1099 "},"Y":{"ha":961,"x_min":0,"x_max":0,"o":"m 971 1122 b 1064 1003 1017 1096 1064 1056 b 672 50 1064 919 889 539 b 165 -392 592 -132 461 -392 b -3 -328 76 -392 17 -368 b 19 -274 -21 -290 14 -265 b 110 -300 33 -294 57 -300 b 547 104 350 -300 490 -21 b 822 718 656 339 751 547 b 110 -18 661 432 351 -18 b 19 147 56 -18 -7 39 b 399 1196 49 264 378 1007 b 521 1079 401 1221 521 1176 b 143 138 521 988 143 201 b 178 97 143 113 151 97 b 950 1110 404 97 840 815 b 971 1122 951 1121 961 1128 "},"Ý":{"ha":961,"x_min":0,"x_max":0,"o":"m 842 1247 b 760 1274 814 1224 744 1261 b 883 1458 817 1319 843 1414 b 993 1413 922 1501 1014 1422 b 842 1247 932 1382 901 1296 m 971 1122 b 1064 1003 1017 1096 1064 1056 b 672 50 1064 919 889 539 b 165 -392 592 -132 461 -392 b -3 -328 76 -392 17 -368 b 19 -274 -21 -290 14 -265 b 110 -300 33 -294 57 -300 b 547 104 350 -300 490 -21 b 822 718 656 339 751 547 b 110 -18 661 432 351 -18 b 19 147 56 -18 -7 39 b 399 1196 49 264 378 1007 b 521 1079 401 1221 521 1176 b 143 138 521 988 143 201 b 178 97 143 113 151 97 b 950 1110 404 97 840 815 b 971 1122 951 1121 961 1128 "},"Ŷ":{"ha":961,"x_min":0,"x_max":0,"o":"m 693 1268 b 671 1318 688 1261 640 1283 b 800 1447 693 1343 785 1431 b 906 1418 817 1465 901 1443 b 943 1235 910 1392 917 1296 b 850 1247 949 1222 867 1206 b 832 1360 839 1276 835 1346 b 803 1364 829 1375 822 1374 b 693 1268 778 1351 719 1301 m 971 1122 b 1064 1003 1017 1096 1064 1056 b 672 50 1064 919 889 539 b 165 -392 592 -132 461 -392 b -3 -328 76 -392 17 -368 b 19 -274 -21 -290 14 -265 b 110 -300 33 -294 57 -300 b 547 104 350 -300 490 -21 b 822 718 656 339 751 547 b 110 -18 661 432 351 -18 b 19 147 56 -18 -7 39 b 399 1196 49 264 378 1007 b 521 1079 401 1221 521 1176 b 143 138 521 988 143 201 b 178 97 143 113 151 97 b 950 1110 404 97 840 815 b 971 1122 951 1121 961 1128 "},"Ÿ":{"ha":961,"x_min":0,"x_max":0,"o":"m 706 1283 b 649 1340 675 1283 649 1306 b 749 1458 649 1385 675 1458 b 808 1397 794 1458 808 1426 b 706 1283 808 1368 785 1283 m 942 1256 b 885 1313 911 1256 885 1278 b 985 1431 885 1357 911 1431 b 1044 1369 1031 1431 1044 1399 b 942 1256 1044 1340 1021 1256 m 971 1122 b 1064 1003 1017 1096 1064 1056 b 672 50 1064 919 889 539 b 165 -392 592 -132 461 -392 b -3 -328 76 -392 17 -368 b 19 -274 -21 -290 14 -265 b 110 -300 33 -294 57 -300 b 547 104 350 -300 490 -21 b 822 718 656 339 751 547 b 110 -18 661 432 351 -18 b 19 147 56 -18 -7 39 b 399 1196 49 264 378 1007 b 521 1079 401 1221 521 1176 b 143 138 521 988 143 201 b 178 97 143 113 151 97 b 950 1110 404 97 840 815 b 971 1122 951 1121 961 1128 "},"Ỳ":{"ha":961,"x_min":0,"x_max":0,"o":"m 911 1294 b 836 1250 917 1250 839 1236 b 747 1460 826 1299 747 1403 b 857 1510 747 1507 857 1540 b 911 1294 857 1446 903 1357 m 971 1122 b 1064 1003 1017 1096 1064 1056 b 672 50 1064 919 889 539 b 165 -392 592 -132 461 -392 b -3 -328 76 -392 17 -368 b 19 -274 -21 -290 14 -265 b 110 -300 33 -294 57 -300 b 547 104 350 -300 490 -21 b 822 718 656 339 751 547 b 110 -18 661 432 351 -18 b 19 147 56 -18 -7 39 b 399 1196 49 264 378 1007 b 521 1079 401 1221 521 1176 b 143 138 521 988 143 201 b 178 97 143 113 151 97 b 950 1110 404 97 840 815 b 971 1122 951 1121 961 1128 "},"Z":{"ha":986,"x_min":0,"x_max":0,"o":"m 842 -96 b 729 -47 832 -86 797 -61 b 101 -50 603 -21 328 -11 b 14 100 69 -56 7 56 b 849 985 21 144 819 958 b 867 1028 878 1011 899 1028 b 357 985 801 1028 594 965 b 317 1149 218 996 299 1163 b 429 1111 340 1131 361 1121 b 982 1169 626 1083 925 1169 b 1103 993 1039 1169 1144 1033 b 246 110 1000 893 493 401 b 263 82 231 92 229 79 b 783 88 361 90 581 122 b 885 -11 849 76 885 56 b 842 -96 885 -61 856 -110 "},"Ź":{"ha":986,"x_min":0,"x_max":0,"o":"m 807 1247 b 725 1274 779 1224 710 1261 b 849 1458 782 1319 808 1414 b 958 1413 888 1501 979 1422 b 807 1247 897 1382 867 1296 m 842 -96 b 729 -47 832 -86 797 -61 b 101 -50 603 -21 328 -11 b 14 100 69 -56 7 56 b 849 985 21 144 819 958 b 867 1028 878 1011 899 1028 b 357 985 801 1028 594 965 b 317 1149 218 996 299 1163 b 429 1111 340 1131 361 1121 b 982 1169 626 1083 925 1169 b 1103 993 1039 1169 1144 1033 b 246 110 1000 893 493 401 b 263 82 231 92 229 79 b 783 88 361 90 581 122 b 885 -11 849 76 885 56 b 842 -96 885 -61 856 -110 "},"Ž":{"ha":986,"x_min":0,"x_max":0,"o":"m 813 1244 b 706 1265 800 1225 710 1242 b 651 1444 700 1292 692 1372 b 746 1440 646 1457 725 1481 b 774 1329 760 1414 769 1344 b 803 1328 778 1314 785 1318 b 904 1433 826 1342 878 1401 b 931 1385 910 1439 957 1424 b 813 1244 913 1357 825 1263 m 842 -96 b 729 -47 832 -86 797 -61 b 101 -50 603 -21 328 -11 b 14 100 69 -56 7 56 b 849 985 21 144 819 958 b 867 1028 878 1011 899 1028 b 357 985 801 1028 594 965 b 317 1149 218 996 299 1163 b 429 1111 340 1131 361 1121 b 982 1169 626 1083 925 1169 b 1103 993 1039 1169 1144 1033 b 246 110 1000 893 493 401 b 263 82 231 92 229 79 b 783 88 361 90 581 122 b 885 -11 849 76 885 56 b 842 -96 885 -61 856 -110 "},"Ż":{"ha":986,"x_min":0,"x_max":0,"o":"m 813 1265 b 750 1328 779 1265 750 1290 b 860 1458 750 1378 779 1458 b 926 1392 910 1458 926 1424 b 813 1265 926 1360 900 1265 m 842 -96 b 729 -47 832 -86 797 -61 b 101 -50 603 -21 328 -11 b 14 100 69 -56 7 56 b 849 985 21 144 819 958 b 867 1028 878 1011 899 1028 b 357 985 801 1028 594 965 b 317 1149 218 996 299 1163 b 429 1111 340 1131 361 1121 b 982 1169 626 1083 925 1169 b 1103 993 1039 1169 1144 1033 b 246 110 1000 893 493 401 b 263 82 231 92 229 79 b 783 88 361 90 581 122 b 885 -11 849 76 885 56 b 842 -96 885 -61 856 -110 "},"":{"ha":931,"x_min":0,"x_max":0,"o":"m 958 1081 b 789 442 958 1024 867 724 b 782 418 789 429 786 419 b 682 -44 728 221 682 36 b 521 33 682 -64 521 -24 b 615 431 521 94 564 254 b 301 403 515 425 394 410 b 93 -49 190 226 101 54 b 0 22 90 -85 0 -49 b 190 401 0 86 79 232 b 156 411 175 403 163 406 b 171 515 117 438 161 519 b 251 493 196 506 222 499 b 713 1110 400 713 583 953 b 826 1185 744 1149 797 1185 b 958 1081 861 1185 958 1133 m 354 485 b 635 497 450 482 553 493 b 804 1039 706 731 786 974 b 760 1042 818 1090 789 1075 b 354 485 740 1019 532 757 "},"":{"ha":931,"x_min":0,"x_max":0,"o":"m 1007 1458 b 1117 1413 1046 1501 1138 1422 b 965 1247 1056 1382 1025 1296 b 883 1274 938 1224 868 1261 b 1007 1458 940 1319 967 1414 m 826 1185 b 958 1081 861 1185 958 1133 b 789 442 958 1024 867 724 b 782 418 789 429 786 419 b 682 -44 728 221 682 36 b 521 33 682 -64 521 -24 b 615 431 521 94 564 254 b 301 403 515 425 394 410 b 93 -49 190 226 101 54 b 0 22 90 -85 0 -49 b 190 401 0 86 79 232 b 156 411 175 403 163 406 b 171 515 117 438 161 519 b 251 493 196 506 222 499 b 713 1110 400 713 583 953 b 826 1185 744 1149 797 1185 m 804 1039 b 760 1042 818 1090 789 1075 b 354 485 740 1019 532 757 b 635 497 450 482 553 493 b 804 1039 706 731 786 974 "},"":{"ha":931,"x_min":0,"x_max":0,"o":"m 1053 1400 b 1111 1378 1054 1413 1117 1411 b 943 1258 1103 1333 1053 1258 b 768 1400 822 1258 768 1365 b 869 1446 768 1465 869 1463 b 965 1319 869 1394 889 1319 b 1053 1400 1017 1319 1047 1365 m 826 1185 b 958 1081 861 1185 958 1133 b 789 442 958 1024 867 724 b 782 418 789 429 786 419 b 682 -44 728 221 682 36 b 521 33 682 -64 521 -24 b 615 431 521 94 564 254 b 301 403 515 425 394 410 b 93 -49 190 226 101 54 b 0 22 90 -85 0 -49 b 190 401 0 86 79 232 b 156 411 175 403 163 406 b 171 515 117 438 161 519 b 251 493 196 506 222 499 b 713 1110 400 713 583 953 b 826 1185 744 1149 797 1185 m 804 1039 b 760 1042 818 1090 789 1075 b 354 485 740 1019 532 757 b 635 497 450 482 553 493 b 804 1039 706 731 786 974 "},"":{"ha":931,"x_min":0,"x_max":0,"o":"m 1067 1235 b 974 1247 1072 1222 990 1206 b 956 1360 963 1276 958 1346 b 926 1364 953 1375 946 1374 b 817 1268 901 1351 843 1301 b 794 1318 811 1261 764 1283 b 924 1447 817 1343 908 1431 b 1029 1418 940 1465 1025 1443 b 1067 1235 1033 1392 1040 1296 m 826 1185 b 958 1081 861 1185 958 1133 b 789 442 958 1024 867 724 b 782 418 789 429 786 419 b 682 -44 728 221 682 36 b 521 33 682 -64 521 -24 b 615 431 521 94 564 254 b 301 403 515 425 394 410 b 93 -49 190 226 101 54 b 0 22 90 -85 0 -49 b 190 401 0 86 79 232 b 156 411 175 403 163 406 b 171 515 117 438 161 519 b 251 493 196 506 222 499 b 713 1110 400 713 583 953 b 826 1185 744 1149 797 1185 m 804 1039 b 760 1042 818 1090 789 1075 b 354 485 740 1019 532 757 b 635 497 450 482 553 493 b 804 1039 706 731 786 974 "},"":{"ha":931,"x_min":0,"x_max":0,"o":"m 829 1283 b 772 1340 799 1283 772 1306 b 872 1458 772 1385 799 1458 b 932 1397 918 1458 932 1426 b 829 1283 932 1368 908 1283 m 1108 1431 b 1168 1369 1154 1431 1168 1399 b 1065 1256 1168 1340 1144 1256 b 1008 1313 1035 1256 1008 1278 b 1108 1431 1008 1357 1035 1431 m 826 1185 b 958 1081 861 1185 958 1133 b 789 442 958 1024 867 724 b 782 418 789 429 786 419 b 682 -44 728 221 682 36 b 521 33 682 -64 521 -24 b 615 431 521 94 564 254 b 301 403 515 425 394 410 b 93 -49 190 226 101 54 b 0 22 90 -85 0 -49 b 190 401 0 86 79 232 b 156 411 175 403 163 406 b 171 515 117 438 161 519 b 251 493 196 506 222 499 b 713 1110 400 713 583 953 b 826 1185 744 1149 797 1185 m 804 1039 b 760 1042 818 1090 789 1075 b 354 485 740 1019 532 757 b 635 497 450 482 553 493 b 804 1039 706 731 786 974 "},"":{"ha":931,"x_min":0,"x_max":0,"o":"m 1035 1294 b 960 1250 1040 1250 963 1236 b 871 1460 950 1299 871 1403 b 981 1510 871 1507 981 1540 b 1035 1294 981 1446 1026 1357 m 826 1185 b 958 1081 861 1185 958 1133 b 789 442 958 1024 867 724 b 782 418 789 429 786 419 b 682 -44 728 221 682 36 b 521 33 682 -64 521 -24 b 615 431 521 94 564 254 b 301 403 515 425 394 410 b 93 -49 190 226 101 54 b 0 22 90 -85 0 -49 b 190 401 0 86 79 232 b 156 411 175 403 163 406 b 171 515 117 438 161 519 b 251 493 196 506 222 499 b 713 1110 400 713 583 953 b 826 1185 744 1149 797 1185 m 804 1039 b 760 1042 818 1090 789 1075 b 354 485 740 1019 532 757 b 635 497 450 482 553 493 b 804 1039 706 731 786 974 "},"":{"ha":931,"x_min":0,"x_max":0,"o":"m 1150 1303 b 1163 1236 1185 1293 1175 1229 b 704 1274 1088 1275 750 1236 b 725 1354 671 1301 715 1357 b 1150 1303 858 1321 1065 1328 m 826 1185 b 958 1081 861 1185 958 1133 b 789 442 958 1024 867 724 b 782 418 789 429 786 419 b 682 -44 728 221 682 36 b 521 33 682 -64 521 -24 b 615 431 521 94 564 254 b 301 403 515 425 394 410 b 93 -49 190 226 101 54 b 0 22 90 -85 0 -49 b 190 401 0 86 79 232 b 156 411 175 403 163 406 b 171 515 117 438 161 519 b 251 493 196 506 222 499 b 713 1110 400 713 583 953 b 826 1185 744 1149 797 1185 m 804 1039 b 760 1042 818 1090 789 1075 b 354 485 740 1019 532 757 b 635 497 450 482 553 493 b 804 1039 706 731 786 974 "},"":{"ha":931,"x_min":0,"x_max":0,"o":"m 958 1081 b 789 442 958 1024 867 724 b 782 418 789 429 786 419 b 682 -44 728 221 682 36 b 675 -49 682 -47 679 -49 b 618 -201 639 -111 618 -162 b 699 -274 618 -258 642 -289 b 693 -312 711 -274 707 -299 b 621 -342 676 -329 649 -342 b 504 -221 558 -342 504 -285 b 617 -39 504 -160 544 -92 b 521 33 571 -25 521 1 b 615 431 521 94 564 254 b 301 403 515 425 394 410 b 93 -49 190 226 101 54 b 0 22 90 -85 0 -49 b 190 401 0 86 79 232 b 156 411 175 403 163 406 b 171 515 117 438 161 519 b 251 493 196 506 222 499 b 713 1110 400 713 583 953 b 826 1185 744 1149 797 1185 b 958 1081 861 1185 958 1133 m 354 485 b 635 497 450 482 553 493 b 804 1039 706 731 786 974 b 760 1042 818 1090 789 1075 b 354 485 740 1019 532 757 "},"":{"ha":931,"x_min":0,"x_max":0,"o":"m 1085 1465 b 1132 1410 1114 1465 1132 1444 b 943 1210 1132 1340 1074 1210 b 819 1329 853 1210 819 1267 b 1017 1519 819 1446 918 1539 b 1049 1483 1050 1515 1057 1483 b 915 1325 976 1483 915 1388 b 965 1271 915 1293 929 1271 b 1072 1410 1025 1271 1072 1347 b 1063 1453 1072 1425 1069 1440 b 1085 1465 1060 1460 1071 1465 m 826 1185 b 958 1081 861 1185 958 1133 b 789 442 958 1024 867 724 b 782 418 789 429 786 419 b 682 -44 728 221 682 36 b 521 33 682 -64 521 -24 b 615 431 521 94 564 254 b 301 403 515 425 394 410 b 93 -49 190 226 101 54 b 0 22 90 -85 0 -49 b 190 401 0 86 79 232 b 156 411 175 403 163 406 b 171 515 117 438 161 519 b 251 493 196 506 222 499 b 713 1110 400 713 583 953 b 826 1185 744 1149 797 1185 m 804 1039 b 760 1042 818 1090 789 1075 b 354 485 740 1019 532 757 b 635 497 450 482 553 493 b 804 1039 706 731 786 974 "},"":{"ha":931,"x_min":0,"x_max":0,"o":"m 1054 1279 b 1046 1214 1061 1288 1065 1242 b 947 1189 1025 1185 986 1178 b 799 1301 885 1206 854 1286 b 738 1281 776 1307 754 1301 b 736 1346 731 1271 717 1313 b 824 1381 753 1374 786 1386 b 993 1271 897 1369 943 1293 b 1054 1279 1014 1261 1043 1265 m 826 1185 b 958 1081 861 1185 958 1133 b 789 442 958 1024 867 724 b 782 418 789 429 786 419 b 682 -44 728 221 682 36 b 521 33 682 -64 521 -24 b 615 431 521 94 564 254 b 301 403 515 425 394 410 b 93 -49 190 226 101 54 b 0 22 90 -85 0 -49 b 190 401 0 86 79 232 b 156 411 175 403 163 406 b 171 515 117 438 161 519 b 251 493 196 506 222 499 b 713 1110 400 713 583 953 b 826 1185 744 1149 797 1185 m 804 1039 b 760 1042 818 1090 789 1075 b 354 485 740 1019 532 757 b 635 497 450 482 553 493 b 804 1039 706 731 786 974 "},"":{"ha":1364,"x_min":0,"x_max":0,"o":"m 1251 1161 b 1517 929 1394 1161 1517 1068 b 1296 703 1517 814 1424 703 b 1190 751 1224 703 1190 735 b 1208 763 1190 758 1197 764 b 1403 961 1310 750 1403 851 b 1279 1101 1403 1044 1357 1101 b 990 751 1129 1101 990 922 b 1153 564 990 624 1099 564 b 1229 471 1204 564 1229 500 b 1222 458 1229 463 1228 457 b 1125 467 1189 467 1157 467 b 771 211 917 467 771 338 b 924 58 771 115 835 58 b 1153 147 1014 58 1097 92 b 1164 57 1164 158 1203 96 b 910 -39 1124 17 1013 -39 b 590 213 729 -39 590 46 b 601 297 590 243 594 271 b 633 428 608 335 619 379 b 317 397 529 418 414 404 b 107 -49 206 225 115 56 b 14 22 104 -85 14 -49 b 206 393 14 86 94 228 b 107 411 160 394 124 400 b 122 515 68 438 113 519 b 269 486 163 499 214 490 b 726 1081 417 694 599 925 b 840 1156 758 1119 811 1156 b 972 1056 874 1156 968 1107 b 1251 1161 1050 1121 1151 1161 m 374 482 b 653 497 467 482 565 490 b 818 1010 713 699 797 933 b 774 1013 832 1061 803 1046 b 374 482 754 990 551 743 m 825 514 b 938 544 860 526 897 538 b 858 625 906 567 879 593 l 825 514 "},"":{"ha":1024,"x_min":0,"x_max":0,"o":"m 1079 896 b 717 479 1079 685 913 551 b 858 288 804 444 858 367 b 521 -24 858 101 690 -24 b 272 85 360 -24 293 32 b 304 156 256 128 290 167 b 463 107 346 122 394 107 b 714 310 551 107 714 156 b 529 424 714 381 646 424 b 488 422 517 424 503 424 l 463 418 b 332 378 425 413 382 400 l 158 -19 b 42 92 146 -50 42 53 b 467 1061 42 124 365 767 b 376 1071 431 1060 399 1063 b 378 1185 331 1088 368 1189 b 496 1164 407 1172 447 1167 b 497 1171 497 1167 497 1168 b 539 1163 499 1182 517 1176 b 732 1164 596 1163 663 1164 b 1079 896 929 1164 1079 1092 m 383 497 b 907 908 596 499 907 669 b 715 1081 907 982 893 1081 b 610 1074 683 1081 647 1078 b 611 1064 611 1071 611 1067 b 383 497 611 1033 497 761 "},"":{"ha":838,"x_min":0,"x_max":0,"o":"m 628 35 b 424 -46 586 -7 496 -46 b 103 364 206 -46 99 139 b 672 1168 110 763 381 1165 b 958 922 850 1169 969 1050 b 822 888 951 844 817 864 b 715 1101 851 1011 826 1101 b 271 339 565 1101 281 782 b 429 46 267 160 324 46 b 618 125 489 46 561 68 b 628 35 629 136 667 74 "},"":{"ha":838,"x_min":0,"x_max":0,"o":"m 796 1263 b 714 1289 768 1239 699 1276 b 838 1474 771 1335 797 1429 b 947 1428 876 1517 968 1438 b 796 1263 886 1397 856 1311 m 628 35 b 424 -46 586 -7 496 -46 b 103 364 206 -46 99 139 b 672 1168 110 763 381 1165 b 958 922 850 1169 969 1050 b 822 888 951 844 817 864 b 715 1101 851 1011 826 1101 b 271 339 565 1101 281 782 b 429 46 267 160 324 46 b 618 125 489 46 561 68 b 628 35 629 136 667 74 "},"":{"ha":838,"x_min":0,"x_max":0,"o":"m 801 1260 b 694 1281 789 1240 699 1257 b 640 1460 689 1307 681 1388 b 735 1456 635 1472 714 1496 b 763 1344 749 1429 758 1360 b 792 1343 767 1329 774 1333 b 893 1449 815 1357 867 1417 b 919 1400 899 1454 946 1439 b 801 1260 901 1372 814 1278 m 628 35 b 424 -46 586 -7 496 -46 b 103 364 206 -46 99 139 b 672 1168 110 763 381 1165 b 958 922 850 1169 969 1050 b 822 888 951 844 817 864 b 715 1101 851 1011 826 1101 b 271 339 565 1101 281 782 b 429 46 267 160 324 46 b 618 125 489 46 561 68 b 628 35 629 136 667 74 "},"":{"ha":838,"x_min":0,"x_max":0,"o":"m 672 1168 b 958 922 850 1169 969 1050 b 822 888 951 844 817 864 b 715 1101 851 1011 826 1101 b 271 339 565 1101 281 782 b 429 46 267 160 324 46 b 618 125 489 46 561 68 b 628 35 629 136 667 74 b 461 -43 593 0 525 -32 b 340 -267 501 -154 451 -267 b 243 -194 290 -267 254 -231 b 260 -161 236 -171 251 -149 b 385 -44 292 -208 385 -174 b 103 364 193 -24 99 153 b 672 1168 110 763 381 1165 "},"":{"ha":838,"x_min":0,"x_max":0,"o":"m 801 1281 b 739 1343 768 1281 739 1306 b 849 1474 739 1393 768 1474 b 915 1407 899 1474 915 1439 b 801 1281 915 1375 889 1281 m 628 35 b 424 -46 586 -7 496 -46 b 103 364 206 -46 99 139 b 672 1168 110 763 381 1165 b 958 922 850 1169 969 1050 b 822 888 951 844 817 864 b 715 1101 851 1011 826 1101 b 271 339 565 1101 281 782 b 429 46 267 160 324 46 b 618 125 489 46 561 68 b 628 35 629 136 667 74 "},"":{"ha":1121,"x_min":0,"x_max":0,"o":"m 732 1164 b 1121 813 956 1168 1121 1078 b 507 -15 1121 482 917 -15 b 278 76 360 -15 296 42 b 304 156 251 128 290 169 b 463 113 324 136 371 113 b 949 825 765 113 949 550 b 715 1081 949 968 931 1090 b 610 1074 683 1081 647 1078 b 611 1064 611 1071 611 1067 b 158 -19 611 1003 171 11 b 42 92 146 -50 42 53 b 467 1061 42 124 365 767 b 376 1071 431 1060 399 1063 b 378 1185 331 1088 368 1189 b 496 1164 407 1172 447 1167 b 497 1171 497 1167 497 1168 b 540 1163 499 1183 518 1178 b 732 1164 597 1163 663 1164 "},"":{"ha":1121,"x_min":0,"x_max":0,"o":"m 732 1164 b 1121 813 956 1168 1121 1078 b 507 -15 1121 482 917 -15 b 278 76 360 -15 296 42 b 304 156 251 128 290 169 b 463 113 324 136 371 113 b 949 825 765 113 949 550 b 715 1081 949 968 931 1090 b 610 1074 683 1081 647 1078 b 611 1064 611 1071 611 1067 b 475 713 611 1042 551 893 b 576 704 515 713 550 710 b 593 639 613 696 606 633 b 449 650 565 651 511 653 b 158 -19 322 351 165 -1 b 42 92 146 -50 42 53 b 292 643 42 113 171 376 b 175 654 236 640 192 642 b 192 736 140 679 182 739 b 325 715 233 724 279 718 b 467 1061 383 846 436 969 b 376 1071 431 1060 399 1063 b 378 1185 331 1088 368 1189 b 496 1164 407 1172 447 1167 b 497 1171 497 1167 497 1168 b 540 1163 499 1183 518 1178 b 732 1164 597 1163 663 1164 "},"":{"ha":1121,"x_min":0,"x_max":0,"o":"m 582 1265 b 528 1444 576 1292 568 1372 b 622 1440 522 1457 601 1481 b 650 1329 636 1414 646 1344 b 679 1328 654 1314 661 1318 b 781 1433 703 1342 754 1401 b 807 1385 786 1439 833 1424 b 689 1244 789 1357 701 1263 b 582 1265 676 1225 586 1242 m 732 1164 b 1121 813 956 1168 1121 1078 b 507 -15 1121 482 917 -15 b 278 76 360 -15 296 42 b 304 156 251 128 290 169 b 463 113 324 136 371 113 b 949 825 765 113 949 550 b 715 1081 949 968 931 1090 b 610 1074 683 1081 647 1078 b 611 1064 611 1071 611 1067 b 158 -19 611 1003 171 11 b 42 92 146 -50 42 53 b 467 1061 42 124 365 767 b 376 1071 431 1060 399 1063 b 378 1185 331 1088 368 1189 b 496 1164 407 1172 447 1167 b 497 1171 497 1167 497 1168 b 540 1163 499 1183 518 1178 b 732 1164 597 1163 663 1164 "},"":{"ha":1121,"x_min":0,"x_max":0,"o":"m 732 1164 b 1121 813 956 1168 1121 1078 b 507 -15 1121 482 917 -15 b 278 76 360 -15 296 42 b 304 156 251 128 290 169 b 463 113 324 136 371 113 b 949 825 765 113 949 550 b 715 1081 949 968 931 1090 b 610 1074 683 1081 647 1078 b 611 1064 611 1071 611 1067 b 475 713 611 1042 551 893 b 576 704 515 713 550 710 b 593 639 613 696 606 633 b 449 650 565 651 511 653 b 158 -19 322 351 165 -1 b 42 92 146 -50 42 53 b 292 643 42 113 171 376 b 175 654 236 640 192 642 b 192 736 140 679 182 739 b 325 715 233 724 279 718 b 467 1061 383 846 436 969 b 376 1071 431 1060 399 1063 b 378 1185 331 1088 368 1189 b 496 1164 407 1172 447 1167 b 497 1171 497 1167 497 1168 b 540 1163 499 1183 518 1178 b 732 1164 597 1163 663 1164 "},"":{"ha":926,"x_min":0,"x_max":0,"o":"m 703 1161 b 968 929 846 1161 968 1068 b 747 703 968 814 875 703 b 642 751 675 703 642 735 b 660 763 642 758 649 764 b 854 961 761 750 854 851 b 731 1101 854 1044 808 1101 b 442 751 581 1101 442 922 b 604 564 442 624 550 564 b 681 471 656 564 681 500 b 674 458 681 463 679 457 b 576 467 640 464 608 467 b 222 211 368 467 222 338 b 375 58 222 115 286 58 b 604 147 465 58 549 92 b 615 57 615 158 654 96 b 361 -39 575 17 464 -39 b 42 213 181 -39 42 46 b 389 544 42 397 179 504 b 276 753 322 590 276 657 b 703 1161 276 983 490 1161 "},"":{"ha":926,"x_min":0,"x_max":0,"o":"m 871 1474 b 981 1428 910 1517 1001 1438 b 829 1263 919 1397 889 1311 b 747 1289 801 1239 732 1276 b 871 1474 804 1335 831 1429 m 703 1161 b 968 929 846 1161 968 1068 b 747 703 968 814 875 703 b 642 751 675 703 642 735 b 660 763 642 758 649 764 b 854 961 761 750 854 851 b 731 1101 854 1044 808 1101 b 442 751 581 1101 442 922 b 604 564 442 624 550 564 b 681 471 656 564 681 500 b 674 458 681 463 679 457 b 576 467 640 464 608 467 b 222 211 368 467 222 338 b 375 58 222 115 286 58 b 604 147 465 58 549 92 b 615 57 615 158 654 96 b 361 -39 575 17 464 -39 b 42 213 181 -39 42 46 b 389 544 42 397 179 504 b 276 753 322 590 276 657 b 703 1161 276 983 490 1161 "},"":{"ha":926,"x_min":0,"x_max":0,"o":"m 728 1281 b 674 1460 722 1307 714 1388 b 768 1456 668 1472 747 1496 b 796 1344 782 1429 792 1360 b 825 1343 800 1329 807 1333 b 926 1449 849 1357 900 1417 b 953 1400 932 1454 979 1439 b 835 1260 935 1372 847 1278 b 728 1281 822 1240 732 1257 m 703 1161 b 968 929 846 1161 968 1068 b 747 703 968 814 875 703 b 642 751 675 703 642 735 b 660 763 642 758 649 764 b 854 961 761 750 854 851 b 731 1101 854 1044 808 1101 b 442 751 581 1101 442 922 b 604 564 442 624 550 564 b 681 471 656 564 681 500 b 674 458 681 463 679 457 b 576 467 640 464 608 467 b 222 211 368 467 222 338 b 375 58 222 115 286 58 b 604 147 465 58 549 92 b 615 57 615 158 654 96 b 361 -39 575 17 464 -39 b 42 213 181 -39 42 46 b 389 544 42 397 179 504 b 276 753 322 590 276 657 b 703 1161 276 983 490 1161 "},"":{"ha":926,"x_min":0,"x_max":0,"o":"m 681 1283 b 658 1333 675 1276 628 1299 b 788 1463 681 1358 772 1446 b 893 1433 804 1481 889 1458 b 931 1250 897 1407 904 1311 b 838 1263 936 1238 854 1221 b 819 1375 826 1292 822 1361 b 790 1379 817 1390 810 1389 b 681 1283 765 1367 707 1317 m 703 1161 b 968 929 846 1161 968 1068 b 747 703 968 814 875 703 b 642 751 675 703 642 735 b 660 763 642 758 649 764 b 854 961 761 750 854 851 b 731 1101 854 1044 808 1101 b 442 751 581 1101 442 922 b 604 564 442 624 550 564 b 681 471 656 564 681 500 b 674 458 681 463 679 457 b 576 467 640 464 608 467 b 222 211 368 467 222 338 b 375 58 222 115 286 58 b 604 147 465 58 549 92 b 615 57 615 158 654 96 b 361 -39 575 17 464 -39 b 42 213 181 -39 42 46 b 389 544 42 397 179 504 b 276 753 322 590 276 657 b 703 1161 276 983 490 1161 "},"":{"ha":926,"x_min":0,"x_max":0,"o":"m 693 1299 b 636 1356 663 1299 636 1321 b 736 1474 636 1400 663 1474 b 796 1413 782 1474 796 1442 b 693 1299 796 1383 772 1299 m 972 1446 b 1032 1385 1018 1446 1032 1414 b 929 1271 1032 1356 1008 1271 b 872 1328 899 1271 872 1293 b 972 1446 872 1372 899 1446 m 703 1161 b 968 929 846 1161 968 1068 b 747 703 968 814 875 703 b 642 751 675 703 642 735 b 660 763 642 758 649 764 b 854 961 761 750 854 851 b 731 1101 854 1044 808 1101 b 442 751 581 1101 442 922 b 604 564 442 624 550 564 b 681 471 656 564 681 500 b 674 458 681 463 679 457 b 576 467 640 464 608 467 b 222 211 368 467 222 338 b 375 58 222 115 286 58 b 604 147 465 58 549 92 b 615 57 615 158 654 96 b 361 -39 575 17 464 -39 b 42 213 181 -39 42 46 b 389 544 42 397 179 504 b 276 753 322 590 276 657 b 703 1161 276 983 490 1161 "},"":{"ha":926,"x_min":0,"x_max":0,"o":"m 835 1281 b 772 1343 801 1281 772 1306 b 882 1474 772 1393 801 1474 b 949 1407 932 1474 949 1439 b 835 1281 949 1375 922 1281 m 703 1161 b 968 929 846 1161 968 1068 b 747 703 968 814 875 703 b 642 751 675 703 642 735 b 660 763 642 758 649 764 b 854 961 761 750 854 851 b 731 1101 854 1044 808 1101 b 442 751 581 1101 442 922 b 604 564 442 624 550 564 b 681 471 656 564 681 500 b 674 458 681 463 679 457 b 576 467 640 464 608 467 b 222 211 368 467 222 338 b 375 58 222 115 286 58 b 604 147 465 58 549 92 b 615 57 615 158 654 96 b 361 -39 575 17 464 -39 b 42 213 181 -39 42 46 b 389 544 42 397 179 504 b 276 753 322 590 276 657 b 703 1161 276 983 490 1161 "},"":{"ha":926,"x_min":0,"x_max":0,"o":"m 899 1310 b 824 1265 904 1265 826 1251 b 735 1475 814 1314 735 1418 b 844 1525 735 1522 844 1556 b 899 1310 844 1461 890 1372 m 703 1161 b 968 929 846 1161 968 1068 b 747 703 968 814 875 703 b 642 751 675 703 642 735 b 660 763 642 758 649 764 b 854 961 761 750 854 851 b 731 1101 854 1044 808 1101 b 442 751 581 1101 442 922 b 604 564 442 624 550 564 b 681 471 656 564 681 500 b 674 458 681 463 679 457 b 576 467 640 464 608 467 b 222 211 368 467 222 338 b 375 58 222 115 286 58 b 604 147 465 58 549 92 b 615 57 615 158 654 96 b 361 -39 575 17 464 -39 b 42 213 181 -39 42 46 b 389 544 42 397 179 504 b 276 753 322 590 276 657 b 703 1161 276 983 490 1161 "},"":{"ha":926,"x_min":0,"x_max":0,"o":"m 1014 1318 b 1026 1251 1049 1308 1039 1244 b 568 1289 951 1290 614 1251 b 589 1369 535 1317 579 1372 b 1014 1318 722 1336 929 1343 m 703 1161 b 968 929 846 1161 968 1068 b 747 703 968 814 875 703 b 642 751 675 703 642 735 b 660 763 642 758 649 764 b 854 961 761 750 854 851 b 731 1101 854 1044 808 1101 b 442 751 581 1101 442 922 b 604 564 442 624 550 564 b 681 471 656 564 681 500 b 674 458 681 463 679 457 b 576 467 640 464 608 467 b 222 211 368 467 222 338 b 375 58 222 115 286 58 b 604 147 465 58 549 92 b 615 57 615 158 654 96 b 361 -39 575 17 464 -39 b 42 213 181 -39 42 46 b 389 544 42 397 179 504 b 276 753 322 590 276 657 b 703 1161 276 983 490 1161 "},"":{"ha":926,"x_min":0,"x_max":0,"o":"m 703 1161 b 968 929 846 1161 968 1068 b 747 703 968 814 875 703 b 642 751 675 703 642 735 b 660 763 642 758 649 764 b 854 961 761 750 854 851 b 731 1101 854 1044 808 1101 b 442 751 581 1101 442 922 b 604 564 442 624 550 564 b 681 471 656 564 681 500 b 674 458 681 463 679 457 b 576 467 640 464 608 467 b 222 211 368 467 222 338 b 375 58 222 115 286 58 b 604 147 465 58 549 92 b 615 57 615 158 654 96 b 561 18 603 44 585 32 b 508 -128 528 -40 508 -90 b 589 -200 508 -185 532 -215 b 583 -239 601 -200 597 -225 b 511 -268 567 -256 539 -268 b 394 -147 449 -268 394 -211 b 440 -29 394 -110 410 -68 b 361 -39 414 -35 388 -39 b 42 213 181 -39 42 46 b 389 544 42 397 179 504 b 276 753 322 590 276 657 b 703 1161 276 983 490 1161 "},"":{"ha":815,"x_min":0,"x_max":0,"o":"m 1111 1138 b 1015 1010 1133 1136 1119 1010 b 567 1035 967 1010 743 1024 b 403 581 547 964 478 779 b 731 600 508 583 636 574 b 736 501 740 603 769 529 b 378 514 699 471 513 510 b 158 -50 274 240 165 -35 b 42 61 146 -81 42 22 b 426 1046 42 93 326 739 l 365 1051 b 335 1126 325 1056 321 1126 b 450 1128 369 1126 408 1126 b 460 1171 456 1144 458 1158 b 542 1128 463 1190 510 1164 b 714 1129 593 1129 650 1129 b 1111 1138 881 1129 1046 1142 "},"":{"ha":875,"x_min":0,"x_max":0,"o":"m 682 1167 b 958 922 846 1167 968 1050 b 824 888 953 844 818 864 b 699 1101 853 1010 824 1101 b 208 322 561 1101 208 826 b 364 58 208 150 267 58 b 664 446 494 58 608 228 b 397 444 558 436 465 418 b 413 563 356 461 403 567 b 835 525 557 500 676 525 b 894 442 910 525 908 439 b 782 453 857 449 818 453 b 360 -33 706 132 549 -33 b 56 361 163 -33 56 111 b 682 1167 56 782 358 1167 "},"":{"ha":875,"x_min":0,"x_max":0,"o":"m 940 1400 b 999 1378 942 1413 1004 1411 b 831 1258 990 1333 940 1258 b 656 1400 710 1258 656 1365 b 757 1446 656 1465 757 1463 b 853 1319 757 1394 776 1319 b 940 1400 904 1319 935 1365 m 682 1167 b 958 922 846 1167 968 1050 b 824 888 953 844 818 864 b 699 1101 853 1010 824 1101 b 208 322 561 1101 208 826 b 364 58 208 150 267 58 b 664 446 494 58 608 228 b 397 444 558 436 465 418 b 413 563 356 461 403 567 b 835 525 557 500 676 525 b 894 442 910 525 908 439 b 782 453 857 449 818 453 b 360 -33 706 132 549 -33 b 56 361 163 -33 56 111 b 682 1167 56 782 358 1167 "},"":{"ha":875,"x_min":0,"x_max":0,"o":"m 682 1167 b 958 922 846 1167 968 1050 b 824 888 953 844 818 864 b 699 1101 853 1010 824 1101 b 208 322 561 1101 208 826 b 364 58 208 150 267 58 b 664 446 494 58 608 228 b 397 444 558 436 465 418 b 413 563 356 461 403 567 b 835 525 557 500 676 525 b 894 442 910 525 908 439 b 782 453 857 449 818 453 b 360 -33 706 132 549 -33 b 56 361 163 -33 56 111 b 682 1167 56 782 358 1167 m 293 -164 b 357 -232 333 -164 357 -187 b 211 -399 357 -314 281 -399 b 181 -379 188 -399 169 -383 b 239 -296 211 -368 239 -331 b 226 -232 239 -274 226 -267 b 293 -164 226 -194 258 -164 "},"":{"ha":875,"x_min":0,"x_max":0,"o":"m 858 1265 b 796 1328 825 1265 796 1290 b 906 1458 796 1378 825 1458 b 972 1392 956 1458 972 1424 b 858 1265 972 1360 946 1265 m 682 1167 b 958 922 846 1167 968 1050 b 824 888 953 844 818 864 b 699 1101 853 1010 824 1101 b 208 322 561 1101 208 826 b 364 58 208 150 267 58 b 664 446 494 58 608 228 b 397 444 558 436 465 418 b 413 563 356 461 403 567 b 835 525 557 500 676 525 b 894 442 910 525 908 439 b 782 453 857 449 818 453 b 360 -33 706 132 549 -33 b 56 361 163 -33 56 111 b 682 1167 56 782 358 1167 "},"":{"ha":1019,"x_min":0,"x_max":0,"o":"m 928 515 b 944 428 960 507 957 422 b 871 443 926 436 901 440 b 664 -111 772 174 671 -96 b 547 0 651 -142 547 -39 b 715 443 547 18 628 217 b 336 410 596 438 456 421 l 158 -19 b 42 92 146 -50 42 53 b 172 403 42 106 99 235 b 82 419 129 404 97 408 b 97 515 43 446 88 519 b 211 490 129 503 168 494 b 486 1206 331 765 472 1099 b 600 1099 490 1233 600 1158 b 367 488 600 1067 482 768 b 744 518 494 492 633 510 b 947 1108 839 761 933 1017 b 1061 1001 951 1136 1061 1061 b 899 521 1061 974 985 757 b 928 515 910 519 919 518 "},"":{"ha":1019,"x_min":0,"x_max":0,"o":"m 969 717 b 990 636 1007 700 1001 632 b 944 644 978 640 963 643 l 899 521 b 928 515 910 519 919 518 b 944 428 960 507 957 422 b 871 443 926 436 901 440 b 664 -111 772 174 671 -96 b 547 0 651 -142 547 -39 b 715 443 547 18 628 217 b 336 410 596 438 456 421 l 158 -19 b 42 92 146 -50 42 53 b 172 403 42 106 99 235 b 82 419 129 404 97 408 b 97 515 43 446 88 519 b 211 490 129 503 168 494 b 271 629 231 535 251 582 b 201 640 242 631 218 635 b 211 736 160 656 201 739 b 310 718 240 728 274 722 b 486 1206 397 928 476 1126 b 600 1099 490 1233 600 1158 b 457 710 600 1075 536 908 b 821 719 583 707 719 715 b 947 1108 885 890 938 1042 b 1061 1001 951 1136 1061 1061 b 969 717 1061 982 1022 867 m 367 488 b 744 518 494 492 633 510 l 794 647 b 425 628 681 643 542 632 l 367 488 "},"":{"ha":436,"x_min":0,"x_max":0,"o":"m 143 -19 b 26 92 131 -50 26 53 b 482 1171 26 129 458 982 b 596 1064 485 1193 596 1136 b 143 -19 596 1003 156 11 "},"":{"ha":436,"x_min":0,"x_max":0,"o":"m 656 1272 b 574 1299 628 1249 558 1286 b 697 1483 631 1344 657 1439 b 807 1438 736 1526 828 1447 b 656 1272 746 1407 715 1321 m 143 -19 b 26 92 131 -50 26 53 b 482 1171 26 129 458 982 b 596 1064 485 1193 596 1136 b 143 -19 596 1003 156 11 "},"":{"ha":436,"x_min":0,"x_max":0,"o":"m 757 1260 b 664 1272 763 1247 681 1231 b 646 1385 653 1301 649 1371 b 617 1389 643 1400 636 1399 b 507 1293 592 1376 533 1326 b 485 1343 501 1286 454 1308 b 614 1472 507 1368 599 1456 b 719 1443 631 1490 715 1468 b 757 1260 724 1417 731 1321 m 143 -19 b 26 92 131 -50 26 53 b 482 1171 26 129 458 982 b 596 1064 485 1193 596 1136 b 143 -19 596 1003 156 11 "},"":{"ha":436,"x_min":0,"x_max":0,"o":"m 519 1308 b 463 1365 489 1308 463 1331 b 563 1483 463 1410 489 1483 b 622 1422 608 1483 622 1451 b 519 1308 622 1393 599 1308 m 756 1281 b 699 1338 725 1281 699 1303 b 799 1456 699 1382 725 1456 b 858 1394 844 1456 858 1424 b 756 1281 858 1365 835 1281 m 143 -19 b 26 92 131 -50 26 53 b 482 1171 26 129 458 982 b 596 1064 485 1193 596 1136 b 143 -19 596 1003 156 11 "},"":{"ha":436,"x_min":0,"x_max":0,"o":"m 661 1290 b 599 1353 628 1290 599 1315 b 708 1483 599 1403 628 1483 b 775 1417 758 1483 775 1449 b 661 1290 775 1385 749 1290 m 143 -19 b 26 92 131 -50 26 53 b 482 1171 26 129 458 982 b 596 1064 485 1193 596 1136 b 143 -19 596 1003 156 11 "},"":{"ha":436,"x_min":0,"x_max":0,"o":"m 650 1275 b 561 1485 640 1324 561 1428 b 671 1535 561 1532 671 1565 b 725 1319 671 1471 717 1382 b 650 1275 731 1275 653 1261 m 143 -19 b 26 92 131 -50 26 53 b 482 1171 26 129 458 982 b 596 1064 485 1193 596 1136 b 143 -19 596 1003 156 11 "},"":{"ha":436,"x_min":0,"x_max":0,"o":"m 853 1261 b 394 1299 778 1300 440 1261 b 415 1379 361 1326 406 1382 b 840 1328 549 1346 756 1353 b 853 1261 875 1318 865 1254 m 143 -19 b 26 92 131 -50 26 53 b 482 1171 26 129 458 982 b 596 1064 485 1193 596 1136 b 143 -19 596 1003 156 11 "},"":{"ha":436,"x_min":0,"x_max":0,"o":"m 163 -231 b 157 -269 175 -231 171 -256 b 85 -299 140 -286 113 -299 b -32 -178 22 -299 -32 -242 b 83 7 -32 -117 10 -46 b 26 92 54 33 26 71 b 482 1171 26 129 458 982 b 596 1064 485 1193 596 1136 b 143 -19 596 1003 156 11 b 129 -24 140 -25 136 -26 b 82 -158 99 -78 82 -124 b 163 -231 82 -215 106 -246 "},"":{"ha":668,"x_min":0,"x_max":0,"o":"m 665 1172 b 779 1064 674 1190 779 1135 b 374 63 779 1013 494 311 b 115 -111 317 -54 225 -111 b -60 -25 39 -111 -31 -81 b -36 67 -89 32 -42 75 b 71 3 -21 43 14 3 b 210 92 126 3 174 32 b 649 1099 233 131 567 825 b 276 1081 493 1106 375 1044 b 292 1199 233 1096 282 1201 b 665 1172 442 1156 508 1172 "},"":{"ha":1000,"x_min":0,"x_max":0,"o":"m 1144 1068 b 506 474 1144 967 889 682 b 808 61 532 113 763 61 b 694 -68 831 61 801 -68 b 378 408 492 -68 390 225 b 328 386 361 401 344 394 l 158 -19 b 42 92 146 -50 42 53 b 471 1160 42 129 447 971 b 585 1053 474 1185 585 1113 b 388 533 585 1024 489 781 b 1058 1179 579 604 939 921 b 1144 1068 1069 1203 1144 1126 "},"":{"ha":1000,"x_min":0,"x_max":0,"o":"m 1144 1068 b 506 474 1144 967 889 682 b 808 61 532 113 763 61 b 694 -68 831 61 801 -68 b 378 408 492 -68 390 225 b 328 386 361 401 344 394 l 158 -19 b 42 92 146 -50 42 53 b 471 1160 42 129 447 971 b 585 1053 474 1185 585 1113 b 388 533 585 1024 489 781 b 1058 1179 579 604 939 921 b 1144 1068 1069 1203 1144 1126 m 317 -71 b 381 -139 357 -71 381 -94 b 235 -306 381 -221 304 -306 b 204 -286 211 -306 193 -290 b 263 -203 235 -275 263 -237 b 250 -139 263 -181 250 -174 b 317 -71 250 -101 282 -71 "},"":{"ha":782,"x_min":0,"x_max":0,"o":"m 668 47 b 643 -112 767 -19 668 -136 b 256 67 533 -12 411 44 b 74 -37 200 1 140 -37 b -54 67 -18 -37 -64 10 b 119 167 -46 115 14 154 b 176 169 136 168 156 169 b 393 635 242 276 322 460 b 600 1206 501 903 588 1122 b 714 1099 604 1233 714 1158 b 532 594 714 1072 638 875 b 324 158 471 442 401 281 b 668 47 450 140 589 101 "},"":{"ha":782,"x_min":0,"x_max":0,"o":"m 843 1606 b 953 1560 882 1649 974 1569 b 801 1394 892 1529 861 1443 b 719 1421 774 1371 704 1408 b 843 1606 776 1467 803 1561 m 714 1099 b 532 594 714 1072 638 875 b 324 158 471 442 401 281 b 668 47 450 140 589 101 b 643 -112 767 -19 668 -136 b 256 67 533 -12 411 44 b 74 -37 200 1 140 -37 b -54 67 -18 -37 -64 10 b 119 167 -46 115 14 154 b 176 169 136 168 156 169 b 393 635 242 276 322 460 b 600 1206 501 903 588 1122 b 714 1099 604 1233 714 1158 "},"":{"ha":782,"x_min":0,"x_max":0,"o":"m 714 1099 b 532 594 714 1072 638 875 b 324 158 471 442 401 281 b 668 47 450 140 589 101 b 643 -112 767 -19 668 -136 b 256 67 533 -12 411 44 b 74 -37 200 1 140 -37 b -54 67 -18 -37 -64 10 b 119 167 -46 115 14 154 b 176 169 136 168 156 169 b 393 635 242 276 322 460 b 600 1206 501 903 588 1122 b 714 1099 604 1233 714 1158 m 893 1028 b 957 960 933 1028 957 1004 b 811 793 957 878 881 793 b 781 813 788 793 769 808 b 839 896 811 824 839 861 b 826 960 839 918 826 925 b 893 1028 826 997 858 1028 "},"":{"ha":782,"x_min":0,"x_max":0,"o":"m 668 47 b 643 -112 767 -19 668 -136 b 256 67 533 -12 411 44 b 74 -37 200 1 140 -37 b -54 67 -18 -37 -64 10 b 119 167 -46 115 14 154 b 176 169 136 168 156 169 b 393 635 242 276 322 460 b 600 1206 501 903 588 1122 b 714 1099 604 1233 714 1158 b 532 594 714 1072 638 875 b 324 158 471 442 401 281 b 668 47 450 140 589 101 m 239 -71 b 303 -139 279 -71 303 -94 b 157 -306 303 -221 226 -306 b 126 -286 133 -306 115 -290 b 185 -203 157 -275 185 -237 b 172 -139 185 -181 172 -174 b 239 -71 172 -101 204 -71 "},"":{"ha":782,"x_min":0,"x_max":0,"o":"m 668 47 b 643 -112 767 -19 668 -136 b 256 67 533 -12 411 44 b 74 -37 200 1 140 -37 b -54 67 -18 -37 -64 10 b 119 167 -46 115 14 154 b 176 169 136 168 156 169 b 346 521 228 254 288 385 b 244 469 300 504 263 488 b 236 538 235 460 206 519 b 376 593 267 556 318 574 l 393 635 b 600 1206 501 903 588 1122 b 714 1099 604 1233 714 1158 b 563 674 714 1075 651 911 b 614 713 582 686 599 699 b 642 633 622 719 667 669 b 526 579 629 617 583 599 b 324 158 465 432 400 276 b 668 47 450 140 589 101 "},"":{"ha":1363,"x_min":0,"x_max":0,"o":"m 1064 -111 b 922 15 1054 -144 922 -49 b 1201 854 922 143 1139 701 b 1168 861 1217 890 1188 899 b 554 -21 1107 742 735 -21 b 421 133 474 -21 413 25 b 689 928 431 282 647 806 b 646 956 718 1015 690 1011 b 131 -49 601 899 171 229 b 42 22 128 -67 38 -49 b 647 1081 53 176 375 775 b 767 1156 682 1119 738 1156 b 892 1051 801 1156 896 1104 b 582 128 885 953 589 236 b 604 97 581 108 588 97 b 1193 1042 708 97 1107 896 b 1303 1111 1225 1096 1253 1122 b 1418 1004 1331 1106 1435 1051 b 1064 -111 1331 756 1147 175 "},"":{"ha":1046,"x_min":0,"x_max":0,"o":"m 93 -49 b 0 22 90 -85 0 -49 b 532 1081 0 176 281 775 b 646 1156 564 1119 617 1156 b 778 1051 681 1156 778 1104 b 574 128 778 953 574 236 b 599 97 574 108 582 97 b 1151 1150 733 97 1017 1024 b 1264 1119 1192 1188 1290 1142 b 557 -21 1082 967 808 -21 b 413 133 476 -21 413 25 b 583 928 413 282 550 806 b 539 956 607 1015 579 1011 b 93 -49 499 899 114 229 "},"":{"ha":1046,"x_min":0,"x_max":0,"o":"m 1049 1247 b 967 1274 1021 1224 951 1261 b 1090 1458 1024 1319 1050 1414 b 1200 1413 1129 1501 1221 1422 b 1049 1247 1139 1382 1108 1296 m 93 -49 b 0 22 90 -85 0 -49 b 532 1081 0 176 281 775 b 646 1156 564 1119 617 1156 b 778 1051 681 1156 778 1104 b 574 128 778 953 574 236 b 599 97 574 108 582 97 b 1151 1150 733 97 1017 1024 b 1264 1119 1192 1188 1290 1142 b 557 -21 1082 967 808 -21 b 413 133 476 -21 413 25 b 583 928 413 282 550 806 b 539 956 607 1015 579 1011 b 93 -49 499 899 114 229 "},"":{"ha":1046,"x_min":0,"x_max":0,"o":"m 1054 1244 b 947 1265 1042 1225 951 1242 b 893 1444 942 1292 933 1372 b 988 1440 888 1457 967 1481 b 1015 1329 1001 1414 1011 1344 b 1044 1328 1019 1314 1026 1318 b 1146 1433 1068 1342 1119 1401 b 1172 1385 1151 1439 1199 1424 b 1054 1244 1154 1357 1067 1263 m 93 -49 b 0 22 90 -85 0 -49 b 532 1081 0 176 281 775 b 646 1156 564 1119 617 1156 b 778 1051 681 1156 778 1104 b 574 128 778 953 574 236 b 599 97 574 108 582 97 b 1151 1150 733 97 1017 1024 b 1264 1119 1192 1188 1290 1142 b 557 -21 1082 967 808 -21 b 413 133 476 -21 413 25 b 583 928 413 282 550 806 b 539 956 607 1015 579 1011 b 93 -49 499 899 114 229 "},"":{"ha":1046,"x_min":0,"x_max":0,"o":"m 93 -49 b 0 22 90 -85 0 -49 b 532 1081 0 176 281 775 b 646 1156 564 1119 617 1156 b 778 1051 681 1156 778 1104 b 574 128 778 953 574 236 b 599 97 574 108 582 97 b 1151 1150 733 97 1017 1024 b 1264 1119 1192 1188 1290 1142 b 557 -21 1082 967 808 -21 b 413 133 476 -21 413 25 b 583 928 413 282 550 806 b 539 956 607 1015 579 1011 b 93 -49 499 899 114 229 m 400 -306 b 369 -286 376 -306 358 -290 b 428 -203 400 -275 428 -237 b 415 -139 428 -181 415 -174 b 482 -71 415 -101 447 -71 b 546 -139 522 -71 546 -94 b 400 -306 546 -221 469 -306 "},"":{"ha":1046,"x_min":0,"x_max":0,"o":"m 882 1301 b 821 1281 860 1307 838 1301 b 819 1346 814 1271 800 1313 b 907 1381 836 1374 869 1386 b 1076 1271 981 1369 1026 1293 b 1138 1279 1097 1261 1126 1265 b 1129 1214 1144 1288 1149 1242 b 1031 1189 1108 1185 1069 1178 b 882 1301 968 1206 938 1286 m 93 -49 b 0 22 90 -85 0 -49 b 532 1081 0 176 281 775 b 646 1156 564 1119 617 1156 b 778 1051 681 1156 778 1104 b 574 128 778 953 574 236 b 599 97 574 108 582 97 b 1151 1150 733 97 1017 1024 b 1264 1119 1192 1188 1290 1142 b 557 -21 1082 967 808 -21 b 413 133 476 -21 413 25 b 583 928 413 282 550 806 b 539 956 607 1015 579 1011 b 93 -49 499 899 114 229 "},"":{"ha":951,"x_min":0,"x_max":0,"o":"m 671 1131 b 979 764 890 1131 979 936 b 293 -49 979 458 667 -49 b 42 228 140 -49 33 61 b 244 701 49 372 124 558 l 244 725 b 671 1131 244 992 451 1131 m 313 39 b 833 836 540 39 833 524 b 656 1065 833 932 803 1065 b 399 839 551 1065 443 983 b 671 925 479 893 571 925 b 769 824 764 925 808 817 b 385 613 679 839 515 756 b 460 483 400 539 435 500 b 406 460 493 461 435 447 b 315 524 392 465 351 485 b 197 171 246 422 197 301 b 313 39 197 108 238 39 "},"":{"ha":951,"x_min":0,"x_max":0,"o":"m 913 1451 b 1022 1406 951 1494 1043 1415 b 871 1240 961 1375 931 1289 b 789 1267 843 1217 774 1254 b 913 1451 846 1313 872 1407 m 671 1131 b 979 764 890 1131 979 936 b 293 -49 979 458 667 -49 b 42 228 140 -49 33 61 b 244 701 49 372 124 558 l 244 725 b 671 1131 244 992 451 1131 m 313 39 b 833 836 540 39 833 524 b 656 1065 833 932 803 1065 b 399 839 551 1065 443 983 b 671 925 479 893 571 925 b 769 824 764 925 808 817 b 385 613 679 839 515 756 b 460 483 400 539 435 500 b 406 460 493 461 435 447 b 315 524 392 465 351 485 b 197 171 246 422 197 301 b 313 39 197 108 238 39 "},"":{"ha":951,"x_min":0,"x_max":0,"o":"m 722 1261 b 700 1311 717 1254 669 1276 b 829 1440 722 1336 814 1424 b 935 1411 846 1458 931 1436 b 972 1228 939 1385 946 1289 b 879 1240 978 1215 896 1199 b 861 1353 868 1269 864 1339 b 832 1357 858 1368 851 1367 b 722 1261 807 1344 749 1294 m 671 1131 b 979 764 890 1131 979 936 b 293 -49 979 458 667 -49 b 42 228 140 -49 33 61 b 244 701 49 372 124 558 l 244 725 b 671 1131 244 992 451 1131 m 313 39 b 833 836 540 39 833 524 b 656 1065 833 932 803 1065 b 399 839 551 1065 443 983 b 671 925 479 893 571 925 b 769 824 764 925 808 817 b 385 613 679 839 515 756 b 460 483 400 539 435 500 b 406 460 493 461 435 447 b 315 524 392 465 351 485 b 197 171 246 422 197 301 b 313 39 197 108 238 39 "},"":{"ha":951,"x_min":0,"x_max":0,"o":"m 735 1276 b 678 1333 704 1276 678 1299 b 778 1451 678 1378 704 1451 b 838 1390 824 1451 838 1419 b 735 1276 838 1361 814 1276 m 1014 1424 b 1074 1363 1060 1424 1074 1392 b 971 1249 1074 1333 1050 1249 b 914 1306 940 1249 914 1271 b 1014 1424 914 1350 940 1424 m 671 1131 b 979 764 890 1131 979 936 b 293 -49 979 458 667 -49 b 42 228 140 -49 33 61 b 244 701 49 372 124 558 l 244 725 b 671 1131 244 992 451 1131 m 313 39 b 833 836 540 39 833 524 b 656 1065 833 932 803 1065 b 399 839 551 1065 443 983 b 671 925 479 893 571 925 b 769 824 764 925 808 817 b 385 613 679 839 515 756 b 460 483 400 539 435 500 b 406 460 493 461 435 447 b 315 524 392 465 351 485 b 197 171 246 422 197 301 b 313 39 197 108 238 39 "},"":{"ha":951,"x_min":0,"x_max":0,"o":"m 940 1288 b 865 1243 946 1243 868 1229 b 776 1453 856 1292 776 1396 b 886 1503 776 1500 886 1533 b 940 1288 886 1439 932 1350 m 671 1131 b 979 764 890 1131 979 936 b 293 -49 979 458 667 -49 b 42 228 140 -49 33 61 b 244 701 49 372 124 558 l 244 725 b 671 1131 244 992 451 1131 m 313 39 b 833 836 540 39 833 524 b 656 1065 833 932 803 1065 b 399 839 551 1065 443 983 b 671 925 479 893 571 925 b 769 824 764 925 808 817 b 385 613 679 839 515 756 b 460 483 400 539 435 500 b 406 460 493 461 435 447 b 315 524 392 465 351 485 b 197 171 246 422 197 301 b 313 39 197 108 238 39 "},"":{"ha":951,"x_min":0,"x_max":0,"o":"m 729 1247 b 657 1267 701 1224 642 1254 b 781 1451 714 1313 740 1407 b 881 1413 819 1494 901 1422 b 729 1247 818 1383 789 1296 m 978 1417 b 1075 1378 1017 1460 1096 1388 b 924 1213 1013 1349 983 1261 b 854 1232 896 1189 839 1219 b 978 1417 911 1278 938 1372 m 671 1131 b 979 764 890 1131 979 936 b 293 -49 979 458 667 -49 b 42 228 140 -49 33 61 b 244 701 49 372 124 558 l 244 725 b 671 1131 244 992 451 1131 m 313 39 b 833 836 540 39 833 524 b 656 1065 833 932 803 1065 b 399 839 551 1065 443 983 b 671 925 479 893 571 925 b 769 824 764 925 808 817 b 385 613 679 839 515 756 b 460 483 400 539 435 500 b 406 460 493 461 435 447 b 315 524 392 465 351 485 b 197 171 246 422 197 301 b 313 39 197 108 238 39 "},"":{"ha":951,"x_min":0,"x_max":0,"o":"m 1056 1296 b 1068 1229 1090 1286 1081 1222 b 610 1267 993 1268 656 1229 b 631 1347 576 1294 621 1350 b 1056 1296 764 1314 971 1321 m 671 1131 b 979 764 890 1131 979 936 b 293 -49 979 458 667 -49 b 42 228 140 -49 33 61 b 244 701 49 372 124 558 l 244 725 b 671 1131 244 992 451 1131 m 313 39 b 833 836 540 39 833 524 b 656 1065 833 932 803 1065 b 399 839 551 1065 443 983 b 671 925 479 893 571 925 b 769 824 764 925 808 817 b 385 613 679 839 515 756 b 460 483 400 539 435 500 b 406 460 493 461 435 447 b 315 524 392 465 351 485 b 197 171 246 422 197 301 b 313 39 197 108 238 39 "},"":{"ha":951,"x_min":0,"x_max":0,"o":"m 926 1146 b 1003 1089 931 1156 1019 1129 b 931 974 994 1068 968 1028 b 979 764 964 910 979 835 b 293 -49 979 458 667 -49 b 201 -33 260 -49 229 -43 b 136 -139 175 -74 153 -108 b 97 -58 129 -151 71 -101 b 136 1 108 -40 121 -19 b 42 228 74 49 36 128 b 244 701 49 372 124 558 l 244 725 b 671 1131 244 992 451 1131 b 878 1047 761 1131 829 1099 b 926 1146 897 1082 914 1115 m 656 1065 b 399 839 551 1065 443 983 b 671 925 479 893 571 925 b 769 872 717 925 751 899 l 818 946 b 656 1065 796 1011 750 1065 m 833 836 b 260 53 668 610 421 286 b 313 39 275 44 292 39 b 833 836 540 39 833 524 m 197 171 b 211 108 197 150 201 128 b 738 825 358 314 575 586 b 385 613 644 819 501 740 b 460 483 400 539 435 500 b 406 460 493 461 435 447 b 315 524 392 465 351 485 b 197 171 246 422 197 301 "},"":{"ha":951,"x_min":0,"x_max":0,"o":"m 643 1274 b 642 1339 636 1264 622 1306 b 729 1374 658 1367 692 1379 b 899 1264 803 1363 849 1286 b 960 1272 919 1254 949 1258 b 951 1207 967 1281 971 1235 b 853 1182 931 1178 892 1171 b 704 1294 790 1199 760 1279 b 643 1274 682 1300 660 1294 m 671 1131 b 979 764 890 1131 979 936 b 293 -49 979 458 667 -49 b 42 228 140 -49 33 61 b 244 701 49 372 124 558 l 244 725 b 671 1131 244 992 451 1131 m 313 39 b 833 836 540 39 833 524 b 656 1065 833 932 803 1065 b 399 839 551 1065 443 983 b 671 925 479 893 571 925 b 769 824 764 925 808 817 b 385 613 679 839 515 756 b 460 483 400 539 435 500 b 406 460 493 461 435 447 b 315 524 392 465 351 485 b 197 171 246 422 197 301 b 313 39 197 108 238 39 "},"":{"ha":1404,"x_min":0,"x_max":0,"o":"m 1278 1161 b 1543 929 1421 1161 1543 1068 b 1322 703 1543 814 1450 703 b 1217 751 1250 703 1217 735 b 1235 763 1217 758 1224 764 b 1429 961 1336 750 1429 851 b 1306 1101 1429 1044 1383 1101 b 1017 751 1156 1101 1017 922 b 1179 564 1017 624 1125 564 b 1256 471 1231 564 1256 500 b 1249 458 1256 463 1254 457 b 1151 467 1215 467 1183 467 b 797 211 943 467 797 338 b 950 58 797 115 861 58 b 1179 147 1040 58 1124 92 b 1190 57 1190 158 1229 96 b 936 -39 1150 17 1039 -39 b 635 117 794 -39 678 14 b 265 -49 528 18 400 -49 b 14 228 113 -49 6 61 b 217 701 21 372 96 558 l 217 725 b 643 1131 217 992 424 1131 b 911 956 781 1131 867 1054 b 1278 1161 990 1081 1135 1161 m 285 39 b 644 342 404 39 540 171 b 668 383 651 357 658 369 b 806 836 750 531 806 700 b 628 1065 806 932 775 1065 b 371 839 524 1065 415 983 b 643 925 451 893 543 925 b 742 824 736 925 781 817 b 357 613 651 839 488 756 b 432 483 372 539 407 500 b 378 460 465 461 407 447 b 288 524 364 465 324 485 b 169 171 218 422 169 301 b 285 39 169 108 210 39 m 906 532 b 964 544 925 536 944 542 b 921 581 949 556 935 567 b 906 532 917 564 911 547 "},"":{"ha":1006,"x_min":0,"x_max":0,"o":"m 732 1164 b 1047 896 878 1164 1047 1092 b 564 279 1047 549 776 279 b 365 374 474 279 386 321 b 397 444 349 417 383 456 b 528 396 439 411 488 396 b 875 908 681 396 875 668 b 715 1081 875 982 842 1081 b 610 1074 683 1081 647 1078 b 611 1064 611 1071 611 1067 b 158 -19 611 1003 171 11 b 42 92 146 -50 42 53 b 467 1061 42 124 365 767 b 376 1071 431 1060 399 1063 b 378 1185 331 1088 368 1189 b 496 1164 407 1172 447 1167 b 497 1171 497 1167 497 1168 b 536 1163 499 1181 515 1175 b 732 1164 594 1161 661 1164 "},"":{"ha":939,"x_min":0,"x_max":0,"o":"m 704 993 b 1019 725 850 993 1019 921 b 553 206 1019 447 776 206 b 381 279 475 206 401 239 b 408 344 367 307 399 353 b 528 304 439 319 488 304 b 847 738 704 304 847 567 b 688 910 847 811 814 910 b 571 901 651 910 611 906 b 175 -19 451 604 185 4 b 58 92 163 -50 58 53 b 417 890 58 118 283 569 b 349 900 390 890 367 893 b 350 1014 303 917 340 1018 b 458 993 378 1001 414 996 b 514 1171 489 1071 510 1133 b 628 1064 517 1199 628 1124 b 606 992 628 1056 619 1031 b 704 993 638 993 671 993 "},"":{"ha":979,"x_min":0,"x_max":0,"o":"m 721 -161 b 736 -224 726 -149 756 -181 b 592 -297 719 -262 671 -297 b 347 -46 431 -297 368 -164 b 293 -49 329 -47 311 -49 b 42 228 140 -49 33 61 b 244 701 49 372 124 558 l 244 725 b 657 1131 244 992 451 1131 b 979 764 890 1131 979 936 b 478 -8 979 511 764 118 b 656 -192 517 -104 575 -192 b 721 -161 682 -192 714 -176 m 301 53 b 336 56 313 53 325 54 b 338 97 336 72 336 86 b 429 178 343 179 426 201 b 443 101 432 156 436 129 b 833 836 643 229 833 585 b 656 1065 833 932 797 1065 b 399 839 551 1065 443 983 b 671 925 479 893 571 925 b 769 824 764 925 808 817 b 385 613 679 839 515 756 b 460 483 400 539 435 500 b 406 460 493 461 435 447 b 315 524 392 465 351 485 b 197 171 246 422 197 301 b 301 53 197 108 238 53 "},"":{"ha":1014,"x_min":0,"x_max":0,"o":"m 1033 896 b 564 335 1033 549 763 335 b 540 336 556 335 547 335 b 794 61 588 103 753 61 b 681 -68 817 61 788 -68 b 396 417 468 -68 394 254 b 428 488 379 460 414 500 b 528 451 453 467 488 451 b 861 908 667 451 861 668 b 715 1081 861 982 828 1081 b 610 1074 683 1081 647 1078 b 611 1064 611 1071 611 1067 b 158 -19 611 1003 171 11 b 42 92 146 -50 42 53 b 467 1061 42 124 365 767 b 376 1071 431 1060 399 1063 b 378 1185 331 1088 368 1189 b 496 1164 407 1172 447 1167 b 497 1171 497 1167 497 1168 b 540 1163 499 1182 518 1178 b 732 1164 597 1163 663 1164 b 1033 896 864 1164 1033 1092 "},"":{"ha":1014,"x_min":0,"x_max":0,"o":"m 775 1247 b 693 1274 747 1224 678 1261 b 817 1458 750 1319 776 1414 b 926 1413 856 1501 947 1422 b 775 1247 865 1382 835 1296 m 1033 896 b 564 335 1033 549 763 335 b 540 336 556 335 547 335 b 794 61 588 103 753 61 b 681 -68 817 61 788 -68 b 396 417 468 -68 394 254 b 428 488 379 460 414 500 b 528 451 453 467 488 451 b 861 908 667 451 861 668 b 715 1081 861 982 828 1081 b 610 1074 683 1081 647 1078 b 611 1064 611 1071 611 1067 b 158 -19 611 1003 171 11 b 42 92 146 -50 42 53 b 467 1061 42 124 365 767 b 376 1071 431 1060 399 1063 b 378 1185 331 1088 368 1189 b 496 1164 407 1172 447 1167 b 497 1171 497 1167 497 1168 b 540 1163 499 1182 518 1178 b 732 1164 597 1163 663 1164 b 1033 896 864 1164 1033 1092 "},"":{"ha":1014,"x_min":0,"x_max":0,"o":"m 674 1265 b 619 1444 668 1292 660 1372 b 714 1440 614 1457 693 1481 b 742 1329 728 1414 738 1344 b 771 1328 746 1314 753 1318 b 872 1433 794 1342 846 1401 b 899 1385 878 1439 925 1424 b 781 1244 881 1357 793 1263 b 674 1265 768 1225 678 1242 m 1033 896 b 564 335 1033 549 763 335 b 540 336 556 335 547 335 b 794 61 588 103 753 61 b 681 -68 817 61 788 -68 b 396 417 468 -68 394 254 b 428 488 379 460 414 500 b 528 451 453 467 488 451 b 861 908 667 451 861 668 b 715 1081 861 982 828 1081 b 610 1074 683 1081 647 1078 b 611 1064 611 1071 611 1067 b 158 -19 611 1003 171 11 b 42 92 146 -50 42 53 b 467 1061 42 124 365 767 b 376 1071 431 1060 399 1063 b 378 1185 331 1088 368 1189 b 496 1164 407 1172 447 1167 b 497 1171 497 1167 497 1168 b 540 1163 499 1182 518 1178 b 732 1164 597 1163 663 1164 b 1033 896 864 1164 1033 1092 "},"":{"ha":1014,"x_min":0,"x_max":0,"o":"m 1033 896 b 564 335 1033 549 763 335 b 540 336 556 335 547 335 b 794 61 588 103 753 61 b 681 -68 817 61 788 -68 b 396 417 468 -68 394 254 b 428 488 379 460 414 500 b 528 451 453 467 488 451 b 861 908 667 451 861 668 b 715 1081 861 982 828 1081 b 610 1074 683 1081 647 1078 b 611 1064 611 1071 611 1067 b 158 -19 611 1003 171 11 b 42 92 146 -50 42 53 b 467 1061 42 124 365 767 b 376 1071 431 1060 399 1063 b 378 1185 331 1088 368 1189 b 496 1164 407 1172 447 1167 b 497 1171 497 1167 497 1168 b 540 1163 499 1182 518 1178 b 732 1164 597 1163 663 1164 b 1033 896 864 1164 1033 1092 m 281 -122 b 344 -190 321 -122 344 -146 b 199 -357 344 -272 268 -357 b 168 -337 175 -357 157 -342 b 226 -254 199 -326 226 -289 b 214 -190 226 -232 214 -225 b 281 -122 214 -153 246 -122 "},"":{"ha":822,"x_min":0,"x_max":0,"o":"m 738 1072 b 371 675 583 1072 371 844 b 742 222 371 506 742 451 b 349 -49 742 75 571 -49 b 82 257 -7 -49 14 192 b 211 279 143 317 222 290 b 183 197 193 260 183 226 b 357 36 183 135 229 36 b 565 224 458 36 565 96 b 194 676 565 379 194 424 b 718 1154 194 929 494 1154 b 943 899 876 1154 968 1036 b 804 886 925 822 796 864 b 738 1072 853 996 838 1072 "},"":{"ha":822,"x_min":0,"x_max":0,"o":"m 865 1246 b 783 1272 838 1222 768 1260 b 907 1457 840 1318 867 1413 b 1017 1411 946 1500 1038 1421 b 865 1246 956 1381 925 1294 m 738 1072 b 371 675 583 1072 371 844 b 742 222 371 506 742 451 b 349 -49 742 75 571 -49 b 82 257 -7 -49 14 192 b 211 279 143 317 222 290 b 183 197 193 260 183 226 b 357 36 183 135 229 36 b 565 224 458 36 565 96 b 194 676 565 379 194 424 b 718 1154 194 929 494 1154 b 943 899 876 1154 968 1036 b 804 886 925 822 796 864 b 738 1072 853 996 838 1072 "},"":{"ha":822,"x_min":0,"x_max":0,"o":"m 871 1243 b 764 1264 858 1224 768 1240 b 710 1443 758 1290 750 1371 b 804 1439 704 1456 783 1479 b 832 1328 818 1413 828 1343 b 861 1326 836 1313 843 1317 b 963 1432 885 1340 936 1400 b 989 1383 968 1438 1015 1422 b 871 1243 971 1356 883 1261 m 738 1072 b 371 675 583 1072 371 844 b 742 222 371 506 742 451 b 349 -49 742 75 571 -49 b 82 257 -7 -49 14 192 b 211 279 143 317 222 290 b 183 197 193 260 183 226 b 357 36 183 135 229 36 b 565 224 458 36 565 96 b 194 676 565 379 194 424 b 718 1154 194 929 494 1154 b 943 899 876 1154 968 1036 b 804 886 925 822 796 864 b 738 1072 853 996 838 1072 "},"":{"ha":822,"x_min":0,"x_max":0,"o":"m 718 1154 b 943 899 876 1154 968 1036 b 804 886 925 822 796 864 b 738 1072 853 996 838 1072 b 371 675 583 1072 371 844 b 742 222 371 506 742 451 b 401 -46 742 88 597 -28 b 286 -285 451 -162 403 -285 b 189 -212 236 -285 200 -249 b 206 -179 182 -189 197 -167 b 331 -49 238 -228 336 -189 b 82 257 -6 -40 15 193 b 211 279 143 317 222 290 b 183 197 193 260 183 226 b 357 36 183 135 229 36 b 565 224 458 36 565 96 b 194 676 565 379 194 424 b 718 1154 194 929 494 1154 "},"":{"ha":822,"x_min":0,"x_max":0,"o":"m 738 1072 b 371 675 583 1072 371 844 b 742 222 371 506 742 451 b 349 -49 742 75 571 -49 b 82 257 -7 -49 14 192 b 211 279 143 317 222 290 b 183 197 193 260 183 226 b 357 36 183 135 229 36 b 565 224 458 36 565 96 b 194 676 565 379 194 424 b 718 1154 194 929 494 1154 b 943 899 876 1154 968 1036 b 804 886 925 822 796 864 b 738 1072 853 996 838 1072 m 244 -324 b 214 -304 221 -324 203 -308 b 272 -221 244 -293 272 -256 b 260 -157 272 -199 260 -192 b 326 -89 260 -119 292 -89 b 390 -157 367 -89 390 -112 b 244 -324 390 -239 314 -324 "},"":{"ha":701,"x_min":0,"x_max":0,"o":"m 972 1140 b 942 1065 986 1140 982 1071 b 656 1043 897 1060 781 1050 b 207 -19 608 886 218 10 b 90 92 194 -50 90 53 b 506 1033 90 124 392 728 b 272 1024 396 1028 301 1024 b 176 1151 168 1024 154 1150 b 540 1143 235 1156 389 1146 b 546 1171 543 1154 544 1163 b 613 1143 549 1188 583 1171 b 972 1140 769 1143 881 1140 "},"":{"ha":701,"x_min":0,"x_max":0,"o":"m 972 1140 b 942 1065 986 1140 982 1071 b 656 1043 897 1060 781 1050 b 564 807 643 1003 608 915 b 660 799 601 807 635 804 b 676 733 696 790 689 728 b 538 744 650 746 597 747 b 207 -19 407 432 215 0 b 90 92 194 -50 90 53 b 382 738 90 115 251 443 b 258 749 324 735 275 736 b 275 831 224 774 265 833 b 414 810 318 818 367 813 b 506 1033 450 893 482 969 b 272 1024 396 1028 301 1024 b 176 1151 168 1024 154 1150 b 540 1143 235 1156 389 1146 b 546 1171 543 1154 544 1163 b 613 1143 549 1188 583 1171 b 972 1140 769 1143 881 1140 "},"":{"ha":701,"x_min":0,"x_max":0,"o":"m 589 1265 b 535 1444 583 1292 575 1372 b 629 1440 529 1457 608 1481 b 657 1329 643 1414 653 1344 b 686 1328 661 1314 668 1318 b 788 1433 710 1342 761 1401 b 814 1385 793 1439 840 1424 b 696 1244 796 1357 708 1263 b 589 1265 683 1225 593 1242 m 972 1140 b 942 1065 986 1140 982 1071 b 656 1043 897 1060 781 1050 b 207 -19 608 886 218 10 b 90 92 194 -50 90 53 b 506 1033 90 124 392 728 b 272 1024 396 1028 301 1024 b 176 1151 168 1024 154 1150 b 540 1143 235 1156 389 1146 b 546 1171 543 1154 544 1163 b 613 1143 549 1188 583 1171 b 972 1140 769 1143 881 1140 "},"":{"ha":701,"x_min":0,"x_max":0,"o":"m 972 1140 b 942 1065 986 1140 982 1071 b 656 1043 897 1060 781 1050 b 211 -10 610 893 256 92 b 99 -256 265 -128 218 -256 b 1 -183 49 -256 13 -219 b 18 -150 -6 -160 10 -137 b 140 14 53 -203 164 -153 b 90 92 114 40 90 74 b 506 1033 90 124 392 728 b 272 1024 396 1028 301 1024 b 176 1151 168 1024 154 1150 b 540 1143 235 1156 389 1146 b 546 1171 543 1154 544 1163 b 613 1143 549 1188 583 1171 b 972 1140 769 1143 881 1140 "},"":{"ha":701,"x_min":0,"x_max":0,"o":"m 972 1140 b 942 1065 986 1140 982 1071 b 656 1043 897 1060 781 1050 b 207 -19 608 886 218 10 b 90 92 194 -50 90 53 b 506 1033 90 124 392 728 b 272 1024 396 1028 301 1024 b 176 1151 168 1024 154 1150 b 540 1143 235 1156 389 1146 b 546 1171 543 1154 544 1163 b 613 1143 549 1188 583 1171 b 972 1140 769 1143 881 1140 m 139 -60 b 203 -128 179 -60 203 -83 b 57 -294 203 -210 126 -294 b 26 -275 33 -294 15 -279 b 85 -192 57 -264 85 -226 b 72 -128 85 -169 72 -162 b 139 -60 72 -90 104 -60 "},"":{"ha":1026,"x_min":0,"x_max":0,"o":"m 968 1092 b 1082 985 972 1125 1082 1044 b 690 -58 1082 890 756 100 b 574 53 678 -89 574 14 b 815 660 574 142 704 407 b 158 -18 654 379 357 -18 b 42 151 104 -18 42 39 b 444 1186 42 264 426 997 b 567 1069 447 1211 567 1167 b 194 121 567 978 186 196 b 218 97 196 108 200 97 b 968 1092 403 97 858 797 "},"":{"ha":1026,"x_min":0,"x_max":0,"o":"m 860 1247 b 778 1274 832 1224 763 1261 b 901 1458 835 1319 861 1414 b 1011 1413 940 1501 1032 1422 b 860 1247 950 1382 919 1296 m 968 1092 b 1082 985 972 1125 1082 1044 b 690 -58 1082 890 756 100 b 574 53 678 -89 574 14 b 815 660 574 142 704 407 b 158 -18 654 379 357 -18 b 42 151 104 -18 42 39 b 444 1186 42 264 426 997 b 567 1069 447 1211 567 1167 b 194 121 567 978 186 196 b 218 97 196 108 200 97 b 968 1092 403 97 858 797 "},"":{"ha":1026,"x_min":0,"x_max":0,"o":"m 711 1268 b 689 1318 706 1261 658 1283 b 818 1447 711 1343 803 1431 b 924 1418 835 1465 919 1443 b 961 1235 928 1392 935 1296 b 868 1247 967 1222 885 1206 b 850 1360 857 1276 853 1346 b 821 1364 847 1375 840 1374 b 711 1268 796 1351 738 1301 m 968 1092 b 1082 985 972 1125 1082 1044 b 690 -58 1082 890 756 100 b 574 53 678 -89 574 14 b 815 660 574 142 704 407 b 158 -18 654 379 357 -18 b 42 151 104 -18 42 39 b 444 1186 42 264 426 997 b 567 1069 447 1211 567 1167 b 194 121 567 978 186 196 b 218 97 196 108 200 97 b 968 1092 403 97 858 797 "},"":{"ha":1026,"x_min":0,"x_max":0,"o":"m 724 1283 b 667 1340 693 1283 667 1306 b 767 1458 667 1385 693 1458 b 826 1397 813 1458 826 1426 b 724 1283 826 1368 803 1283 m 960 1256 b 903 1313 929 1256 903 1278 b 1003 1431 903 1357 929 1431 b 1063 1369 1049 1431 1063 1399 b 960 1256 1063 1340 1039 1256 m 968 1092 b 1082 985 972 1125 1082 1044 b 690 -58 1082 890 756 100 b 574 53 678 -89 574 14 b 815 660 574 142 704 407 b 158 -18 654 379 357 -18 b 42 151 104 -18 42 39 b 444 1186 42 264 426 997 b 567 1069 447 1211 567 1167 b 194 121 567 978 186 196 b 218 97 196 108 200 97 b 968 1092 403 97 858 797 "},"":{"ha":1026,"x_min":0,"x_max":0,"o":"m 929 1294 b 854 1250 935 1250 857 1236 b 765 1460 844 1299 765 1403 b 875 1510 765 1507 875 1540 b 929 1294 875 1446 921 1357 m 968 1092 b 1082 985 972 1125 1082 1044 b 690 -58 1082 890 756 100 b 574 53 678 -89 574 14 b 815 660 574 142 704 407 b 158 -18 654 379 357 -18 b 42 151 104 -18 42 39 b 444 1186 42 264 426 997 b 567 1069 447 1211 567 1167 b 194 121 567 978 186 196 b 218 97 196 108 200 97 b 968 1092 403 97 858 797 "},"":{"ha":1026,"x_min":0,"x_max":0,"o":"m 718 1254 b 646 1274 690 1231 631 1261 b 769 1458 703 1319 729 1414 b 869 1419 808 1501 890 1429 b 718 1254 807 1390 778 1303 m 843 1239 b 967 1424 900 1285 926 1379 b 1064 1385 1006 1467 1085 1394 b 913 1219 1001 1356 972 1268 b 843 1239 885 1196 828 1226 m 968 1092 b 1082 985 972 1125 1082 1044 b 690 -58 1082 890 756 100 b 574 53 678 -89 574 14 b 815 660 574 142 704 407 b 158 -18 654 379 357 -18 b 42 151 104 -18 42 39 b 444 1186 42 264 426 997 b 567 1069 447 1211 567 1167 b 194 121 567 978 186 196 b 218 97 196 108 200 97 b 968 1092 403 97 858 797 "},"":{"ha":1026,"x_min":0,"x_max":0,"o":"m 599 1274 b 619 1354 565 1301 610 1357 b 1044 1303 753 1321 960 1328 b 1057 1236 1079 1293 1069 1229 b 599 1274 982 1275 644 1236 m 968 1092 b 1082 985 972 1125 1082 1044 b 690 -58 1082 890 756 100 b 574 53 678 -89 574 14 b 815 660 574 142 704 407 b 158 -18 654 379 357 -18 b 42 151 104 -18 42 39 b 444 1186 42 264 426 997 b 567 1069 447 1211 567 1167 b 194 121 567 978 186 196 b 218 97 196 108 200 97 b 968 1092 403 97 858 797 "},"":{"ha":1026,"x_min":0,"x_max":0,"o":"m 726 -247 b 721 -286 739 -247 735 -272 b 649 -315 704 -303 676 -315 b 532 -194 586 -315 532 -258 b 625 -28 532 -139 565 -78 b 574 53 599 0 574 33 b 815 660 574 142 704 407 b 158 -18 654 379 357 -18 b 42 151 104 -18 42 39 b 444 1186 42 264 426 997 b 567 1069 447 1211 567 1167 b 194 121 567 978 186 196 b 218 97 196 108 200 97 b 968 1092 403 97 858 797 b 1082 985 972 1125 1082 1044 b 690 -58 1082 890 756 100 b 681 -64 689 -62 685 -64 b 646 -175 658 -108 646 -146 b 726 -247 646 -232 669 -262 "},"":{"ha":1026,"x_min":0,"x_max":0,"o":"m 838 1210 b 714 1329 747 1210 714 1267 b 911 1519 714 1446 813 1539 b 943 1483 944 1515 951 1483 b 810 1325 871 1483 810 1388 b 860 1271 810 1293 824 1271 b 967 1410 919 1271 967 1347 b 957 1453 967 1425 964 1440 b 979 1465 954 1460 965 1465 b 1026 1410 1008 1465 1026 1444 b 838 1210 1026 1340 968 1210 m 968 1092 b 1082 985 972 1125 1082 1044 b 690 -58 1082 890 756 100 b 574 53 678 -89 574 14 b 815 660 574 142 704 407 b 158 -18 654 379 357 -18 b 42 151 104 -18 42 39 b 444 1186 42 264 426 997 b 567 1069 447 1211 567 1167 b 194 121 567 978 186 196 b 218 97 196 108 200 97 b 968 1092 403 97 858 797 "},"":{"ha":874,"x_min":0,"x_max":0,"o":"m 186 -32 b 42 103 151 -32 42 0 b 274 1174 42 332 299 918 b 449 1071 271 1207 449 1150 b 238 106 449 886 143 106 b 924 1226 329 106 928 1082 b 1040 1150 922 1260 1040 1226 b 285 15 1040 940 508 226 b 186 -32 251 -17 218 -32 "},"":{"ha":1397,"x_min":0,"x_max":0,"o":"m 838 -69 b 638 101 783 -69 638 -44 b 718 619 638 247 706 582 b 692 596 731 657 713 632 b 285 1 671 560 422 117 b 186 -46 249 -29 218 -46 b 42 89 151 -46 42 -14 b 274 1174 42 332 296 918 b 449 1071 271 1208 449 1156 b 238 92 449 886 143 92 b 828 1043 332 92 810 1006 b 971 956 846 1081 985 1014 b 849 50 899 654 760 50 b 1442 1222 940 50 1460 1079 b 1564 1156 1438 1256 1558 1232 b 933 -22 1576 976 1108 171 b 838 -69 907 -50 863 -69 "},"":{"ha":1397,"x_min":0,"x_max":0,"o":"m 1028 1247 b 946 1274 1000 1224 931 1261 b 1069 1458 1003 1319 1029 1414 b 1179 1413 1108 1501 1200 1422 b 1028 1247 1118 1382 1088 1296 m 838 -69 b 638 101 783 -69 638 -44 b 718 619 638 247 706 582 b 692 596 731 657 713 632 b 285 1 671 560 422 117 b 186 -46 249 -29 218 -46 b 42 89 151 -46 42 -14 b 274 1174 42 332 296 918 b 449 1071 271 1208 449 1156 b 238 92 449 886 143 92 b 828 1043 332 92 810 1006 b 971 956 846 1081 985 1014 b 849 50 899 654 760 50 b 1442 1222 940 50 1460 1079 b 1564 1156 1438 1256 1558 1232 b 933 -22 1576 976 1108 171 b 838 -69 907 -50 863 -69 "},"":{"ha":1397,"x_min":0,"x_max":0,"o":"m 1129 1235 b 1036 1247 1135 1222 1053 1206 b 1018 1360 1025 1276 1021 1346 b 989 1364 1015 1375 1008 1374 b 879 1268 964 1351 906 1301 b 857 1318 874 1261 826 1283 b 986 1447 879 1343 971 1431 b 1092 1418 1003 1465 1088 1443 b 1129 1235 1096 1392 1103 1296 m 838 -69 b 638 101 783 -69 638 -44 b 718 619 638 247 706 582 b 692 596 731 657 713 632 b 285 1 671 560 422 117 b 186 -46 249 -29 218 -46 b 42 89 151 -46 42 -14 b 274 1174 42 332 296 918 b 449 1071 271 1208 449 1156 b 238 92 449 886 143 92 b 828 1043 332 92 810 1006 b 971 956 846 1081 985 1014 b 849 50 899 654 760 50 b 1442 1222 940 50 1460 1079 b 1564 1156 1438 1256 1558 1232 b 933 -22 1576 976 1108 171 b 838 -69 907 -50 863 -69 "},"":{"ha":1397,"x_min":0,"x_max":0,"o":"m 892 1283 b 835 1340 861 1283 835 1306 b 935 1458 835 1385 861 1458 b 994 1397 981 1458 994 1426 b 892 1283 994 1368 971 1283 m 1128 1256 b 1071 1313 1097 1256 1071 1278 b 1171 1431 1071 1357 1097 1431 b 1231 1369 1217 1431 1231 1399 b 1128 1256 1231 1340 1207 1256 m 838 -69 b 638 101 783 -69 638 -44 b 718 619 638 247 706 582 b 692 596 731 657 713 632 b 285 1 671 560 422 117 b 186 -46 249 -29 218 -46 b 42 89 151 -46 42 -14 b 274 1174 42 332 296 918 b 449 1071 271 1208 449 1156 b 238 92 449 886 143 92 b 828 1043 332 92 810 1006 b 971 956 846 1081 985 1014 b 849 50 899 654 760 50 b 1442 1222 940 50 1460 1079 b 1564 1156 1438 1256 1558 1232 b 933 -22 1576 976 1108 171 b 838 -69 907 -50 863 -69 "},"":{"ha":1397,"x_min":0,"x_max":0,"o":"m 1022 1250 b 933 1460 1013 1299 933 1403 b 1043 1510 933 1507 1043 1540 b 1097 1294 1043 1446 1089 1357 b 1022 1250 1103 1250 1025 1236 m 838 -69 b 638 101 783 -69 638 -44 b 718 619 638 247 706 582 b 692 596 731 657 713 632 b 285 1 671 560 422 117 b 186 -46 249 -29 218 -46 b 42 89 151 -46 42 -14 b 274 1174 42 332 296 918 b 449 1071 271 1208 449 1156 b 238 92 449 886 143 92 b 828 1043 332 92 810 1006 b 971 956 846 1081 985 1014 b 849 50 899 654 760 50 b 1442 1222 940 50 1460 1079 b 1564 1156 1438 1256 1558 1232 b 933 -22 1576 976 1108 171 b 838 -69 907 -50 863 -69 "},"":{"ha":833,"x_min":0,"x_max":0,"o":"m 914 1082 b 1008 993 1007 1082 1024 993 b 556 628 940 993 750 828 b 690 0 597 365 643 93 b 507 -8 707 -33 547 -110 b 414 478 482 53 451 256 b 42 -33 214 256 42 32 b -28 8 42 -54 -28 -43 b 393 604 -28 71 174 347 b 260 1161 353 843 307 1076 b 458 1189 247 1183 429 1275 b 535 764 479 1129 504 960 b 914 1082 699 943 851 1082 "},"":{"ha":961,"x_min":0,"x_max":0,"o":"m 999 1122 b 1092 1003 1044 1096 1092 1056 b 792 257 1092 919 918 538 b 215 -279 667 -21 517 -279 b 68 -215 147 -279 88 -256 b 90 -133 50 -178 85 -125 b 200 -171 104 -154 147 -171 b 669 310 421 -171 567 90 b 825 651 718 414 774 533 b 214 101 667 394 411 101 b 88 267 124 101 61 158 b 426 1196 115 383 406 1007 b 549 1079 429 1221 549 1176 b 268 304 549 988 268 368 b 303 264 268 279 276 264 b 978 1110 467 264 868 815 b 999 1122 979 1121 989 1128 "},"":{"ha":961,"x_min":0,"x_max":0,"o":"m 869 1247 b 788 1274 842 1224 772 1261 b 911 1458 844 1319 871 1414 b 1021 1413 950 1501 1042 1422 b 869 1247 960 1382 929 1296 m 999 1122 b 1092 1003 1044 1096 1092 1056 b 792 257 1092 919 918 538 b 215 -279 667 -21 517 -279 b 68 -215 147 -279 88 -256 b 90 -133 50 -178 85 -125 b 200 -171 104 -154 147 -171 b 669 310 421 -171 567 90 b 825 651 718 414 774 533 b 214 101 667 394 411 101 b 88 267 124 101 61 158 b 426 1196 115 383 406 1007 b 549 1079 429 1221 549 1176 b 268 304 549 988 268 368 b 303 264 268 279 276 264 b 978 1110 467 264 868 815 b 999 1122 979 1121 989 1128 "},"":{"ha":961,"x_min":0,"x_max":0,"o":"m 721 1268 b 699 1318 715 1261 668 1283 b 828 1447 721 1343 813 1431 b 933 1418 844 1465 929 1443 b 971 1235 938 1392 944 1296 b 878 1247 976 1222 894 1206 b 860 1360 867 1276 863 1346 b 831 1364 857 1375 850 1374 b 721 1268 806 1351 747 1301 m 999 1122 b 1092 1003 1044 1096 1092 1056 b 792 257 1092 919 918 538 b 215 -279 667 -21 517 -279 b 68 -215 147 -279 88 -256 b 90 -133 50 -178 85 -125 b 200 -171 104 -154 147 -171 b 669 310 421 -171 567 90 b 825 651 718 414 774 533 b 214 101 667 394 411 101 b 88 267 124 101 61 158 b 426 1196 115 383 406 1007 b 549 1079 429 1221 549 1176 b 268 304 549 988 268 368 b 303 264 268 279 276 264 b 978 1110 467 264 868 815 b 999 1122 979 1121 989 1128 "},"":{"ha":961,"x_min":0,"x_max":0,"o":"m 733 1283 b 676 1340 703 1283 676 1306 b 776 1458 676 1385 703 1458 b 836 1397 822 1458 836 1426 b 733 1283 836 1368 813 1283 m 969 1256 b 913 1313 939 1256 913 1278 b 1013 1431 913 1357 939 1431 b 1072 1369 1058 1431 1072 1399 b 969 1256 1072 1340 1049 1256 m 999 1122 b 1092 1003 1044 1096 1092 1056 b 792 257 1092 919 918 538 b 215 -279 667 -21 517 -279 b 68 -215 147 -279 88 -256 b 90 -133 50 -178 85 -125 b 200 -171 104 -154 147 -171 b 669 310 421 -171 567 90 b 825 651 718 414 774 533 b 214 101 667 394 411 101 b 88 267 124 101 61 158 b 426 1196 115 383 406 1007 b 549 1079 429 1221 549 1176 b 268 304 549 988 268 368 b 303 264 268 279 276 264 b 978 1110 467 264 868 815 b 999 1122 979 1121 989 1128 "},"":{"ha":961,"x_min":0,"x_max":0,"o":"m 939 1294 b 864 1250 944 1250 867 1236 b 775 1460 854 1299 775 1403 b 885 1510 775 1507 885 1540 b 939 1294 885 1446 931 1357 m 999 1122 b 1092 1003 1044 1096 1092 1056 b 792 257 1092 919 918 538 b 215 -279 667 -21 517 -279 b 68 -215 147 -279 88 -256 b 90 -133 50 -178 85 -125 b 200 -171 104 -154 147 -171 b 669 310 421 -171 567 90 b 825 651 718 414 774 533 b 214 101 667 394 411 101 b 88 267 124 101 61 158 b 426 1196 115 383 406 1007 b 549 1079 429 1221 549 1176 b 268 304 549 988 268 368 b 303 264 268 279 276 264 b 978 1110 467 264 868 815 b 999 1122 979 1121 989 1128 "},"":{"ha":917,"x_min":0,"x_max":0,"o":"m 758 -68 b 646 -19 749 -58 714 -33 b 88 -22 519 7 314 17 b 0 128 56 -28 -7 83 b 839 1022 7 172 810 996 b 857 1065 868 1049 889 1065 b 365 990 792 1065 603 971 b 325 1154 226 1001 307 1168 b 438 1117 349 1136 369 1126 b 940 1169 635 1089 883 1169 b 1018 993 997 1169 1060 1033 b 208 107 915 893 456 399 b 225 79 193 89 192 76 b 700 115 324 88 533 143 b 801 17 765 104 801 83 b 758 -68 801 -33 772 -82 "},"":{"ha":917,"x_min":0,"x_max":0,"o":"m 765 1247 b 683 1274 738 1224 668 1261 b 807 1458 740 1319 767 1414 b 917 1413 846 1501 938 1422 b 765 1247 856 1382 825 1296 m 758 -68 b 646 -19 749 -58 714 -33 b 88 -22 519 7 314 17 b 0 128 56 -28 -7 83 b 839 1022 7 172 810 996 b 857 1065 868 1049 889 1065 b 365 990 792 1065 603 971 b 325 1154 226 1001 307 1168 b 438 1117 349 1136 369 1126 b 940 1169 635 1089 883 1169 b 1018 993 997 1169 1060 1033 b 208 107 915 893 456 399 b 225 79 193 89 192 76 b 700 115 324 88 533 143 b 801 17 765 104 801 83 b 758 -68 801 -33 772 -82 "},"":{"ha":917,"x_min":0,"x_max":0,"o":"m 771 1244 b 664 1265 758 1225 668 1242 b 610 1444 658 1292 650 1372 b 704 1440 604 1457 683 1481 b 732 1329 718 1414 728 1344 b 761 1328 736 1314 743 1318 b 863 1433 785 1342 836 1401 b 889 1385 868 1439 915 1424 b 771 1244 871 1357 783 1263 m 758 -68 b 646 -19 749 -58 714 -33 b 88 -22 519 7 314 17 b 0 128 56 -28 -7 83 b 839 1022 7 172 810 996 b 857 1065 868 1049 889 1065 b 365 990 792 1065 603 971 b 325 1154 226 1001 307 1168 b 438 1117 349 1136 369 1126 b 940 1169 635 1089 883 1169 b 1018 993 997 1169 1060 1033 b 208 107 915 893 456 399 b 225 79 193 89 192 76 b 700 115 324 88 533 143 b 801 17 765 104 801 83 b 758 -68 801 -33 772 -82 "},"":{"ha":917,"x_min":0,"x_max":0,"o":"m 771 1265 b 708 1328 738 1265 708 1290 b 818 1458 708 1378 738 1458 b 885 1392 868 1458 885 1424 b 771 1265 885 1360 858 1265 m 758 -68 b 646 -19 749 -58 714 -33 b 88 -22 519 7 314 17 b 0 128 56 -28 -7 83 b 839 1022 7 172 810 996 b 857 1065 868 1049 889 1065 b 365 990 792 1065 603 971 b 325 1154 226 1001 307 1168 b 438 1117 349 1136 369 1126 b 940 1169 635 1089 883 1169 b 1018 993 997 1169 1060 1033 b 208 107 915 893 456 399 b 225 79 193 89 192 76 b 700 115 324 88 533 143 b 801 17 765 104 801 83 b 758 -68 801 -33 772 -82 "},"":{"ha":965,"x_min":0,"x_max":0,"o":"m 939 501 b 956 428 972 492 968 422 b 804 438 929 439 875 440 b 701 -122 750 222 701 3 b 776 -237 701 -193 732 -228 b 671 -300 789 -240 764 -315 b 531 -110 567 -283 531 -207 b 631 425 531 19 576 224 b 303 397 521 415 401 403 b 93 -49 192 224 101 56 b 0 22 90 -85 0 -49 b 192 393 0 86 81 228 b 93 411 144 394 110 400 b 108 515 54 438 99 519 b 256 486 147 500 199 490 b 710 1076 403 694 582 922 b 435 1090 636 1081 536 1090 b 25 803 203 1090 25 981 b 93 621 25 704 60 643 b 39 597 126 599 85 585 b -108 835 -35 617 -108 721 b 450 1156 -108 1046 135 1156 b 792 1146 586 1156 722 1140 b 826 1156 806 1151 817 1156 b 958 1051 861 1156 958 1104 b 822 507 958 1000 889 763 b 939 501 875 508 917 508 m 360 482 b 649 494 454 482 557 489 b 804 1010 715 731 788 947 b 760 1013 818 1061 789 1046 b 360 482 740 990 538 743 "},"":{"ha":965,"x_min":0,"x_max":0,"o":"m 1003 1474 b 1113 1428 1042 1517 1133 1438 b 961 1263 1051 1397 1021 1311 b 879 1289 933 1239 864 1276 b 1003 1474 936 1335 963 1429 m 939 501 b 956 428 972 492 968 422 b 804 438 929 439 875 440 b 701 -122 750 222 701 3 b 776 -237 701 -193 732 -228 b 671 -300 789 -240 764 -315 b 531 -110 567 -283 531 -207 b 631 425 531 19 576 224 b 303 397 521 415 401 403 b 93 -49 192 224 101 56 b 0 22 90 -85 0 -49 b 192 393 0 86 81 228 b 93 411 144 394 110 400 b 108 515 54 438 99 519 b 256 486 147 500 199 490 b 710 1076 403 694 582 922 b 435 1090 636 1081 536 1090 b 25 803 203 1090 25 981 b 93 621 25 704 60 643 b 39 597 126 599 85 585 b -108 835 -35 617 -108 721 b 450 1156 -108 1046 135 1156 b 792 1146 586 1156 722 1140 b 826 1156 806 1151 817 1156 b 958 1051 861 1156 958 1104 b 822 507 958 1000 889 763 b 939 501 875 508 917 508 m 360 482 b 649 494 454 482 557 489 b 804 1010 715 731 788 947 b 760 1013 818 1061 789 1046 b 360 482 740 990 538 743 "},"":{"ha":965,"x_min":0,"x_max":0,"o":"m 1049 1415 b 1107 1393 1050 1428 1113 1426 b 939 1274 1099 1349 1049 1274 b 764 1415 818 1274 764 1381 b 865 1461 764 1481 865 1478 b 961 1335 865 1410 885 1335 b 1049 1415 1013 1335 1043 1381 m 939 501 b 956 428 972 492 968 422 b 804 438 929 439 875 440 b 701 -122 750 222 701 3 b 776 -237 701 -193 732 -228 b 671 -300 789 -240 764 -315 b 531 -110 567 -283 531 -207 b 631 425 531 19 576 224 b 303 397 521 415 401 403 b 93 -49 192 224 101 56 b 0 22 90 -85 0 -49 b 192 393 0 86 81 228 b 93 411 144 394 110 400 b 108 515 54 438 99 519 b 256 486 147 500 199 490 b 710 1076 403 694 582 922 b 435 1090 636 1081 536 1090 b 25 803 203 1090 25 981 b 93 621 25 704 60 643 b 39 597 126 599 85 585 b -108 835 -35 617 -108 721 b 450 1156 -108 1046 135 1156 b 792 1146 586 1156 722 1140 b 826 1156 806 1151 817 1156 b 958 1051 861 1156 958 1104 b 822 507 958 1000 889 763 b 939 501 875 508 917 508 m 360 482 b 649 494 454 482 557 489 b 804 1010 715 731 788 947 b 760 1013 818 1061 789 1046 b 360 482 740 990 538 743 "},"":{"ha":965,"x_min":0,"x_max":0,"o":"m 1063 1250 b 969 1263 1068 1238 986 1221 b 951 1375 958 1292 954 1361 b 922 1379 949 1390 942 1389 b 813 1283 897 1367 839 1317 b 790 1333 807 1276 760 1299 b 919 1463 813 1358 904 1446 b 1025 1433 936 1481 1021 1458 b 1063 1250 1029 1407 1036 1311 m 939 501 b 956 428 972 492 968 422 b 804 438 929 439 875 440 b 701 -122 750 222 701 3 b 776 -237 701 -193 732 -228 b 671 -300 789 -240 764 -315 b 531 -110 567 -283 531 -207 b 631 425 531 19 576 224 b 303 397 521 415 401 403 b 93 -49 192 224 101 56 b 0 22 90 -85 0 -49 b 192 393 0 86 81 228 b 93 411 144 394 110 400 b 108 515 54 438 99 519 b 256 486 147 500 199 490 b 710 1076 403 694 582 922 b 435 1090 636 1081 536 1090 b 25 803 203 1090 25 981 b 93 621 25 704 60 643 b 39 597 126 599 85 585 b -108 835 -35 617 -108 721 b 450 1156 -108 1046 135 1156 b 792 1146 586 1156 722 1140 b 826 1156 806 1151 817 1156 b 958 1051 861 1156 958 1104 b 822 507 958 1000 889 763 b 939 501 875 508 917 508 m 360 482 b 649 494 454 482 557 489 b 804 1010 715 731 788 947 b 760 1013 818 1061 789 1046 b 360 482 740 990 538 743 "},"":{"ha":965,"x_min":0,"x_max":0,"o":"m 825 1299 b 768 1356 794 1299 768 1321 b 868 1474 768 1400 794 1474 b 928 1413 914 1474 928 1442 b 825 1299 928 1383 904 1299 m 1104 1446 b 1164 1385 1150 1446 1164 1414 b 1061 1271 1164 1356 1140 1271 b 1004 1328 1031 1271 1004 1293 b 1104 1446 1004 1372 1031 1446 m 939 501 b 956 428 972 492 968 422 b 804 438 929 439 875 440 b 701 -122 750 222 701 3 b 776 -237 701 -193 732 -228 b 671 -300 789 -240 764 -315 b 531 -110 567 -283 531 -207 b 631 425 531 19 576 224 b 303 397 521 415 401 403 b 93 -49 192 224 101 56 b 0 22 90 -85 0 -49 b 192 393 0 86 81 228 b 93 411 144 394 110 400 b 108 515 54 438 99 519 b 256 486 147 500 199 490 b 710 1076 403 694 582 922 b 435 1090 636 1081 536 1090 b 25 803 203 1090 25 981 b 93 621 25 704 60 643 b 39 597 126 599 85 585 b -108 835 -35 617 -108 721 b 450 1156 -108 1046 135 1156 b 792 1146 586 1156 722 1140 b 826 1156 806 1151 817 1156 b 958 1051 861 1156 958 1104 b 822 507 958 1000 889 763 b 939 501 875 508 917 508 m 360 482 b 649 494 454 482 557 489 b 804 1010 715 731 788 947 b 760 1013 818 1061 789 1046 b 360 482 740 990 538 743 "},"":{"ha":965,"x_min":0,"x_max":0,"o":"m 1031 1310 b 956 1265 1036 1265 958 1251 b 867 1475 946 1314 867 1418 b 976 1525 867 1522 976 1556 b 1031 1310 976 1461 1022 1372 m 939 501 b 956 428 972 492 968 422 b 804 438 929 439 875 440 b 701 -122 750 222 701 3 b 776 -237 701 -193 732 -228 b 671 -300 789 -240 764 -315 b 531 -110 567 -283 531 -207 b 631 425 531 19 576 224 b 303 397 521 415 401 403 b 93 -49 192 224 101 56 b 0 22 90 -85 0 -49 b 192 393 0 86 81 228 b 93 411 144 394 110 400 b 108 515 54 438 99 519 b 256 486 147 500 199 490 b 710 1076 403 694 582 922 b 435 1090 636 1081 536 1090 b 25 803 203 1090 25 981 b 93 621 25 704 60 643 b 39 597 126 599 85 585 b -108 835 -35 617 -108 721 b 450 1156 -108 1046 135 1156 b 792 1146 586 1156 722 1140 b 826 1156 806 1151 817 1156 b 958 1051 861 1156 958 1104 b 822 507 958 1000 889 763 b 939 501 875 508 917 508 m 360 482 b 649 494 454 482 557 489 b 804 1010 715 731 788 947 b 760 1013 818 1061 789 1046 b 360 482 740 990 538 743 "},"":{"ha":965,"x_min":0,"x_max":0,"o":"m 1146 1318 b 1158 1251 1181 1308 1171 1244 b 700 1289 1083 1290 746 1251 b 721 1369 667 1317 711 1372 b 1146 1318 854 1336 1061 1343 m 939 501 b 956 428 972 492 968 422 b 804 438 929 439 875 440 b 701 -122 750 222 701 3 b 776 -237 701 -193 732 -228 b 671 -300 789 -240 764 -315 b 531 -110 567 -283 531 -207 b 631 425 531 19 576 224 b 303 397 521 415 401 403 b 93 -49 192 224 101 56 b 0 22 90 -85 0 -49 b 192 393 0 86 81 228 b 93 411 144 394 110 400 b 108 515 54 438 99 519 b 256 486 147 500 199 490 b 710 1076 403 694 582 922 b 435 1090 636 1081 536 1090 b 25 803 203 1090 25 981 b 93 621 25 704 60 643 b 39 597 126 599 85 585 b -108 835 -35 617 -108 721 b 450 1156 -108 1046 135 1156 b 792 1146 586 1156 722 1140 b 826 1156 806 1151 817 1156 b 958 1051 861 1156 958 1104 b 822 507 958 1000 889 763 b 939 501 875 508 917 508 m 360 482 b 649 494 454 482 557 489 b 804 1010 715 731 788 947 b 760 1013 818 1061 789 1046 b 360 482 740 990 538 743 "},"":{"ha":965,"x_min":0,"x_max":0,"o":"m 939 501 b 956 428 972 492 968 422 b 804 438 929 439 875 440 b 701 -122 750 222 701 3 b 776 -237 701 -193 732 -228 b 671 -300 789 -240 764 -315 l 651 -296 b 596 -444 615 -356 596 -407 b 676 -517 596 -501 619 -532 b 671 -556 689 -517 685 -542 b 599 -585 654 -572 626 -585 b 482 -464 536 -585 482 -528 b 603 -275 482 -401 525 -329 b 531 -110 550 -242 531 -182 b 631 425 531 19 576 224 b 303 397 521 415 401 403 b 93 -49 192 224 101 56 b 0 22 90 -85 0 -49 b 192 393 0 86 81 228 b 93 411 144 394 110 400 b 108 515 54 438 99 519 b 256 486 147 500 199 490 b 710 1076 403 694 582 922 b 435 1090 636 1081 536 1090 b 25 803 203 1090 25 981 b 93 621 25 704 60 643 b 39 597 126 599 85 585 b -108 835 -35 617 -108 721 b 450 1156 -108 1046 135 1156 b 792 1146 586 1156 722 1140 b 826 1156 806 1151 817 1156 b 958 1051 861 1156 958 1104 b 822 507 958 1000 889 763 b 939 501 875 508 917 508 m 360 482 b 649 494 454 482 557 489 b 804 1010 715 731 788 947 b 760 1013 818 1061 789 1046 b 360 482 740 990 538 743 "},"":{"ha":965,"x_min":0,"x_max":0,"o":"m 1081 1481 b 1128 1425 1110 1481 1128 1460 b 939 1225 1128 1356 1069 1225 b 815 1344 849 1225 815 1282 b 1013 1535 815 1461 914 1554 b 1044 1499 1046 1531 1053 1499 b 911 1340 972 1499 911 1403 b 961 1286 911 1308 925 1286 b 1068 1425 1021 1286 1068 1363 b 1058 1468 1068 1440 1065 1456 b 1081 1481 1056 1475 1067 1481 m 939 501 b 956 428 972 492 968 422 b 804 438 929 439 875 440 b 701 -122 750 222 701 3 b 776 -237 701 -193 732 -228 b 671 -300 789 -240 764 -315 b 531 -110 567 -283 531 -207 b 631 425 531 19 576 224 b 303 397 521 415 401 403 b 93 -49 192 224 101 56 b 0 22 90 -85 0 -49 b 192 393 0 86 81 228 b 93 411 144 394 110 400 b 108 515 54 438 99 519 b 256 486 147 500 199 490 b 710 1076 403 694 582 922 b 435 1090 636 1081 536 1090 b 25 803 203 1090 25 981 b 93 621 25 704 60 643 b 39 597 126 599 85 585 b -108 835 -35 617 -108 721 b 450 1156 -108 1046 135 1156 b 792 1146 586 1156 722 1140 b 826 1156 806 1151 817 1156 b 958 1051 861 1156 958 1104 b 822 507 958 1000 889 763 b 939 501 875 508 917 508 m 360 482 b 649 494 454 482 557 489 b 804 1010 715 731 788 947 b 760 1013 818 1061 789 1046 b 360 482 740 990 538 743 "},"":{"ha":965,"x_min":0,"x_max":0,"o":"m 1050 1294 b 1042 1229 1057 1303 1061 1257 b 943 1204 1021 1200 982 1193 b 794 1317 881 1221 850 1301 b 733 1296 772 1322 750 1317 b 732 1361 726 1286 713 1328 b 819 1396 749 1389 782 1401 b 989 1286 893 1385 939 1308 b 1050 1294 1010 1276 1039 1281 m 939 501 b 956 428 972 492 968 422 b 804 438 929 439 875 440 b 701 -122 750 222 701 3 b 776 -237 701 -193 732 -228 b 671 -300 789 -240 764 -315 b 531 -110 567 -283 531 -207 b 631 425 531 19 576 224 b 303 397 521 415 401 403 b 93 -49 192 224 101 56 b 0 22 90 -85 0 -49 b 192 393 0 86 81 228 b 93 411 144 394 110 400 b 108 515 54 438 99 519 b 256 486 147 500 199 490 b 710 1076 403 694 582 922 b 435 1090 636 1081 536 1090 b 25 803 203 1090 25 981 b 93 621 25 704 60 643 b 39 597 126 599 85 585 b -108 835 -35 617 -108 721 b 450 1156 -108 1046 135 1156 b 792 1146 586 1156 722 1140 b 826 1156 806 1151 817 1156 b 958 1051 861 1156 958 1104 b 822 507 958 1000 889 763 b 939 501 875 508 917 508 m 360 482 b 649 494 454 482 557 489 b 804 1010 715 731 788 947 b 760 1013 818 1061 789 1046 b 360 482 740 990 538 743 "},"":{"ha":1092,"x_min":0,"x_max":0,"o":"m 1147 814 b 668 321 1147 571 924 403 b 871 88 778 297 871 207 b 417 -281 871 -143 658 -281 b 68 -60 243 -281 68 -194 b 133 79 68 -3 93 43 b 131 92 132 83 131 88 b 563 1079 131 125 467 792 b 106 642 354 1057 106 918 b 188 446 106 529 154 468 b 160 418 210 432 192 418 b -28 674 51 418 -28 551 b 585 1163 -28 990 296 1146 b 586 1171 585 1165 586 1168 b 607 1183 588 1182 597 1189 b 638 1164 617 1178 628 1171 b 1147 814 944 1164 1147 1040 m 410 351 b 975 829 714 378 975 592 b 699 1078 975 953 906 1057 b 700 1064 700 1074 700 1069 b 410 351 700 1026 539 650 m 481 276 b 371 264 443 271 407 267 b 325 158 356 226 339 192 b 432 157 361 163 397 163 b 490 89 489 149 499 88 b 282 60 411 103 336 92 b 247 -19 263 14 249 -15 b 213 -14 243 -29 229 -25 b 200 -75 204 -32 200 -53 b 375 -197 200 -160 281 -197 b 743 117 563 -197 743 -65 b 497 276 743 240 643 276 "},"":{"ha":792,"x_min":0,"x_max":0,"o":"m 383 -228 b 0 249 126 -228 0 -47 b 658 1168 0 738 347 1168 b 944 911 807 1168 944 1065 b 685 636 944 772 818 636 b 583 685 615 636 583 668 b 601 696 583 693 590 697 b 821 967 722 683 821 832 b 707 1101 821 1047 783 1101 b 146 222 528 1101 146 765 b 397 -146 146 -25 254 -146 b 689 83 538 -146 642 -28 b 747 -43 707 126 783 4 b 383 -228 679 -140 563 -228 "},"":{"ha":792,"x_min":0,"x_max":0,"o":"m 786 1269 b 704 1296 758 1246 689 1283 b 828 1481 761 1342 788 1436 b 938 1435 867 1524 958 1444 b 786 1269 876 1404 846 1318 m 383 -228 b 0 249 126 -228 0 -47 b 658 1168 0 738 347 1168 b 944 911 807 1168 944 1065 b 685 636 944 772 818 636 b 583 685 615 636 583 668 b 601 696 583 693 590 697 b 821 967 722 683 821 832 b 707 1101 821 1047 783 1101 b 146 222 528 1101 146 765 b 397 -146 146 -25 254 -146 b 689 83 538 -146 642 -28 b 747 -43 707 126 783 4 b 383 -228 679 -140 563 -228 "},"":{"ha":792,"x_min":0,"x_max":0,"o":"m 792 1267 b 685 1288 779 1247 689 1264 b 631 1467 679 1314 671 1394 b 725 1463 625 1479 704 1503 b 753 1351 739 1436 749 1367 b 782 1350 757 1336 764 1340 b 883 1456 806 1364 857 1424 b 910 1407 889 1461 936 1446 b 792 1267 892 1379 804 1285 m 383 -228 b 0 249 126 -228 0 -47 b 658 1168 0 738 347 1168 b 944 911 807 1168 944 1065 b 685 636 944 772 818 636 b 583 685 615 636 583 668 b 601 696 583 693 590 697 b 821 967 722 683 821 832 b 707 1101 821 1047 783 1101 b 146 222 528 1101 146 765 b 397 -146 146 -25 254 -146 b 689 83 538 -146 642 -28 b 747 -43 707 126 783 4 b 383 -228 679 -140 563 -228 "},"":{"ha":792,"x_min":0,"x_max":0,"o":"m 601 696 b 821 967 722 683 821 832 b 707 1101 821 1047 783 1101 b 146 222 528 1101 146 765 b 397 -146 146 -25 254 -146 b 689 83 538 -146 642 -28 b 747 -43 707 126 783 4 b 424 -226 685 -133 581 -214 b 307 -461 471 -340 422 -461 b 210 -389 257 -461 221 -425 b 226 -356 203 -365 218 -343 b 351 -226 258 -404 357 -365 b 0 249 117 -212 0 -35 b 658 1168 0 738 347 1168 b 944 911 807 1168 944 1065 b 685 636 944 772 818 636 b 583 685 615 636 583 668 b 601 696 583 693 590 697 "},"":{"ha":792,"x_min":0,"x_max":0,"o":"m 792 1288 b 729 1350 758 1288 729 1313 b 839 1481 729 1400 758 1481 b 906 1414 889 1481 906 1446 b 792 1288 906 1382 879 1288 m 383 -228 b 0 249 126 -228 0 -47 b 658 1168 0 738 347 1168 b 944 911 807 1168 944 1065 b 685 636 944 772 818 636 b 583 685 615 636 583 668 b 601 696 583 693 590 697 b 821 967 722 683 821 832 b 707 1101 821 1047 783 1101 b 146 222 528 1101 146 765 b 397 -146 146 -25 254 -146 b 689 83 538 -146 642 -28 b 747 -43 707 126 783 4 b 383 -228 679 -140 563 -228 "},"":{"ha":1279,"x_min":0,"x_max":0,"o":"m 725 1164 b 1251 654 976 1164 1251 1068 b 407 -246 1251 168 890 -246 b -8 36 190 -246 -8 -139 b 294 306 -8 186 136 282 b 632 1078 400 535 568 889 b 139 642 383 1054 139 915 b 221 446 139 529 188 468 b 231 433 228 442 231 438 b 193 418 231 424 213 418 b 167 422 183 418 174 419 b 6 674 138 435 6 496 b 654 1163 6 988 322 1143 b 656 1171 654 1165 656 1168 b 676 1183 657 1182 667 1189 b 707 1164 686 1178 697 1171 l 725 1164 m 364 -168 b 1079 679 746 -168 1079 274 b 768 1079 1079 924 964 1057 b 769 1064 769 1074 769 1069 b 458 304 769 1025 590 608 b 517 226 515 292 528 224 b 428 236 489 235 458 238 b 317 -19 367 94 321 -10 b 200 92 304 -50 200 53 b 231 167 200 97 211 125 b 136 8 174 126 136 71 b 364 -168 136 -106 242 -168 "},"":{"ha":1279,"x_min":0,"x_max":0,"o":"m 725 1164 b 1251 654 976 1164 1251 1068 b 407 -246 1251 168 890 -246 b -8 36 190 -246 -8 -139 b 294 306 -8 186 136 282 b 438 615 336 394 386 504 b 324 626 383 613 340 615 b 340 708 289 651 331 711 b 471 689 382 697 426 692 b 632 1078 538 836 599 979 b 139 642 383 1054 139 915 b 221 446 139 529 188 468 b 231 433 228 442 231 438 b 193 418 231 424 213 418 b 167 422 183 418 174 419 b 6 674 138 435 6 496 b 654 1163 6 988 322 1143 b 656 1171 654 1165 656 1168 b 676 1183 657 1182 667 1189 b 707 1164 686 1178 697 1171 l 725 1164 m 364 -168 b 1079 679 746 -168 1079 274 b 768 1079 1079 924 964 1057 b 769 1064 769 1074 769 1069 b 622 685 769 1040 704 878 b 725 676 663 685 699 682 b 742 611 761 668 754 606 b 596 622 714 624 658 625 l 458 304 b 517 226 515 292 528 224 b 428 236 489 235 458 238 b 317 -19 367 94 321 -10 b 200 92 304 -50 200 53 b 231 167 200 97 211 125 b 136 8 174 126 136 71 b 364 -168 136 -106 242 -168 "},"":{"ha":1279,"x_min":0,"x_max":0,"o":"m 640 1265 b 586 1444 635 1292 626 1372 b 681 1440 581 1457 660 1481 b 708 1329 694 1414 704 1344 b 738 1328 713 1314 719 1318 b 839 1433 761 1342 813 1401 b 865 1385 844 1439 892 1424 b 747 1244 847 1357 760 1263 b 640 1265 735 1225 644 1242 m 725 1164 b 1251 654 976 1164 1251 1068 b 407 -246 1251 168 890 -246 b -8 36 190 -246 -8 -139 b 294 306 -8 186 136 282 b 632 1078 400 535 568 889 b 139 642 383 1054 139 915 b 221 446 139 529 188 468 b 231 433 228 442 231 438 b 193 418 231 424 213 418 b 167 422 183 418 174 419 b 6 674 138 435 6 496 b 654 1163 6 988 322 1143 b 656 1171 654 1165 656 1168 b 676 1183 657 1182 667 1189 b 707 1164 686 1178 697 1171 l 725 1164 m 364 -168 b 1079 679 746 -168 1079 274 b 768 1079 1079 924 964 1057 b 769 1064 769 1074 769 1069 b 458 304 769 1025 590 608 b 517 226 515 292 528 224 b 428 236 489 235 458 238 b 317 -19 367 94 321 -10 b 200 92 304 -50 200 53 b 231 167 200 97 211 125 b 136 8 174 126 136 71 b 364 -168 136 -106 242 -168 "},"":{"ha":1279,"x_min":0,"x_max":0,"o":"m 725 1164 b 1251 654 976 1164 1251 1068 b 407 -246 1251 168 890 -246 b -8 36 190 -246 -8 -139 b 294 306 -8 186 136 282 b 438 615 336 394 386 504 b 324 626 383 613 340 615 b 340 708 289 651 331 711 b 471 689 382 697 426 692 b 632 1078 538 836 599 979 b 139 642 383 1054 139 915 b 221 446 139 529 188 468 b 231 433 228 442 231 438 b 193 418 231 424 213 418 b 167 422 183 418 174 419 b 6 674 138 435 6 496 b 654 1163 6 988 322 1143 b 656 1171 654 1165 656 1168 b 676 1183 657 1182 667 1189 b 707 1164 686 1178 697 1171 l 725 1164 m 364 -168 b 1079 679 746 -168 1079 274 b 768 1079 1079 924 964 1057 b 769 1064 769 1074 769 1069 b 622 685 769 1040 704 878 b 725 676 663 685 699 682 b 742 611 761 668 754 606 b 596 622 714 624 658 625 l 458 304 b 517 226 515 292 528 224 b 428 236 489 235 458 238 b 317 -19 367 94 321 -10 b 200 92 304 -50 200 53 b 231 167 200 97 211 125 b 136 8 174 126 136 71 b 364 -168 136 -106 242 -168 "},"":{"ha":779,"x_min":0,"x_max":0,"o":"m 610 729 b 799 968 724 717 799 844 b 667 1101 799 1046 751 1101 b 357 722 503 1101 357 911 b 518 494 357 554 465 494 b 622 396 592 494 622 425 b 615 383 622 388 619 383 b 531 389 586 388 557 389 b 133 72 286 389 133 242 b 338 -110 133 -29 196 -110 b 669 97 493 -110 617 -14 b 736 15 679 118 736 69 b 721 -29 736 1 732 -15 b 314 -214 647 -126 515 -214 b -47 79 86 -214 -47 -103 b 314 471 -47 274 93 418 b 192 722 242 521 192 599 b 632 1163 192 969 407 1163 b 922 913 793 1163 922 1074 b 694 669 922 782 822 669 b 592 718 625 669 592 700 b 610 729 592 725 599 731 "},"":{"ha":779,"x_min":0,"x_max":0,"o":"m 763 1268 b 681 1294 735 1244 665 1282 b 804 1479 738 1340 764 1435 b 914 1433 843 1522 935 1443 b 763 1268 853 1403 822 1317 m 610 729 b 799 968 724 717 799 844 b 667 1101 799 1046 751 1101 b 357 722 503 1101 357 911 b 518 494 357 554 465 494 b 622 396 592 494 622 425 b 615 383 622 388 619 383 b 531 389 586 388 557 389 b 133 72 286 389 133 242 b 338 -110 133 -29 196 -110 b 669 97 493 -110 617 -14 b 736 15 679 118 736 69 b 721 -29 736 1 732 -15 b 314 -214 647 -126 515 -214 b -47 79 86 -214 -47 -103 b 314 471 -47 274 93 418 b 192 722 242 521 192 599 b 632 1163 192 969 407 1163 b 922 913 793 1163 922 1074 b 694 669 922 782 822 669 b 592 718 625 669 592 700 b 610 729 592 725 599 731 "},"":{"ha":779,"x_min":0,"x_max":0,"o":"m 661 1286 b 607 1465 656 1313 647 1393 b 701 1461 601 1478 681 1501 b 729 1350 715 1435 725 1365 b 758 1349 733 1335 740 1339 b 860 1454 782 1363 833 1422 b 886 1406 865 1460 913 1444 b 768 1265 868 1378 781 1283 b 661 1286 756 1246 665 1263 m 610 729 b 799 968 724 717 799 844 b 667 1101 799 1046 751 1101 b 357 722 503 1101 357 911 b 518 494 357 554 465 494 b 622 396 592 494 622 425 b 615 383 622 388 619 383 b 531 389 586 388 557 389 b 133 72 286 389 133 242 b 338 -110 133 -29 196 -110 b 669 97 493 -110 617 -14 b 736 15 679 118 736 69 b 721 -29 736 1 732 -15 b 314 -214 647 -126 515 -214 b -47 79 86 -214 -47 -103 b 314 471 -47 274 93 418 b 192 722 242 521 192 599 b 632 1163 192 969 407 1163 b 922 913 793 1163 922 1074 b 694 669 922 782 822 669 b 592 718 625 669 592 700 b 610 729 592 725 599 731 "},"":{"ha":779,"x_min":0,"x_max":0,"o":"m 614 1289 b 592 1339 608 1282 561 1304 b 721 1468 614 1364 706 1451 b 826 1439 738 1486 822 1464 b 864 1256 831 1413 838 1317 b 771 1268 869 1243 788 1226 b 753 1381 760 1297 756 1367 b 724 1385 750 1396 743 1394 b 614 1289 699 1372 640 1322 m 610 729 b 799 968 724 717 799 844 b 667 1101 799 1046 751 1101 b 357 722 503 1101 357 911 b 518 494 357 554 465 494 b 622 396 592 494 622 425 b 615 383 622 388 619 383 b 531 389 586 388 557 389 b 133 72 286 389 133 242 b 338 -110 133 -29 196 -110 b 669 97 493 -110 617 -14 b 736 15 679 118 736 69 b 721 -29 736 1 732 -15 b 314 -214 647 -126 515 -214 b -47 79 86 -214 -47 -103 b 314 471 -47 274 93 418 b 192 722 242 521 192 599 b 632 1163 192 969 407 1163 b 922 913 793 1163 922 1074 b 694 669 922 782 822 669 b 592 718 625 669 592 700 b 610 729 592 725 599 731 "},"":{"ha":779,"x_min":0,"x_max":0,"o":"m 626 1304 b 569 1361 596 1304 569 1326 b 669 1479 569 1406 596 1479 b 729 1418 715 1479 729 1447 b 626 1304 729 1389 706 1304 m 906 1451 b 965 1390 951 1451 965 1419 b 863 1276 965 1361 942 1276 b 806 1333 832 1276 806 1299 b 906 1451 806 1378 832 1451 m 632 1163 b 922 913 793 1163 922 1074 b 694 669 922 782 822 669 b 592 718 625 669 592 700 b 610 729 592 725 599 731 b 799 968 724 717 799 844 b 667 1101 799 1046 751 1101 b 357 722 503 1101 357 911 b 518 494 357 554 465 494 b 622 396 592 494 622 425 b 615 383 622 388 619 383 b 531 389 586 388 557 389 b 133 72 286 389 133 242 b 338 -110 133 -29 196 -110 b 669 97 493 -110 617 -14 b 736 15 679 118 736 69 b 721 -29 736 1 732 -15 b 314 -214 647 -126 515 -214 b -47 79 86 -214 -47 -103 b 314 471 -47 274 93 418 b 192 722 242 521 192 599 b 632 1163 192 969 407 1163 "},"":{"ha":779,"x_min":0,"x_max":0,"o":"m 768 1286 b 706 1349 735 1286 706 1311 b 815 1479 706 1399 735 1479 b 882 1413 865 1479 882 1444 b 768 1286 882 1381 856 1286 m 610 729 b 799 968 724 717 799 844 b 667 1101 799 1046 751 1101 b 357 722 503 1101 357 911 b 518 494 357 554 465 494 b 622 396 592 494 622 425 b 615 383 622 388 619 383 b 531 389 586 388 557 389 b 133 72 286 389 133 242 b 338 -110 133 -29 196 -110 b 669 97 493 -110 617 -14 b 736 15 679 118 736 69 b 721 -29 736 1 732 -15 b 314 -214 647 -126 515 -214 b -47 79 86 -214 -47 -103 b 314 471 -47 274 93 418 b 192 722 242 521 192 599 b 632 1163 192 969 407 1163 b 922 913 793 1163 922 1074 b 694 669 922 782 822 669 b 592 718 625 669 592 700 b 610 729 592 725 599 731 "},"":{"ha":779,"x_min":0,"x_max":0,"o":"m 832 1315 b 757 1271 838 1271 760 1257 b 668 1481 747 1319 668 1424 b 778 1531 668 1528 778 1561 b 832 1315 778 1467 824 1378 m 610 729 b 799 968 724 717 799 844 b 667 1101 799 1046 751 1101 b 357 722 503 1101 357 911 b 518 494 357 554 465 494 b 622 396 592 494 622 425 b 615 383 622 388 619 383 b 531 389 586 388 557 389 b 133 72 286 389 133 242 b 338 -110 133 -29 196 -110 b 669 97 493 -110 617 -14 b 736 15 679 118 736 69 b 721 -29 736 1 732 -15 b 314 -214 647 -126 515 -214 b -47 79 86 -214 -47 -103 b 314 471 -47 274 93 418 b 192 722 242 521 192 599 b 632 1163 192 969 407 1163 b 922 913 793 1163 922 1074 b 694 669 922 782 822 669 b 592 718 625 669 592 700 b 610 729 592 725 599 731 "},"":{"ha":779,"x_min":0,"x_max":0,"o":"m 947 1324 b 960 1257 982 1314 972 1250 b 501 1294 885 1296 547 1257 b 522 1375 468 1322 513 1378 b 947 1324 656 1342 863 1349 m 632 1163 b 922 913 793 1163 922 1074 b 694 669 922 782 822 669 b 592 718 625 669 592 700 b 610 729 592 725 599 731 b 799 968 724 717 799 844 b 667 1101 799 1046 751 1101 b 357 722 503 1101 357 911 b 518 494 357 554 465 494 b 622 396 592 494 622 425 b 615 383 622 388 619 383 b 531 389 586 388 557 389 b 133 72 286 389 133 242 b 338 -110 133 -29 196 -110 b 669 97 493 -110 617 -14 b 736 15 679 118 736 69 b 721 -29 736 1 732 -15 b 314 -214 647 -126 515 -214 b -47 79 86 -214 -47 -103 b 314 471 -47 274 93 418 b 192 722 242 521 192 599 b 632 1163 192 969 407 1163 "},"":{"ha":779,"x_min":0,"x_max":0,"o":"m 610 729 b 799 968 724 717 799 844 b 667 1101 799 1046 751 1101 b 357 722 503 1101 357 911 b 518 494 357 554 465 494 b 622 396 592 494 622 425 b 615 383 622 388 619 383 b 531 389 586 388 557 389 b 133 72 286 389 133 242 b 338 -110 133 -29 196 -110 b 669 97 493 -110 617 -14 b 736 15 679 118 736 69 b 721 -29 736 1 732 -15 b 542 -169 679 -83 621 -135 b 485 -321 504 -231 485 -282 b 565 -393 485 -378 508 -408 b 560 -432 578 -393 574 -418 b 488 -461 543 -449 515 -461 b 371 -340 425 -461 371 -404 b 433 -203 371 -296 393 -247 b 314 -214 396 -210 357 -214 b -47 79 86 -214 -47 -103 b 314 471 -47 274 93 418 b 192 722 242 521 192 599 b 632 1163 192 969 407 1163 b 922 913 793 1163 922 1074 b 694 669 922 782 822 669 b 592 718 625 669 592 700 b 610 729 592 725 599 731 "},"":{"ha":767,"x_min":0,"x_max":0,"o":"m 1104 1140 b 1114 1117 1110 1143 1114 1132 b 1088 1067 1114 1097 1107 1072 b 1039 1063 1076 1064 1060 1063 b 847 1072 992 1063 924 1068 b 849 1054 849 1067 849 1060 b 721 696 849 1000 794 869 b 807 683 754 694 783 690 b 824 617 840 674 836 611 b 693 629 794 629 747 632 b 489 122 629 481 556 306 b 458 -262 431 -29 401 -200 b 406 -285 472 -278 436 -292 b 293 6 310 -262 256 -171 b 507 611 339 219 424 426 b 354 617 435 604 374 600 b 360 715 321 644 350 718 b 546 696 414 700 479 696 b 706 1078 613 843 674 974 l 686 1078 b 46 549 344 1078 46 865 b 122 371 46 479 67 411 b 65 347 143 357 117 328 b -104 613 -46 390 -104 490 b 674 1143 -104 983 281 1143 l 722 1143 b 726 1171 724 1153 725 1161 b 815 1140 731 1199 781 1182 b 1032 1132 907 1138 981 1132 b 1104 1140 1067 1132 1090 1133 "},"":{"ha":928,"x_min":0,"x_max":0,"o":"m 844 -75 b 900 -160 849 -67 900 -99 b 772 -249 900 -197 868 -249 b 568 -212 714 -249 643 -231 b 256 -426 499 -349 413 -426 b 40 -261 139 -426 40 -361 b 310 -119 40 -142 186 -112 b 467 -132 358 -122 413 -128 b 544 71 494 -67 519 6 b 594 204 563 117 579 163 b 290 -33 511 86 400 -33 b 0 333 93 -33 0 111 b 733 1140 0 842 399 1283 b 888 888 835 1096 897 1001 b 611 638 876 753 743 625 b 546 696 528 646 510 700 b 756 888 611 689 722 747 b 674 1100 783 1007 753 1085 b 153 294 526 1128 153 826 b 294 58 153 150 197 58 b 699 539 435 58 556 254 b 719 551 701 550 710 557 b 813 432 765 525 813 485 b 661 10 813 404 738 218 b 601 -143 640 -46 621 -97 b 726 -142 647 -144 689 -146 b 844 -75 792 -135 825 -114 m 267 -357 b 443 -186 343 -358 397 -283 b 335 -175 407 -179 369 -175 b 161 -260 263 -175 153 -190 b 267 -357 165 -301 213 -356 "},"":{"ha":928,"x_min":0,"x_max":0,"o":"m 510 1258 b 335 1400 389 1258 335 1365 b 436 1446 335 1465 436 1463 b 532 1319 436 1394 456 1319 b 619 1400 583 1319 614 1365 b 678 1378 621 1413 683 1411 b 510 1258 669 1333 619 1258 m 844 -75 b 900 -160 849 -67 900 -99 b 772 -249 900 -197 868 -249 b 568 -212 714 -249 643 -231 b 256 -426 499 -349 413 -426 b 40 -261 139 -426 40 -361 b 310 -119 40 -142 186 -112 b 467 -132 358 -122 413 -128 b 544 71 494 -67 519 6 b 594 204 563 117 579 163 b 290 -33 511 86 400 -33 b 0 333 93 -33 0 111 b 733 1140 0 842 399 1283 b 888 888 835 1096 897 1001 b 611 638 876 753 743 625 b 546 696 528 646 510 700 b 756 888 611 689 722 747 b 674 1100 783 1007 753 1085 b 153 294 526 1128 153 826 b 294 58 153 150 197 58 b 699 539 435 58 556 254 b 719 551 701 550 710 557 b 813 432 765 525 813 485 b 661 10 813 404 738 218 b 601 -143 640 -46 621 -97 b 726 -142 647 -144 689 -146 b 844 -75 792 -135 825 -114 m 267 -357 b 443 -186 343 -358 397 -283 b 335 -175 407 -179 369 -175 b 161 -260 263 -175 153 -190 b 267 -357 165 -301 213 -356 "},"":{"ha":928,"x_min":0,"x_max":0,"o":"m 844 -75 b 900 -160 849 -67 900 -99 b 772 -249 900 -197 868 -249 b 568 -212 714 -249 643 -231 b 256 -426 499 -349 413 -426 b 40 -261 139 -426 40 -361 b 310 -119 40 -142 186 -112 b 467 -132 358 -122 413 -128 b 544 71 494 -67 519 6 b 594 204 563 117 579 163 b 290 -33 511 86 400 -33 b 0 333 93 -33 0 111 b 733 1140 0 842 399 1283 b 888 888 835 1096 897 1001 b 611 638 876 753 743 625 b 546 696 528 646 510 700 b 756 888 611 689 722 747 b 674 1100 783 1007 753 1085 b 153 294 526 1128 153 826 b 294 58 153 150 197 58 b 699 539 435 58 556 254 b 719 551 701 550 710 557 b 813 432 765 525 813 485 b 661 10 813 404 738 218 b 601 -143 640 -46 621 -97 b 726 -142 647 -144 689 -146 b 844 -75 792 -135 825 -114 m 267 -357 b 443 -186 343 -358 397 -283 b 335 -175 407 -179 369 -175 b 161 -260 263 -175 153 -190 b 267 -357 165 -301 213 -356 m 233 -497 b 297 -565 274 -497 297 -521 b 151 -732 297 -647 221 -732 b 121 -712 128 -732 110 -717 b 179 -629 151 -701 179 -664 b 167 -565 179 -607 167 -600 b 233 -497 167 -528 199 -497 "},"":{"ha":928,"x_min":0,"x_max":0,"o":"m 538 1265 b 475 1328 504 1265 475 1290 b 585 1458 475 1378 504 1458 b 651 1392 635 1458 651 1424 b 538 1265 651 1360 625 1265 m 844 -75 b 900 -160 849 -67 900 -99 b 772 -249 900 -197 868 -249 b 568 -212 714 -249 643 -231 b 256 -426 499 -349 413 -426 b 40 -261 139 -426 40 -361 b 310 -119 40 -142 186 -112 b 467 -132 358 -122 413 -128 b 544 71 494 -67 519 6 b 594 204 563 117 579 163 b 290 -33 511 86 400 -33 b 0 333 93 -33 0 111 b 733 1140 0 842 399 1283 b 888 888 835 1096 897 1001 b 611 638 876 753 743 625 b 546 696 528 646 510 700 b 756 888 611 689 722 747 b 674 1100 783 1007 753 1085 b 153 294 526 1128 153 826 b 294 58 153 150 197 58 b 699 539 435 58 556 254 b 719 551 701 550 710 557 b 813 432 765 525 813 485 b 661 10 813 404 738 218 b 601 -143 640 -46 621 -97 b 726 -142 647 -144 689 -146 b 844 -75 792 -135 825 -114 m 267 -357 b 443 -186 343 -358 397 -283 b 335 -175 407 -179 369 -175 b 161 -260 263 -175 153 -190 b 267 -357 165 -301 213 -356 "},"":{"ha":900,"x_min":0,"x_max":0,"o":"m 886 515 b 903 428 918 507 915 422 b 781 444 875 439 832 444 b 646 122 738 349 692 242 b 625 -262 588 -29 568 -200 b 572 -285 639 -278 603 -292 b 467 57 476 -262 403 -167 b 607 433 506 192 556 317 b 290 396 503 422 389 407 b 117 -19 218 221 149 57 b 0 92 104 -50 0 53 b 124 385 0 107 56 229 b 40 400 85 385 56 390 b 56 515 1 426 46 519 b 169 490 88 503 126 494 b 385 1068 267 715 372 969 b 340 1122 389 1110 364 1122 b 15 750 203 1122 15 899 b 49 650 15 701 33 668 b 42 625 60 636 58 625 b -129 811 -37 625 -129 708 b 328 1172 -129 1021 131 1172 b 514 1008 426 1172 514 1126 b 328 488 514 958 424 725 b 643 514 432 492 544 504 b 861 1058 744 732 843 914 b 983 942 867 1101 983 1039 b 817 524 983 874 913 733 b 886 515 844 522 868 521 "},"":{"ha":900,"x_min":0,"x_max":0,"o":"m 900 678 b 933 594 951 672 946 590 b 854 606 915 600 888 604 l 817 524 b 886 515 844 522 868 521 b 903 428 918 507 915 422 b 781 444 875 439 832 444 b 646 122 738 349 692 242 b 625 -262 588 -29 568 -200 b 572 -285 639 -278 603 -292 b 467 57 476 -262 403 -167 b 607 433 506 192 556 317 b 290 396 503 422 389 407 b 117 -19 218 221 149 57 b 0 92 104 -50 0 53 b 124 385 0 107 56 229 b 40 400 85 385 56 390 b 56 515 1 426 46 519 b 169 490 88 503 126 494 l 211 588 b 144 599 183 589 161 593 b 154 694 103 614 144 697 b 249 678 183 688 215 682 b 385 1068 318 842 376 996 b 340 1122 389 1110 364 1122 b 15 750 203 1122 15 899 b 49 650 15 701 33 668 b 42 625 60 636 58 625 b -129 811 -37 625 -129 708 b 328 1172 -129 1021 131 1172 b 514 1008 426 1172 514 1126 b 400 668 514 972 464 833 b 719 676 508 665 625 672 b 861 1058 790 824 847 951 b 983 942 867 1101 983 1039 b 888 679 983 892 946 804 b 900 678 892 679 896 678 m 328 488 b 643 514 432 492 544 504 b 686 604 657 544 672 574 b 367 586 583 599 467 590 b 328 488 354 554 340 521 "},"":{"ha":733,"x_min":0,"x_max":0,"o":"m 538 -61 b 522 -179 576 -85 532 -183 b 319 -136 447 -147 381 -136 b 350 -228 322 -175 332 -207 b 297 -250 364 -243 328 -257 b 182 -150 247 -239 204 -207 b 22 -167 129 -158 76 -167 b -37 -83 -53 -167 -51 -82 b 168 -74 29 -90 100 -83 b 192 92 165 -28 172 26 b 604 1068 254 304 585 879 b 560 1122 608 1110 583 1122 b 235 750 422 1122 235 899 b 268 650 235 701 253 668 b 261 625 279 636 278 625 b 90 811 182 625 90 708 b 547 1172 90 1021 350 1172 b 733 1008 646 1172 733 1126 b 371 157 733 915 396 232 b 322 -47 347 89 329 17 b 538 -61 410 -35 486 -29 "},"":{"ha":733,"x_min":0,"x_max":0,"o":"m 807 1463 b 917 1417 846 1506 938 1426 b 765 1251 856 1386 825 1300 b 683 1278 738 1228 668 1265 b 807 1463 740 1324 767 1418 m 733 1008 b 371 157 733 915 396 232 b 322 -47 347 89 329 17 b 538 -61 410 -35 486 -29 b 522 -179 576 -85 532 -183 b 319 -136 447 -147 381 -136 b 350 -228 322 -175 332 -207 b 297 -250 364 -243 328 -257 b 182 -150 247 -239 204 -207 b 22 -167 129 -158 76 -167 b -37 -83 -53 -167 -51 -82 b 168 -74 29 -90 100 -83 b 192 92 165 -28 172 26 b 604 1068 254 304 585 879 b 560 1122 608 1110 583 1122 b 235 750 422 1122 235 899 b 268 650 235 701 253 668 b 261 625 279 636 278 625 b 90 811 182 625 90 708 b 547 1172 90 1021 350 1172 b 733 1008 646 1172 733 1126 "},"":{"ha":733,"x_min":0,"x_max":0,"o":"m 867 1239 b 774 1251 872 1226 790 1210 b 756 1364 763 1281 758 1350 b 726 1368 753 1379 746 1378 b 617 1272 701 1356 643 1306 b 594 1322 611 1265 564 1288 b 724 1451 617 1347 708 1435 b 829 1422 740 1469 825 1447 b 867 1239 833 1396 840 1300 m 733 1008 b 371 157 733 915 396 232 b 322 -47 347 89 329 17 b 538 -61 410 -35 486 -29 b 522 -179 576 -85 532 -183 b 319 -136 447 -147 381 -136 b 350 -228 322 -175 332 -207 b 297 -250 364 -243 328 -257 b 182 -150 247 -239 204 -207 b 22 -167 129 -158 76 -167 b -37 -83 -53 -167 -51 -82 b 168 -74 29 -90 100 -83 b 192 92 165 -28 172 26 b 604 1068 254 304 585 879 b 560 1122 608 1110 583 1122 b 235 750 422 1122 235 899 b 268 650 235 701 253 668 b 261 625 279 636 278 625 b 90 811 182 625 90 708 b 547 1172 90 1021 350 1172 b 733 1008 646 1172 733 1126 "},"":{"ha":733,"x_min":0,"x_max":0,"o":"m 629 1288 b 572 1344 599 1288 572 1310 b 672 1463 572 1389 599 1463 b 732 1401 718 1463 732 1431 b 629 1288 732 1372 708 1288 m 908 1435 b 968 1374 954 1435 968 1403 b 865 1260 968 1344 944 1260 b 808 1317 835 1260 808 1282 b 908 1435 808 1361 835 1435 m 733 1008 b 371 157 733 915 396 232 b 322 -47 347 89 329 17 b 538 -61 410 -35 486 -29 b 522 -179 576 -85 532 -183 b 319 -136 447 -147 381 -136 b 350 -228 322 -175 332 -207 b 297 -250 364 -243 328 -257 b 182 -150 247 -239 204 -207 b 22 -167 129 -158 76 -167 b -37 -83 -53 -167 -51 -82 b 168 -74 29 -90 100 -83 b 192 92 165 -28 172 26 b 604 1068 254 304 585 879 b 560 1122 608 1110 583 1122 b 235 750 422 1122 235 899 b 268 650 235 701 253 668 b 261 625 279 636 278 625 b 90 811 182 625 90 708 b 547 1172 90 1021 350 1172 b 733 1008 646 1172 733 1126 "},"":{"ha":733,"x_min":0,"x_max":0,"o":"m 818 1463 b 885 1396 868 1463 885 1428 b 771 1269 885 1364 858 1269 b 708 1332 738 1269 708 1294 b 818 1463 708 1382 738 1463 m 733 1008 b 371 157 733 915 396 232 b 322 -47 347 89 329 17 b 538 -61 410 -35 486 -29 b 522 -179 576 -85 532 -183 b 319 -136 447 -147 381 -136 b 350 -228 322 -175 332 -207 b 297 -250 364 -243 328 -257 b 182 -150 247 -239 204 -207 b 22 -167 129 -158 76 -167 b -37 -83 -53 -167 -51 -82 b 168 -74 29 -90 100 -83 b 192 92 165 -28 172 26 b 604 1068 254 304 585 879 b 560 1122 608 1110 583 1122 b 235 750 422 1122 235 899 b 268 650 235 701 253 668 b 261 625 279 636 278 625 b 90 811 182 625 90 708 b 547 1172 90 1021 350 1172 b 733 1008 646 1172 733 1126 "},"":{"ha":733,"x_min":0,"x_max":0,"o":"m 835 1299 b 760 1254 840 1254 763 1240 b 671 1464 750 1303 671 1407 b 781 1514 671 1511 781 1544 b 835 1299 781 1450 826 1361 m 733 1008 b 371 157 733 915 396 232 b 322 -47 347 89 329 17 b 538 -61 410 -35 486 -29 b 522 -179 576 -85 532 -183 b 319 -136 447 -147 381 -136 b 350 -228 322 -175 332 -207 b 297 -250 364 -243 328 -257 b 182 -150 247 -239 204 -207 b 22 -167 129 -158 76 -167 b -37 -83 -53 -167 -51 -82 b 168 -74 29 -90 100 -83 b 192 92 165 -28 172 26 b 604 1068 254 304 585 879 b 560 1122 608 1110 583 1122 b 235 750 422 1122 235 899 b 268 650 235 701 253 668 b 261 625 279 636 278 625 b 90 811 182 625 90 708 b 547 1172 90 1021 350 1172 b 733 1008 646 1172 733 1126 "},"":{"ha":733,"x_min":0,"x_max":0,"o":"m 950 1307 b 963 1240 985 1297 975 1233 b 504 1278 888 1279 550 1240 b 525 1358 471 1306 515 1361 b 950 1307 658 1325 865 1332 m 733 1008 b 371 157 733 915 396 232 b 322 -47 347 89 329 17 b 538 -61 410 -35 486 -29 b 522 -179 576 -85 532 -183 b 319 -136 447 -147 381 -136 b 350 -228 322 -175 332 -207 b 297 -250 364 -243 328 -257 b 182 -150 247 -239 204 -207 b 22 -167 129 -158 76 -167 b -37 -83 -53 -167 -51 -82 b 168 -74 29 -90 100 -83 b 192 92 165 -28 172 26 b 604 1068 254 304 585 879 b 560 1122 608 1110 583 1122 b 235 750 422 1122 235 899 b 268 650 235 701 253 668 b 261 625 279 636 278 625 b 90 811 182 625 90 708 b 547 1172 90 1021 350 1172 b 733 1008 646 1172 733 1126 "},"":{"ha":883,"x_min":0,"x_max":0,"o":"m 799 144 b 828 88 801 153 838 114 b 731 25 817 56 786 33 b 558 31 683 18 624 22 b 163 -250 436 -133 299 -250 b -85 -26 63 -250 -85 -172 b 186 118 -85 82 63 122 b 450 101 276 115 368 108 b 842 939 614 375 767 771 b 794 1072 876 1015 886 1072 b 315 665 576 1072 315 926 b 383 483 315 567 350 506 b 329 460 417 461 361 453 b 176 697 282 469 176 533 b 850 1143 176 976 508 1143 b 1022 1064 924 1143 1022 1122 b 604 93 1022 960 844 447 b 700 96 640 93 672 93 b 799 144 756 101 789 114 m 158 -182 b 418 50 240 -182 331 -86 b 250 63 363 57 307 63 b 40 -47 139 63 40 47 b 158 -182 40 -119 96 -182 "},"":{"ha":825,"x_min":0,"x_max":0,"o":"m 972 -210 b 868 -304 997 -208 969 -303 b 340 411 697 -307 478 -107 l 286 386 b 117 -19 215 215 147 56 b 0 92 104 -50 0 53 b 385 1068 0 129 361 879 b 340 1122 389 1110 364 1122 b 15 750 203 1122 15 899 b 49 650 15 701 33 668 b 42 625 60 636 58 625 b -129 811 -37 625 -129 708 b 328 1172 -129 1021 131 1172 b 514 1008 426 1172 514 1126 b 346 533 514 963 435 754 b 1017 1179 536 604 897 919 b 1103 1068 1036 1222 1103 1126 b 446 464 1103 965 840 674 b 972 -210 560 63 815 -218 "},"":{"ha":825,"x_min":0,"x_max":0,"o":"m 972 -210 b 868 -304 997 -208 969 -303 b 340 411 697 -307 478 -107 l 286 386 b 117 -19 215 215 147 56 b 0 92 104 -50 0 53 b 385 1068 0 129 361 879 b 340 1122 389 1110 364 1122 b 15 750 203 1122 15 899 b 49 650 15 701 33 668 b 42 625 60 636 58 625 b -129 811 -37 625 -129 708 b 328 1172 -129 1021 131 1172 b 514 1008 426 1172 514 1126 b 346 533 514 963 435 754 b 1017 1179 536 604 897 919 b 1103 1068 1036 1222 1103 1126 b 446 464 1103 965 840 674 b 972 -210 560 63 815 -218 m 272 -71 b 336 -139 313 -71 336 -94 b 190 -306 336 -221 260 -306 b 160 -286 167 -306 149 -290 b 218 -203 190 -275 218 -237 b 206 -139 218 -181 206 -174 b 272 -71 206 -101 238 -71 "},"":{"ha":864,"x_min":0,"x_max":0,"o":"m 794 786 b 1014 1057 915 771 1014 922 b 929 1178 1014 1138 974 1178 b 596 619 833 1178 718 957 b 388 79 536 456 472 247 b 886 -217 667 43 886 -87 b 758 -329 886 -312 771 -360 b 447 -32 700 -187 600 -74 b 339 -8 407 -21 371 -14 b 63 -212 265 -129 175 -212 b -119 -28 -74 -212 -119 -76 b 229 90 -119 21 -76 90 l 244 90 b 447 635 318 257 390 482 b 893 1258 588 1011 715 1258 b 1138 1001 1042 1258 1138 1156 b 878 726 1138 863 1011 726 b 776 775 808 726 776 758 b 794 786 776 783 783 788 m 85 -132 b 201 0 122 -125 163 -75 b -26 -42 113 0 -26 0 b 85 -132 -26 -71 -4 -147 "},"":{"ha":864,"x_min":0,"x_max":0,"o":"m 1036 1606 b 1146 1560 1075 1649 1167 1569 b 994 1394 1085 1529 1054 1443 b 913 1421 967 1371 897 1408 b 1036 1606 969 1467 996 1561 m 893 1258 b 1138 1001 1042 1258 1138 1156 b 878 726 1138 863 1011 726 b 776 775 808 726 776 758 b 794 786 776 783 783 788 b 1014 1057 915 771 1014 922 b 929 1178 1014 1138 974 1178 b 596 619 833 1178 718 957 b 388 79 536 456 472 247 b 886 -217 667 43 886 -87 b 758 -329 886 -312 771 -360 b 447 -32 700 -187 600 -74 b 339 -8 407 -21 371 -14 b 63 -212 265 -129 175 -212 b -119 -28 -74 -212 -119 -76 b 229 90 -119 21 -76 90 l 244 90 b 447 635 318 257 390 482 b 893 1258 588 1011 715 1258 m 85 -132 b 201 0 122 -125 163 -75 b -26 -42 113 0 -26 0 b 85 -132 -26 -71 -4 -147 "},"":{"ha":864,"x_min":0,"x_max":0,"o":"m 794 786 b 1014 1057 915 771 1014 922 b 929 1178 1014 1138 974 1178 b 596 619 833 1178 718 957 b 388 79 536 456 472 247 b 886 -217 667 43 886 -87 b 758 -329 886 -312 771 -360 b 447 -32 700 -187 600 -74 b 339 -8 407 -21 371 -14 b 63 -212 265 -129 175 -212 b -119 -28 -74 -212 -119 -76 b 229 90 -119 21 -76 90 l 244 90 b 447 635 318 257 390 482 b 893 1258 588 1011 715 1258 b 1138 1001 1042 1258 1138 1156 b 878 726 1138 863 1011 726 b 776 775 808 726 776 758 b 794 786 776 783 783 788 m 1238 1024 b 1301 956 1278 1024 1301 1000 b 1156 789 1301 874 1225 789 b 1125 808 1132 789 1114 804 b 1183 892 1156 819 1183 857 b 1171 956 1183 914 1171 921 b 1238 1024 1171 993 1203 1024 m 85 -132 b 201 0 122 -125 163 -75 b -26 -42 113 0 -26 0 b 85 -132 -26 -71 -4 -147 "},"":{"ha":864,"x_min":0,"x_max":0,"o":"m 794 786 b 1014 1057 915 771 1014 922 b 929 1178 1014 1138 974 1178 b 596 619 833 1178 718 957 b 388 79 536 456 472 247 b 886 -217 667 43 886 -87 b 758 -329 886 -312 771 -360 b 447 -32 700 -187 600 -74 b 339 -8 407 -21 371 -14 b 63 -212 265 -129 175 -212 b -119 -28 -74 -212 -119 -76 b 229 90 -119 21 -76 90 l 244 90 b 447 635 318 257 390 482 b 893 1258 588 1011 715 1258 b 1138 1001 1042 1258 1138 1156 b 878 726 1138 863 1011 726 b 776 775 808 726 776 758 b 794 786 776 783 783 788 m 85 -132 b 201 0 122 -125 163 -75 b -26 -42 113 0 -26 0 b 85 -132 -26 -71 -4 -147 m 389 -214 b 453 -282 429 -214 453 -237 b 307 -449 453 -364 376 -449 b 276 -429 283 -449 265 -433 b 335 -346 307 -418 335 -381 b 322 -282 335 -324 322 -317 b 389 -214 322 -244 354 -214 "},"":{"ha":864,"x_min":0,"x_max":0,"o":"m 794 786 b 1014 1057 915 771 1014 922 b 929 1178 1014 1138 974 1178 b 601 636 835 1178 722 964 b 674 686 629 651 654 668 b 701 607 682 693 726 643 b 571 549 689 589 635 569 b 388 79 518 397 460 224 b 886 -217 667 43 886 -87 b 758 -329 886 -312 771 -360 b 447 -32 700 -187 600 -74 b 339 -8 407 -21 371 -14 b 63 -212 265 -129 175 -212 b -119 -28 -74 -212 -119 -76 b 229 90 -119 21 -76 90 l 244 90 b 396 492 297 210 350 360 b 304 443 354 475 321 460 b 296 511 294 433 265 493 b 421 561 324 528 369 543 l 447 635 b 893 1258 588 1011 715 1258 b 1138 1001 1042 1258 1138 1156 b 878 726 1138 863 1011 726 b 776 775 808 726 776 758 b 794 786 776 783 783 788 m 85 -132 b 201 0 122 -125 163 -75 b -26 -42 113 0 -26 0 b 85 -132 -26 -71 -4 -147 "},"":{"ha":1544,"x_min":0,"x_max":0,"o":"m 1413 -237 b 1307 -300 1425 -240 1400 -315 b 1163 -110 1203 -283 1163 -207 b 1372 807 1163 86 1321 647 b 1335 818 1392 865 1360 867 b 807 -21 1307 764 988 -21 b 663 133 726 -21 663 25 b 875 928 663 282 842 806 b 831 956 899 1015 871 1011 b 385 -49 790 899 406 229 b 292 22 382 -85 292 -49 b 822 1079 292 176 572 774 b 543 1093 749 1083 646 1093 b 133 792 311 1093 133 983 b 204 615 133 693 168 632 b 147 586 235 601 193 576 b -22 824 61 604 -22 685 b 558 1158 -22 1067 243 1158 b 913 1149 701 1158 846 1140 b 938 1156 921 1153 931 1156 l 940 1156 b 1069 1051 978 1153 1069 1103 b 824 128 1069 953 824 236 b 849 97 824 108 832 97 b 1357 994 953 97 1282 847 b 1449 1064 1385 1049 1421 1064 b 1572 957 1476 1064 1572 1006 b 1338 -122 1572 785 1338 150 b 1413 -237 1338 -193 1368 -228 "},"":{"ha":1300,"x_min":0,"x_max":0,"o":"m 1503 1206 b 1615 1175 1538 1249 1640 1196 b 747 -206 1306 917 1010 -206 b 601 -51 665 -206 601 -160 b 875 928 601 97 842 806 b 831 956 899 1015 871 1011 b 385 -49 790 899 406 229 b 292 22 382 -85 292 -49 b 822 1079 292 176 572 774 b 571 1093 751 1083 657 1093 b 161 792 339 1093 161 983 b 232 615 161 693 196 632 b 175 586 263 601 221 576 b 6 824 89 604 6 685 b 586 1158 6 1067 271 1158 b 911 1149 706 1158 846 1140 b 938 1156 921 1153 931 1156 l 940 1156 b 1069 1051 978 1153 1069 1103 b 764 -57 1069 953 763 51 b 789 -87 764 -76 771 -87 b 1503 1206 915 -87 1214 847 "},"":{"ha":1300,"x_min":0,"x_max":0,"o":"m 1292 1247 b 1210 1274 1264 1224 1194 1261 b 1333 1458 1267 1319 1293 1414 b 1443 1413 1372 1501 1464 1422 b 1292 1247 1382 1382 1351 1296 m 1503 1206 b 1615 1175 1538 1249 1640 1196 b 747 -206 1306 917 1010 -206 b 601 -51 665 -206 601 -160 b 875 928 601 97 842 806 b 831 956 899 1015 871 1011 b 385 -49 790 899 406 229 b 292 22 382 -85 292 -49 b 822 1079 292 176 572 774 b 571 1093 751 1083 657 1093 b 161 792 339 1093 161 983 b 232 615 161 693 196 632 b 175 586 263 601 221 576 b 6 824 89 604 6 685 b 586 1158 6 1067 271 1158 b 911 1149 706 1158 846 1140 b 938 1156 921 1153 931 1156 l 940 1156 b 1069 1051 978 1153 1069 1103 b 764 -57 1069 953 763 51 b 789 -87 764 -76 771 -87 b 1503 1206 915 -87 1214 847 "},"":{"ha":1300,"x_min":0,"x_max":0,"o":"m 1190 1265 b 1136 1444 1185 1292 1176 1372 b 1231 1440 1131 1457 1210 1481 b 1258 1329 1244 1414 1254 1344 b 1288 1328 1263 1314 1269 1318 b 1389 1433 1311 1342 1363 1401 b 1415 1385 1394 1439 1442 1424 b 1297 1244 1397 1357 1310 1263 b 1190 1265 1285 1225 1194 1242 m 1503 1206 b 1615 1175 1538 1249 1640 1196 b 747 -206 1306 917 1010 -206 b 601 -51 665 -206 601 -160 b 875 928 601 97 842 806 b 831 956 899 1015 871 1011 b 385 -49 790 899 406 229 b 292 22 382 -85 292 -49 b 822 1079 292 176 572 774 b 571 1093 751 1083 657 1093 b 161 792 339 1093 161 983 b 232 615 161 693 196 632 b 175 586 263 601 221 576 b 6 824 89 604 6 685 b 586 1158 6 1067 271 1158 b 911 1149 706 1158 846 1140 b 938 1156 921 1153 931 1156 l 940 1156 b 1069 1051 978 1153 1069 1103 b 764 -57 1069 953 763 51 b 789 -87 764 -76 771 -87 b 1503 1206 915 -87 1214 847 "},"":{"ha":1300,"x_min":0,"x_max":0,"o":"m 1503 1206 b 1615 1175 1538 1249 1640 1196 b 747 -206 1306 917 1010 -206 b 601 -51 665 -206 601 -160 b 875 928 601 97 842 806 b 831 956 899 1015 871 1011 b 385 -49 790 899 406 229 b 292 22 382 -85 292 -49 b 822 1079 292 176 572 774 b 571 1093 751 1083 657 1093 b 161 792 339 1093 161 983 b 232 615 161 693 196 632 b 175 586 263 601 221 576 b 6 824 89 604 6 685 b 586 1158 6 1067 271 1158 b 911 1149 706 1158 846 1140 b 938 1156 921 1153 931 1156 l 940 1156 b 1069 1051 978 1153 1069 1103 b 764 -57 1069 953 763 51 b 789 -87 764 -76 771 -87 b 1503 1206 915 -87 1214 847 m 504 -231 b 568 -299 544 -231 568 -254 b 422 -465 568 -381 492 -465 b 392 -446 399 -465 381 -450 b 450 -362 422 -435 450 -397 b 438 -299 450 -340 438 -333 b 504 -231 438 -261 469 -231 "},"":{"ha":1300,"x_min":0,"x_max":0,"o":"m 1064 1281 b 1063 1346 1057 1271 1043 1313 b 1150 1381 1079 1374 1113 1386 b 1319 1271 1224 1369 1269 1293 b 1381 1279 1340 1261 1369 1265 b 1372 1214 1388 1288 1392 1242 b 1274 1189 1351 1185 1313 1178 b 1125 1301 1211 1206 1181 1286 b 1064 1281 1103 1307 1081 1301 m 1503 1206 b 1615 1175 1538 1249 1640 1196 b 747 -206 1306 917 1010 -206 b 601 -51 665 -206 601 -160 b 875 928 601 97 842 806 b 831 956 899 1015 871 1011 b 385 -49 790 899 406 229 b 292 22 382 -85 292 -49 b 822 1079 292 176 572 774 b 571 1093 751 1083 657 1093 b 161 792 339 1093 161 983 b 232 615 161 693 196 632 b 175 586 263 601 221 576 b 6 824 89 604 6 685 b 586 1158 6 1067 271 1158 b 911 1149 706 1158 846 1140 b 938 1156 921 1153 931 1156 l 940 1156 b 1069 1051 978 1153 1069 1103 b 764 -57 1069 953 763 51 b 789 -87 764 -76 771 -87 b 1503 1206 915 -87 1214 847 "},"":{"ha":1018,"x_min":0,"x_max":0,"o":"m 738 1131 b 1046 764 957 1131 1046 936 b 289 -219 1046 458 663 -219 b 24 113 136 -219 24 -96 b 281 733 24 297 106 557 b 738 1131 331 1024 544 1131 m 308 -132 b 900 836 536 -132 900 524 b 722 1065 900 932 869 1065 b 458 861 632 1065 522 1006 b 738 925 539 901 632 925 b 836 824 831 925 875 819 b 404 626 672 840 521 757 b 403 568 403 608 403 589 b 499 303 403 419 465 325 b 444 279 532 281 475 271 b 289 461 406 290 326 342 b 179 56 219 335 179 190 b 308 -132 179 -65 233 -132 "},"":{"ha":1018,"x_min":0,"x_max":0,"o":"m 974 1424 b 1083 1378 1013 1467 1104 1388 b 932 1213 1022 1347 992 1261 b 850 1239 904 1189 835 1226 b 974 1424 907 1285 933 1379 m 738 1131 b 1046 764 957 1131 1046 936 b 289 -219 1046 458 663 -219 b 24 113 136 -219 24 -96 b 281 733 24 297 106 557 b 738 1131 331 1024 544 1131 m 308 -132 b 900 836 536 -132 900 524 b 722 1065 900 932 869 1065 b 458 861 632 1065 522 1006 b 738 925 539 901 632 925 b 836 824 831 925 875 819 b 404 626 672 840 521 757 b 403 568 403 608 403 589 b 499 303 403 419 465 325 b 444 279 532 281 475 271 b 289 461 406 290 326 342 b 179 56 219 335 179 190 b 308 -132 179 -65 233 -132 "},"":{"ha":1018,"x_min":0,"x_max":0,"o":"m 783 1233 b 761 1283 778 1226 731 1249 b 890 1413 783 1308 875 1396 b 996 1383 907 1431 992 1408 b 1033 1200 1000 1357 1007 1261 b 940 1213 1039 1188 957 1171 b 922 1325 929 1242 925 1311 b 893 1329 919 1340 913 1339 b 783 1233 868 1317 810 1267 m 738 1131 b 1046 764 957 1131 1046 936 b 289 -219 1046 458 663 -219 b 24 113 136 -219 24 -96 b 281 733 24 297 106 557 b 738 1131 331 1024 544 1131 m 308 -132 b 900 836 536 -132 900 524 b 722 1065 900 932 869 1065 b 458 861 632 1065 522 1006 b 738 925 539 901 632 925 b 836 824 831 925 875 819 b 404 626 672 840 521 757 b 403 568 403 608 403 589 b 499 303 403 419 465 325 b 444 279 532 281 475 271 b 289 461 406 290 326 342 b 179 56 219 335 179 190 b 308 -132 179 -65 233 -132 "},"":{"ha":1018,"x_min":0,"x_max":0,"o":"m 796 1249 b 739 1306 765 1249 739 1271 b 839 1424 739 1350 765 1424 b 899 1363 885 1424 899 1392 b 796 1249 899 1333 875 1249 m 1075 1396 b 1135 1335 1121 1396 1135 1364 b 1032 1221 1135 1306 1111 1221 b 975 1278 1001 1221 975 1243 b 1075 1396 975 1322 1001 1396 m 738 1131 b 1046 764 957 1131 1046 936 b 289 -219 1046 458 663 -219 b 24 113 136 -219 24 -96 b 281 733 24 297 106 557 b 738 1131 331 1024 544 1131 m 308 -132 b 900 836 536 -132 900 524 b 722 1065 900 932 869 1065 b 458 861 632 1065 522 1006 b 738 925 539 901 632 925 b 836 824 831 925 875 819 b 404 626 672 840 521 757 b 403 568 403 608 403 589 b 499 303 403 419 465 325 b 444 279 532 281 475 271 b 289 461 406 290 326 342 b 179 56 219 335 179 190 b 308 -132 179 -65 233 -132 "},"":{"ha":1018,"x_min":0,"x_max":0,"o":"m 1001 1260 b 926 1215 1007 1215 929 1201 b 838 1425 917 1264 838 1368 b 947 1475 838 1472 947 1506 b 1001 1260 947 1411 993 1322 m 738 1131 b 1046 764 957 1131 1046 936 b 289 -219 1046 458 663 -219 b 24 113 136 -219 24 -96 b 281 733 24 297 106 557 b 738 1131 331 1024 544 1131 m 308 -132 b 900 836 536 -132 900 524 b 722 1065 900 932 869 1065 b 458 861 632 1065 522 1006 b 738 925 539 901 632 925 b 836 824 831 925 875 819 b 404 626 672 840 521 757 b 403 568 403 608 403 589 b 499 303 403 419 465 325 b 444 279 532 281 475 271 b 289 461 406 290 326 342 b 179 56 219 335 179 190 b 308 -132 179 -65 233 -132 "},"":{"ha":1018,"x_min":0,"x_max":0,"o":"m 790 1219 b 718 1239 763 1196 703 1226 b 842 1424 775 1285 801 1379 b 942 1385 881 1467 963 1394 b 790 1219 879 1356 850 1268 m 1039 1389 b 1136 1350 1078 1432 1157 1360 b 985 1185 1074 1321 1044 1233 b 915 1204 957 1161 900 1192 b 1039 1389 972 1250 999 1344 m 738 1131 b 1046 764 957 1131 1046 936 b 289 -219 1046 458 663 -219 b 24 113 136 -219 24 -96 b 281 733 24 297 106 557 b 738 1131 331 1024 544 1131 m 308 -132 b 900 836 536 -132 900 524 b 722 1065 900 932 869 1065 b 458 861 632 1065 522 1006 b 738 925 539 901 632 925 b 836 824 831 925 875 819 b 404 626 672 840 521 757 b 403 568 403 608 403 589 b 499 303 403 419 465 325 b 444 279 532 281 475 271 b 289 461 406 290 326 342 b 179 56 219 335 179 190 b 308 -132 179 -65 233 -132 "},"":{"ha":1018,"x_min":0,"x_max":0,"o":"m 1117 1268 b 1129 1201 1151 1258 1142 1194 b 671 1239 1054 1240 717 1201 b 692 1319 638 1267 682 1322 b 1117 1268 825 1286 1032 1293 m 738 1131 b 1046 764 957 1131 1046 936 b 289 -219 1046 458 663 -219 b 24 113 136 -219 24 -96 b 281 733 24 297 106 557 b 738 1131 331 1024 544 1131 m 308 -132 b 900 836 536 -132 900 524 b 722 1065 900 932 869 1065 b 458 861 632 1065 522 1006 b 738 925 539 901 632 925 b 836 824 831 925 875 819 b 404 626 672 840 521 757 b 403 568 403 608 403 589 b 499 303 403 419 465 325 b 444 279 532 281 475 271 b 289 461 406 290 326 342 b 179 56 219 335 179 190 b 308 -132 179 -65 233 -132 "},"":{"ha":1018,"x_min":0,"x_max":0,"o":"m 1015 933 b 1046 764 1036 879 1046 821 b 289 -219 1046 458 663 -219 b 201 -204 258 -219 228 -214 b 176 -246 192 -219 183 -233 b 136 -168 169 -258 114 -210 b 24 113 67 -112 24 -17 b 281 733 24 297 106 557 b 738 1131 331 1024 544 1131 b 961 1028 839 1131 913 1089 b 967 1039 964 1032 965 1035 b 1043 982 971 1049 1060 1022 b 1015 933 1039 971 1029 954 m 722 1065 b 458 861 632 1065 522 1006 b 738 925 539 901 632 925 b 836 824 831 925 875 819 b 404 626 672 840 521 757 b 403 568 403 608 403 589 b 485 315 403 439 450 350 b 894 901 635 514 793 728 b 722 1065 882 983 838 1065 m 308 -132 b 893 757 518 -132 844 425 b 256 -119 714 508 418 125 b 308 -132 271 -128 289 -132 m 289 461 b 179 56 219 335 179 190 b 204 -64 179 6 189 -35 b 456 276 272 33 361 151 l 444 279 b 289 461 406 290 326 342 "},"":{"ha":1018,"x_min":0,"x_max":0,"o":"m 704 1246 b 703 1311 697 1236 683 1278 b 790 1346 719 1339 753 1351 b 960 1236 864 1335 910 1258 b 1021 1244 981 1226 1010 1231 b 1013 1179 1028 1253 1032 1207 b 914 1154 992 1150 953 1143 b 765 1267 851 1171 821 1251 b 704 1246 743 1272 721 1267 m 738 1131 b 1046 764 957 1131 1046 936 b 289 -219 1046 458 663 -219 b 24 113 136 -219 24 -96 b 281 733 24 297 106 557 b 738 1131 331 1024 544 1131 m 308 -132 b 900 836 536 -132 900 524 b 722 1065 900 932 869 1065 b 458 861 632 1065 522 1006 b 738 925 539 901 632 925 b 836 824 831 925 875 819 b 404 626 672 840 521 757 b 403 568 403 608 403 589 b 499 303 403 419 465 325 b 444 279 532 281 475 271 b 289 461 406 290 326 342 b 179 56 219 335 179 190 b 308 -132 179 -65 233 -132 "},"":{"ha":1117,"x_min":0,"x_max":0,"o":"m 713 1164 b 1214 771 989 1164 1214 1068 b 661 140 1214 424 931 140 b 475 235 571 140 496 182 b 494 306 458 278 481 317 b 625 257 536 272 585 257 b 1042 783 835 257 1042 543 b 732 1090 1042 960 961 1079 b 736 1064 735 1082 736 1074 b 189 -250 736 1003 201 -219 b 72 -139 176 -281 72 -178 b 600 1085 72 -106 494 768 b 147 642 367 1053 147 907 b 229 446 147 529 194 467 b 239 433 236 442 239 438 b 201 418 239 424 221 418 b -14 668 101 418 -14 525 b 621 1160 -14 983 300 1136 b 622 1171 621 1164 622 1168 b 643 1183 624 1182 633 1189 b 674 1164 653 1178 664 1171 l 713 1164 "},"":{"ha":1018,"x_min":0,"x_max":0,"o":"m 1119 -267 b 1064 -400 1143 -257 1142 -369 b 356 -54 893 -468 613 -117 b 300 -46 338 -53 318 -50 b 368 11 279 -44 318 15 b 900 836 607 11 900 524 b 722 1065 900 932 864 1065 b 389 582 586 1065 389 857 b 471 372 389 456 438 394 b 417 349 504 350 446 344 b 228 614 353 358 228 422 b 724 1131 228 922 518 1131 b 1046 764 957 1131 1046 936 b 522 -32 1046 515 825 75 b 1119 -267 739 -122 1003 -315 "}}}
